<?xml version="1.0" encoding="UTF-8" standalone="no"?>
<!-- Created with Inkscape (http://www.inkscape.org/) -->

<svg
   xmlns:dc="http://purl.org/dc/elements/1.1/"
   xmlns:cc="http://creativecommons.org/ns#"
   xmlns:rdf="http://www.w3.org/1999/02/22-rdf-syntax-ns#"
   xmlns:svg="http://www.w3.org/2000/svg"
   xmlns="http://www.w3.org/2000/svg"
   xmlns:sodipodi="http://sodipodi.sourceforge.net/DTD/sodipodi-0.dtd"
   xmlns:inkscape="http://www.inkscape.org/namespaces/inkscape"
   width="744.09448819"
   height="1052.3622047"
   id="svg2"
   version="1.1"
   inkscape:version="0.48.3.1 r9886"
   sodipodi:docname="model-timebags.pdf">
  <defs
     id="defs4">
    <marker
       inkscape:stockid="Arrow2Mend"
       orient="auto"
       refY="0.0"
       refX="0.0"
       id="Arrow2Mend"
       style="overflow:visible;">
      <path
         id="path3786"
         style="fill-rule:evenodd;stroke-width:0.62500000;stroke-linejoin:round;"
         d="M 8.7185878,4.0337352 L -2.2072895,0.016013256 L 8.7185884,-4.0017078 C 6.9730900,-1.6296469 6.9831476,1.6157441 8.7185878,4.0337352 z "
         transform="scale(0.6) rotate(180) translate(0,0)" />
    </marker>
    <marker
       inkscape:stockid="Arrow1Send"
       orient="auto"
       refY="0.0"
       refX="0.0"
       id="Arrow1Send"
       style="overflow:visible;">
      <path
         id="path3774"
         d="M 0.0,0.0 L 5.0,-5.0 L -12.5,0.0 L 5.0,5.0 L 0.0,0.0 z "
         style="fill-rule:evenodd;stroke:#000000;stroke-width:1.0pt;"
         transform="scale(0.2) rotate(180) translate(6,0)" />
    </marker>
    <marker
       inkscape:stockid="Arrow2Lend"
       orient="auto"
       refY="0.0"
       refX="0.0"
       id="Arrow2Lend"
       style="overflow:visible;">
      <path
         id="path3780"
         style="fill-rule:evenodd;stroke-width:0.62500000;stroke-linejoin:round;"
         d="M 8.7185878,4.0337352 L -2.2072895,0.016013256 L 8.7185884,-4.0017078 C 6.9730900,-1.6296469 6.9831476,1.6157441 8.7185878,4.0337352 z "
         transform="scale(1.1) rotate(180) translate(1,0)" />
    </marker>
    <marker
       inkscape:stockid="Arrow2Lend"
       orient="auto"
       refY="0"
       refX="0"
       id="Arrow2Lend-3"
       style="overflow:visible">
      <path
         inkscape:connector-curvature="0"
         id="path3780-4"
         style="fill-rule:evenodd;stroke-width:0.625;stroke-linejoin:round"
         d="M 8.7185878,4.0337352 -2.2072895,0.01601326 8.7185884,-4.0017078 c -1.7454984,2.3720609 -1.7354408,5.6174519 -6e-7,8.035443 z"
         transform="matrix(-1.1,0,0,-1.1,-1.1,0)" />
    </marker>
    <marker
       inkscape:stockid="Arrow2Lend"
       orient="auto"
       refY="0"
       refX="0"
       id="Arrow2Lend-0"
       style="overflow:visible">
      <path
         inkscape:connector-curvature="0"
         id="path3780-3"
         style="fill-rule:evenodd;stroke-width:0.625;stroke-linejoin:round"
         d="M 8.7185878,4.0337352 -2.2072895,0.01601326 8.7185884,-4.0017078 c -1.7454984,2.3720609 -1.7354408,5.6174519 -6e-7,8.035443 z"
         transform="matrix(-1.1,0,0,-1.1,-1.1,0)" />
    </marker>
    <filter
       inkscape:collect="always"
       id="filter6139">
      <feGaussianBlur
         inkscape:collect="always"
         stdDeviation="0.38781064"
         id="feGaussianBlur6141" />
    </filter>
    <filter
       inkscape:collect="always"
       id="filter6143">
      <feGaussianBlur
         inkscape:collect="always"
         stdDeviation="0.38781064"
         id="feGaussianBlur6145" />
    </filter>
    <filter
       inkscape:collect="always"
       id="filter6147">
      <feGaussianBlur
         inkscape:collect="always"
         stdDeviation="0.38781064"
         id="feGaussianBlur6149" />
    </filter>
    <filter
       inkscape:collect="always"
       id="filter6155">
      <feGaussianBlur
         inkscape:collect="always"
         stdDeviation="0.38781064"
         id="feGaussianBlur6157" />
    </filter>
    <filter
       inkscape:collect="always"
       id="filter6159">
      <feGaussianBlur
         inkscape:collect="always"
         stdDeviation="0.38781064"
         id="feGaussianBlur6161" />
    </filter>
    <filter
       inkscape:collect="always"
       id="filter6163">
      <feGaussianBlur
         inkscape:collect="always"
         stdDeviation="0.38781064"
         id="feGaussianBlur6165" />
    </filter>
    <filter
       inkscape:collect="always"
       id="filter6167">
      <feGaussianBlur
         inkscape:collect="always"
         stdDeviation="0.38781064"
         id="feGaussianBlur6169" />
    </filter>
    <filter
       inkscape:collect="always"
       id="filter6171">
      <feGaussianBlur
         inkscape:collect="always"
         stdDeviation="0.38781064"
         id="feGaussianBlur6173" />
    </filter>
  </defs>
  <sodipodi:namedview
     id="base"
     pagecolor="#ffffff"
     bordercolor="#666666"
     borderopacity="1.0"
     inkscape:pageopacity="0.0"
     inkscape:pageshadow="2"
     inkscape:zoom="1.5021831"
     inkscape:cx="340.0815"
     inkscape:cy="637.95485"
     inkscape:document-units="px"
     inkscape:current-layer="layer1"
     showgrid="false"
     inkscape:window-width="1535"
     inkscape:window-height="876"
     inkscape:window-x="65"
     inkscape:window-y="24"
     inkscape:window-maximized="1"
     inkscape:snap-object-midpoints="false" />
  <metadata
     id="metadata7">
    <rdf:RDF>
      <cc:Work
         rdf:about="">
        <dc:format>image/svg+xml</dc:format>
        <dc:type
           rdf:resource="http://purl.org/dc/dcmitype/StillImage" />
        <dc:title></dc:title>
      </cc:Work>
    </rdf:RDF>
  </metadata>
  <g
     inkscape:label="Layer 1"
     inkscape:groupmode="layer"
     id="layer1">
    <path
       sodipodi:type="arc"
       style="fill:#4c8cff;fill-opacity:0.13333333000000000;fill-rule:nonzero;stroke:#4b8eff;stroke-opacity:1;filter:url(#filter6155)"
       id="path4851-4-0-63"
       sodipodi:cx="196.4263"
       sodipodi:cy="426.582"
       sodipodi:rx="55.989231"
       sodipodi:ry="13.919974"
       d="m 252.41553,426.582 a 55.989231,13.919974 0 1 1 -111.97846,0 55.989231,13.919974 0 1 1 111.97846,0 z"
       transform="matrix(1.0055249,0,0,0.73026028,383.36321,81.904084)" />
    <path
       sodipodi:type="arc"
       style="fill:#4b8eff;fill-opacity:0.13333333999999999;fill-rule:nonzero;stroke:#4b8eff;stroke-opacity:1;filter:url(#filter6139)"
       id="path4851-4-0"
       sodipodi:cx="196.4263"
       sodipodi:cy="426.582"
       sodipodi:rx="55.989231"
       sodipodi:ry="13.919974"
       d="m 252.41553,426.582 a 55.989231,13.919974 0 1 1 -111.97846,0 55.989231,13.919974 0 1 1 111.97846,0 z"
       transform="matrix(1.0055249,0,0,0.73026028,85.648364,81.904084)" />
    <path
       sodipodi:type="arc"
       style="fill:#4c8cff;fill-opacity:0.13333333000000000;fill-rule:nonzero;stroke:#4b8eff;stroke-opacity:1;filter:url(#filter6143)"
       id="path4851-4-0-6"
       sodipodi:cx="196.4263"
       sodipodi:cy="426.582"
       sodipodi:rx="55.989231"
       sodipodi:ry="13.919974"
       d="m 252.41553,426.582 a 55.989231,13.919974 0 1 1 -111.97846,0 55.989231,13.919974 0 1 1 111.97846,0 z"
       transform="matrix(1.0055249,0,0,0.73026028,184.88666,81.904084)" />
    <path
       sodipodi:type="arc"
       style="fill:#4c8cff;fill-opacity:0.13333333000000000;fill-rule:nonzero;stroke:#4b8eff;stroke-opacity:1;filter:url(#filter6147)"
       id="path4851-4-0-3"
       sodipodi:cx="196.4263"
       sodipodi:cy="426.582"
       sodipodi:rx="55.989231"
       sodipodi:ry="13.919974"
       d="m 252.41553,426.582 a 55.989231,13.919974 0 1 1 -111.97846,0 55.989231,13.919974 0 1 1 111.97846,0 z"
       transform="matrix(1.0055249,0,0,0.73026028,284.12493,81.904084)" />
    <g
       id="g4408"
       transform="translate(0,2.4715576)">
      <path
         transform="translate(-63.512501,-19.847653)"
         d="m 207.73881,441.05435 c 0,1.82693 -1.48102,3.30794 -3.30795,3.30794 -1.82692,0 -3.30794,-1.48101 -3.30794,-3.30794 0,-1.82692 1.48102,-3.30794 3.30794,-3.30794 1.82693,0 3.30795,1.48102 3.30795,3.30794 z"
         sodipodi:ry="3.3079426"
         sodipodi:rx="3.3079426"
         sodipodi:cy="441.05435"
         sodipodi:cx="204.43086"
         id="path4199"
         style="fill:#ff0a0a;fill-opacity:1;stroke:none"
         sodipodi:type="arc" />
      <path
         transform="translate(-40.3569,-19.847653)"
         d="m 207.73881,441.05435 c 0,1.82693 -1.48102,3.30794 -3.30795,3.30794 -1.82692,0 -3.30794,-1.48101 -3.30794,-3.30794 0,-1.82692 1.48102,-3.30794 3.30794,-3.30794 1.82693,0 3.30795,1.48102 3.30795,3.30794 z"
         sodipodi:ry="3.3079426"
         sodipodi:rx="3.3079426"
         sodipodi:cy="441.05435"
         sodipodi:cx="204.43086"
         id="path4199-4"
         style="fill:#ff0a0a;fill-opacity:1;stroke:none"
         sodipodi:type="arc" />
      <path
         transform="translate(-27.786718,-19.847653)"
         d="m 207.73881,441.05435 c 0,1.82693 -1.48102,3.30794 -3.30795,3.30794 -1.82692,0 -3.30794,-1.48101 -3.30794,-3.30794 0,-1.82692 1.48102,-3.30794 3.30794,-3.30794 1.82693,0 3.30795,1.48102 3.30795,3.30794 z"
         sodipodi:ry="3.3079426"
         sodipodi:rx="3.3079426"
         sodipodi:cy="441.05435"
         sodipodi:cx="204.43086"
         id="path4199-8"
         style="fill:#ff0a0a;fill-opacity:1;stroke:none"
         sodipodi:type="arc" />
      <path
         transform="translate(-6.6158838,-19.847653)"
         d="m 207.73881,441.05435 c 0,1.82693 -1.48102,3.30794 -3.30795,3.30794 -1.82692,0 -3.30794,-1.48101 -3.30794,-3.30794 0,-1.82692 1.48102,-3.30794 3.30794,-3.30794 1.82693,0 3.30795,1.48102 3.30795,3.30794 z"
         sodipodi:ry="3.3079426"
         sodipodi:rx="3.3079426"
         sodipodi:cy="441.05435"
         sodipodi:cx="204.43086"
         id="path4199-47"
         style="fill:#ff0a0a;fill-opacity:1;stroke:none"
         sodipodi:type="arc" />
      <path
         transform="translate(11.247007,-19.847653)"
         d="m 207.73881,441.05435 c 0,1.82693 -1.48102,3.30794 -3.30795,3.30794 -1.82692,0 -3.30794,-1.48101 -3.30794,-3.30794 0,-1.82692 1.48102,-3.30794 3.30794,-3.30794 1.82693,0 3.30795,1.48102 3.30795,3.30794 z"
         sodipodi:ry="3.3079426"
         sodipodi:rx="3.3079426"
         sodipodi:cy="441.05435"
         sodipodi:cx="204.43086"
         id="path4199-0"
         style="fill:#ff0a0a;fill-opacity:1;stroke:none"
         sodipodi:type="arc" />
      <path
         transform="translate(27.125133,-19.847653)"
         d="m 207.73881,441.05435 c 0,1.82693 -1.48102,3.30794 -3.30795,3.30794 -1.82692,0 -3.30794,-1.48101 -3.30794,-3.30794 0,-1.82692 1.48102,-3.30794 3.30794,-3.30794 1.82693,0 3.30795,1.48102 3.30795,3.30794 z"
         sodipodi:ry="3.3079426"
         sodipodi:rx="3.3079426"
         sodipodi:cy="441.05435"
         sodipodi:cx="204.43086"
         id="path4199-1"
         style="fill:#ff0a0a;fill-opacity:1;stroke:none"
         sodipodi:type="arc" />
      <path
         transform="translate(48.957555,-19.847653)"
         d="m 207.73881,441.05435 c 0,1.82693 -1.48102,3.30794 -3.30795,3.30794 -1.82692,0 -3.30794,-1.48101 -3.30794,-3.30794 0,-1.82692 1.48102,-3.30794 3.30794,-3.30794 1.82693,0 3.30795,1.48102 3.30795,3.30794 z"
         sodipodi:ry="3.3079426"
         sodipodi:rx="3.3079426"
         sodipodi:cy="441.05435"
         sodipodi:cx="204.43086"
         id="path4199-9"
         style="fill:#ff0a0a;fill-opacity:1;stroke:none"
         sodipodi:type="arc" />
      <path
         transform="translate(64.83568,-19.847653)"
         d="m 207.73881,441.05435 c 0,1.82693 -1.48102,3.30794 -3.30795,3.30794 -1.82692,0 -3.30794,-1.48101 -3.30794,-3.30794 0,-1.82692 1.48102,-3.30794 3.30794,-3.30794 1.82693,0 3.30795,1.48102 3.30795,3.30794 z"
         sodipodi:ry="3.3079426"
         sodipodi:rx="3.3079426"
         sodipodi:cy="441.05435"
         sodipodi:cx="204.43086"
         id="path4199-6"
         style="fill:#ff0a0a;fill-opacity:1;stroke:none"
         sodipodi:type="arc" />
      <path
         transform="translate(78.067451,-19.847653)"
         d="m 207.73881,441.05435 c 0,1.82693 -1.48102,3.30794 -3.30795,3.30794 -1.82692,0 -3.30794,-1.48101 -3.30794,-3.30794 0,-1.82692 1.48102,-3.30794 3.30794,-3.30794 1.82693,0 3.30795,1.48102 3.30795,3.30794 z"
         sodipodi:ry="3.3079426"
         sodipodi:rx="3.3079426"
         sodipodi:cy="441.05435"
         sodipodi:cx="204.43086"
         id="path4199-93"
         style="fill:#ff0a0a;fill-opacity:1;stroke:none"
         sodipodi:type="arc" />
      <path
         transform="translate(95.930343,-19.847653)"
         d="m 207.73881,441.05435 c 0,1.82693 -1.48102,3.30794 -3.30795,3.30794 -1.82692,0 -3.30794,-1.48101 -3.30794,-3.30794 0,-1.82692 1.48102,-3.30794 3.30794,-3.30794 1.82693,0 3.30795,1.48102 3.30795,3.30794 z"
         sodipodi:ry="3.3079426"
         sodipodi:rx="3.3079426"
         sodipodi:cy="441.05435"
         sodipodi:cx="204.43086"
         id="path4199-5"
         style="fill:#ff0a0a;fill-opacity:1;stroke:none"
         sodipodi:type="arc" />
      <path
         transform="translate(111.14688,-19.847653)"
         d="m 207.73881,441.05435 c 0,1.82693 -1.48102,3.30794 -3.30795,3.30794 -1.82692,0 -3.30794,-1.48101 -3.30794,-3.30794 0,-1.82692 1.48102,-3.30794 3.30794,-3.30794 1.82693,0 3.30795,1.48102 3.30795,3.30794 z"
         sodipodi:ry="3.3079426"
         sodipodi:rx="3.3079426"
         sodipodi:cy="441.05435"
         sodipodi:cx="204.43086"
         id="path4199-03"
         style="fill:#ff0a0a;fill-opacity:1;stroke:none"
         sodipodi:type="arc" />
      <path
         transform="translate(120.40912,-19.847653)"
         d="m 207.73881,441.05435 c 0,1.82693 -1.48102,3.30794 -3.30795,3.30794 -1.82692,0 -3.30794,-1.48101 -3.30794,-3.30794 0,-1.82692 1.48102,-3.30794 3.30794,-3.30794 1.82693,0 3.30795,1.48102 3.30795,3.30794 z"
         sodipodi:ry="3.3079426"
         sodipodi:rx="3.3079426"
         sodipodi:cy="441.05435"
         sodipodi:cx="204.43086"
         id="path4199-2"
         style="fill:#ff0a0a;fill-opacity:1;stroke:none"
         sodipodi:type="arc" />
      <path
         transform="translate(133.64089,-19.847653)"
         d="m 207.73881,441.05435 c 0,1.82693 -1.48102,3.30794 -3.30795,3.30794 -1.82692,0 -3.30794,-1.48101 -3.30794,-3.30794 0,-1.82692 1.48102,-3.30794 3.30794,-3.30794 1.82693,0 3.30795,1.48102 3.30795,3.30794 z"
         sodipodi:ry="3.3079426"
         sodipodi:rx="3.3079426"
         sodipodi:cy="441.05435"
         sodipodi:cx="204.43086"
         id="path4199-85"
         style="fill:#ff0a0a;fill-opacity:1;stroke:none"
         sodipodi:type="arc" />
      <path
         transform="translate(139.59519,-19.847653)"
         d="m 207.73881,441.05435 c 0,1.82693 -1.48102,3.30794 -3.30795,3.30794 -1.82692,0 -3.30794,-1.48101 -3.30794,-3.30794 0,-1.82692 1.48102,-3.30794 3.30794,-3.30794 1.82693,0 3.30795,1.48102 3.30795,3.30794 z"
         sodipodi:ry="3.3079426"
         sodipodi:rx="3.3079426"
         sodipodi:cy="441.05435"
         sodipodi:cx="204.43086"
         id="path4199-89"
         style="fill:#ff0a0a;fill-opacity:1;stroke:none"
         sodipodi:type="arc" />
      <path
         transform="translate(148.85743,-19.847653)"
         d="m 207.73881,441.05435 c 0,1.82693 -1.48102,3.30794 -3.30795,3.30794 -1.82692,0 -3.30794,-1.48101 -3.30794,-3.30794 0,-1.82692 1.48102,-3.30794 3.30794,-3.30794 1.82693,0 3.30795,1.48102 3.30795,3.30794 z"
         sodipodi:ry="3.3079426"
         sodipodi:rx="3.3079426"
         sodipodi:cy="441.05435"
         sodipodi:cx="204.43086"
         id="path4199-28"
         style="fill:#ff0a0a;fill-opacity:1;stroke:none"
         sodipodi:type="arc" />
      <path
         transform="translate(177.96732,-19.847653)"
         d="m 207.73881,441.05435 c 0,1.82693 -1.48102,3.30794 -3.30795,3.30794 -1.82692,0 -3.30794,-1.48101 -3.30794,-3.30794 0,-1.82692 1.48102,-3.30794 3.30794,-3.30794 1.82693,0 3.30795,1.48102 3.30795,3.30794 z"
         sodipodi:ry="3.3079426"
         sodipodi:rx="3.3079426"
         sodipodi:cy="441.05435"
         sodipodi:cx="204.43086"
         id="path4199-65"
         style="fill:#ff0a0a;fill-opacity:1;stroke:none"
         sodipodi:type="arc" />
      <path
         transform="translate(200.46133,-19.847653)"
         d="m 207.73881,441.05435 c 0,1.82693 -1.48102,3.30794 -3.30795,3.30794 -1.82692,0 -3.30794,-1.48101 -3.30794,-3.30794 0,-1.82692 1.48102,-3.30794 3.30794,-3.30794 1.82693,0 3.30795,1.48102 3.30795,3.30794 z"
         sodipodi:ry="3.3079426"
         sodipodi:rx="3.3079426"
         sodipodi:cy="441.05435"
         sodipodi:cx="204.43086"
         id="path4199-7"
         style="fill:#ff0a0a;fill-opacity:1;stroke:none"
         sodipodi:type="arc" />
      <path
         transform="translate(210.38516,-19.847653)"
         d="m 207.73881,441.05435 c 0,1.82693 -1.48102,3.30794 -3.30795,3.30794 -1.82692,0 -3.30794,-1.48101 -3.30794,-3.30794 0,-1.82692 1.48102,-3.30794 3.30794,-3.30794 1.82693,0 3.30795,1.48102 3.30795,3.30794 z"
         sodipodi:ry="3.3079426"
         sodipodi:rx="3.3079426"
         sodipodi:cy="441.05435"
         sodipodi:cx="204.43086"
         id="path4199-10"
         style="fill:#ff0a0a;fill-opacity:1;stroke:none"
         sodipodi:type="arc" />
      <path
         transform="translate(220.30899,-19.847653)"
         d="m 207.73881,441.05435 c 0,1.82693 -1.48102,3.30794 -3.30795,3.30794 -1.82692,0 -3.30794,-1.48101 -3.30794,-3.30794 0,-1.82692 1.48102,-3.30794 3.30794,-3.30794 1.82693,0 3.30795,1.48102 3.30795,3.30794 z"
         sodipodi:ry="3.3079426"
         sodipodi:rx="3.3079426"
         sodipodi:cy="441.05435"
         sodipodi:cx="204.43086"
         id="path4199-09"
         style="fill:#ff0a0a;fill-opacity:1;stroke:none"
         sodipodi:type="arc" />
      <path
         transform="translate(230.89441,-19.847653)"
         d="m 207.73881,441.05435 c 0,1.82693 -1.48102,3.30794 -3.30795,3.30794 -1.82692,0 -3.30794,-1.48101 -3.30794,-3.30794 0,-1.82692 1.48102,-3.30794 3.30794,-3.30794 1.82693,0 3.30795,1.48102 3.30795,3.30794 z"
         sodipodi:ry="3.3079426"
         sodipodi:rx="3.3079426"
         sodipodi:cy="441.05435"
         sodipodi:cx="204.43086"
         id="path4199-11"
         style="fill:#ff0a0a;fill-opacity:1;stroke:none"
         sodipodi:type="arc" />
      <path
         transform="translate(252.06524,-19.847653)"
         d="m 207.73881,441.05435 c 0,1.82693 -1.48102,3.30794 -3.30795,3.30794 -1.82692,0 -3.30794,-1.48101 -3.30794,-3.30794 0,-1.82692 1.48102,-3.30794 3.30794,-3.30794 1.82693,0 3.30795,1.48102 3.30795,3.30794 z"
         sodipodi:ry="3.3079426"
         sodipodi:rx="3.3079426"
         sodipodi:cy="441.05435"
         sodipodi:cx="204.43086"
         id="path4199-66"
         style="fill:#ff0a0a;fill-opacity:1;stroke:none"
         sodipodi:type="arc" />
      <path
         transform="translate(273.89766,-19.847653)"
         d="m 207.73881,441.05435 c 0,1.82693 -1.48102,3.30794 -3.30795,3.30794 -1.82692,0 -3.30794,-1.48101 -3.30794,-3.30794 0,-1.82692 1.48102,-3.30794 3.30794,-3.30794 1.82693,0 3.30795,1.48102 3.30795,3.30794 z"
         sodipodi:ry="3.3079426"
         sodipodi:rx="3.3079426"
         sodipodi:cy="441.05435"
         sodipodi:cx="204.43086"
         id="path4199-62"
         style="fill:#ff0a0a;fill-opacity:1;stroke:none"
         sodipodi:type="arc" />
      <path
         transform="translate(279.85196,-19.847653)"
         d="m 207.73881,441.05435 c 0,1.82693 -1.48102,3.30794 -3.30795,3.30794 -1.82692,0 -3.30794,-1.48101 -3.30794,-3.30794 0,-1.82692 1.48102,-3.30794 3.30794,-3.30794 1.82693,0 3.30795,1.48102 3.30795,3.30794 z"
         sodipodi:ry="3.3079426"
         sodipodi:rx="3.3079426"
         sodipodi:cy="441.05435"
         sodipodi:cx="204.43086"
         id="path4199-80"
         style="fill:#ff0a0a;fill-opacity:1;stroke:none"
         sodipodi:type="arc" />
      <path
         transform="translate(289.77579,-19.847653)"
         d="m 207.73881,441.05435 c 0,1.82693 -1.48102,3.30794 -3.30795,3.30794 -1.82692,0 -3.30794,-1.48101 -3.30794,-3.30794 0,-1.82692 1.48102,-3.30794 3.30794,-3.30794 1.82693,0 3.30795,1.48102 3.30795,3.30794 z"
         sodipodi:ry="3.3079426"
         sodipodi:rx="3.3079426"
         sodipodi:cy="441.05435"
         sodipodi:cx="204.43086"
         id="path4199-69"
         style="fill:#ff0a0a;fill-opacity:1;stroke:none"
         sodipodi:type="arc" />
      <path
         transform="translate(306.97709,-19.847653)"
         d="m 207.73881,441.05435 c 0,1.82693 -1.48102,3.30794 -3.30795,3.30794 -1.82692,0 -3.30794,-1.48101 -3.30794,-3.30794 0,-1.82692 1.48102,-3.30794 3.30794,-3.30794 1.82693,0 3.30795,1.48102 3.30795,3.30794 z"
         sodipodi:ry="3.3079426"
         sodipodi:rx="3.3079426"
         sodipodi:cy="441.05435"
         sodipodi:cx="204.43086"
         id="path4199-50"
         style="fill:#ff0a0a;fill-opacity:1;stroke:none"
         sodipodi:type="arc" />
      <path
         transform="translate(321.53204,-19.847653)"
         d="m 207.73881,441.05435 c 0,1.82693 -1.48102,3.30794 -3.30795,3.30794 -1.82692,0 -3.30794,-1.48101 -3.30794,-3.30794 0,-1.82692 1.48102,-3.30794 3.30794,-3.30794 1.82693,0 3.30795,1.48102 3.30795,3.30794 z"
         sodipodi:ry="3.3079426"
         sodipodi:rx="3.3079426"
         sodipodi:cy="441.05435"
         sodipodi:cx="204.43086"
         id="path4199-51"
         style="fill:#ff0a0a;fill-opacity:1;stroke:none"
         sodipodi:type="arc" />
      <path
         transform="translate(344.68764,-19.847653)"
         d="m 207.73881,441.05435 c 0,1.82693 -1.48102,3.30794 -3.30795,3.30794 -1.82692,0 -3.30794,-1.48101 -3.30794,-3.30794 0,-1.82692 1.48102,-3.30794 3.30794,-3.30794 1.82693,0 3.30795,1.48102 3.30795,3.30794 z"
         sodipodi:ry="3.3079426"
         sodipodi:rx="3.3079426"
         sodipodi:cy="441.05435"
         sodipodi:cx="204.43086"
         id="path4199-02"
         style="fill:#ff0a0a;fill-opacity:1;stroke:none"
         sodipodi:type="arc" />
      <path
         transform="translate(379.75183,-19.847653)"
         d="m 207.73881,441.05435 c 0,1.82693 -1.48102,3.30794 -3.30795,3.30794 -1.82692,0 -3.30794,-1.48101 -3.30794,-3.30794 0,-1.82692 1.48102,-3.30794 3.30794,-3.30794 1.82693,0 3.30795,1.48102 3.30795,3.30794 z"
         sodipodi:ry="3.3079426"
         sodipodi:rx="3.3079426"
         sodipodi:cy="441.05435"
         sodipodi:cx="204.43086"
         id="path4199-76"
         style="fill:#ff0a0a;fill-opacity:1;stroke:none"
         sodipodi:type="arc" />
      <path
         transform="translate(398.27631,-19.847653)"
         d="m 207.73881,441.05435 c 0,1.82693 -1.48102,3.30794 -3.30795,3.30794 -1.82692,0 -3.30794,-1.48101 -3.30794,-3.30794 0,-1.82692 1.48102,-3.30794 3.30794,-3.30794 1.82693,0 3.30795,1.48102 3.30795,3.30794 z"
         sodipodi:ry="3.3079426"
         sodipodi:rx="3.3079426"
         sodipodi:cy="441.05435"
         sodipodi:cx="204.43086"
         id="path4199-18"
         style="fill:#ff0a0a;fill-opacity:1;stroke:none"
         sodipodi:type="arc" />
    </g>
    <path
       style="fill:none;stroke:#a3a3a3;stroke-width:1px;stroke-linecap:butt;stroke-linejoin:miter;stroke-opacity:1;marker-end:url(#Arrow2Lend)"
       d="m 100.21465,423.69587 562.69953,0"
       id="path2985-7"
       inkscape:connector-curvature="0" />
    <path
       style="fill:none;stroke:#a3a3a3;stroke-width:1px;stroke-linecap:butt;stroke-linejoin:miter;stroke-opacity:1;marker-end:url(#Arrow2Lend)"
       d="m 100.21465,393.43759 562.69953,0"
       id="path2985-73"
       inkscape:connector-curvature="0" />
    <path
       sodipodi:type="arc"
       style="fill:#4c8cff;fill-opacity:1;stroke:none"
       id="path4199-24"
       sodipodi:cx="204.43086"
       sodipodi:cy="441.05435"
       sodipodi:rx="3.3079426"
       sodipodi:ry="3.3079426"
       d="m 207.73881,441.05435 a 3.3079426,3.3079426 0 1 1 -6.61589,0 3.3079426,3.3079426 0 1 1 6.61589,0 z"
       transform="translate(-52.927082,-47.634377)" />
    <path
       sodipodi:type="arc"
       style="fill:#4c8cff;fill-opacity:1;stroke:none"
       id="path4199-24-4"
       sodipodi:cx="204.43086"
       sodipodi:cy="441.05435"
       sodipodi:rx="3.3079426"
       sodipodi:ry="3.3079426"
       d="m 207.73881,441.05435 a 3.3079426,3.3079426 0 1 1 -6.61589,0 3.3079426,3.3079426 0 1 1 6.61589,0 z"
       transform="translate(3.155601,-47.634377)" />
    <path
       sodipodi:type="arc"
       style="fill:#4c8cff;fill-opacity:1;stroke:none"
       id="path4199-24-0"
       sodipodi:cx="204.43086"
       sodipodi:cy="441.05435"
       sodipodi:rx="3.3079426"
       sodipodi:ry="3.3079426"
       d="m 207.73881,441.05435 a 3.3079426,3.3079426 0 1 1 -6.61589,0 3.3079426,3.3079426 0 1 1 6.61589,0 z"
       transform="translate(100.37865,-47.634377)" />
    <path
       sodipodi:type="arc"
       style="fill:#4c8cff;fill-opacity:1;stroke:none"
       id="path4199-24-44"
       sodipodi:cx="204.43086"
       sodipodi:cy="441.05435"
       sodipodi:rx="3.3079426"
       sodipodi:ry="3.3079426"
       d="m 207.73881,441.05435 a 3.3079426,3.3079426 0 1 1 -6.61589,0 3.3079426,3.3079426 0 1 1 6.61589,0 z"
       transform="translate(164.91836,-47.634377)" />
    <path
       sodipodi:type="arc"
       style="fill:#4c8cff;fill-opacity:1;stroke:none"
       id="path4199-24-3"
       sodipodi:cx="204.43086"
       sodipodi:cy="441.05435"
       sodipodi:rx="3.3079426"
       sodipodi:ry="3.3079426"
       d="m 207.73881,441.05435 a 3.3079426,3.3079426 0 1 1 -6.61589,0 3.3079426,3.3079426 0 1 1 6.61589,0 z"
       transform="translate(191.86068,-47.634377)" />
    <path
       sodipodi:type="arc"
       style="fill:#4c8cff;fill-opacity:1;stroke:none"
       id="path4199-24-2"
       sodipodi:cx="204.43086"
       sodipodi:cy="441.05435"
       sodipodi:rx="3.3079426"
       sodipodi:ry="3.3079426"
       d="m 207.73881,441.05435 a 3.3079426,3.3079426 0 1 1 -6.61589,0 3.3079426,3.3079426 0 1 1 6.61589,0 z"
       transform="translate(260.84871,-47.634377)" />
    <path
       sodipodi:type="arc"
       style="fill:#4c8cff;fill-opacity:1;stroke:none"
       id="path4199-24-443"
       sodipodi:cx="204.43086"
       sodipodi:cy="441.05435"
       sodipodi:rx="3.3079426"
       sodipodi:ry="3.3079426"
       d="m 207.73881,441.05435 a 3.3079426,3.3079426 0 1 1 -6.61589,0 3.3079426,3.3079426 0 1 1 6.61589,0 z"
       transform="translate(302.85522,-47.634377)" />
    <path
       sodipodi:type="arc"
       style="fill:#4c8cff;fill-opacity:1;stroke:none"
       id="path4199-24-6"
       sodipodi:cx="204.43086"
       sodipodi:cy="441.05435"
       sodipodi:rx="3.3079426"
       sodipodi:ry="3.3079426"
       d="m 207.73881,441.05435 a 3.3079426,3.3079426 0 1 1 -6.61589,0 3.3079426,3.3079426 0 1 1 6.61589,0 z"
       transform="translate(394.30678,-47.634377)" />
    <path
       style="fill:none;stroke:#298900;stroke-width:1;stroke-linecap:butt;stroke-linejoin:miter;stroke-miterlimit:4;stroke-opacity:1;stroke-dasharray:6, 6;stroke-dashoffset:0"
       d="m 134.30248,371.50015 0,74.09792"
       id="path4656"
       inkscape:connector-curvature="0" />
    <path
       style="fill:none;stroke:#298900;stroke-width:1;stroke-linecap:butt;stroke-linejoin:miter;stroke-miterlimit:4;stroke-opacity:1;stroke-dasharray:6, 6;stroke-dashoffset:0"
       d="m 233.54075,371.50015 0,74.09792"
       id="path4656-3"
       inkscape:connector-curvature="0" />
    <path
       style="fill:none;stroke:#298900;stroke-width:1;stroke-linecap:butt;stroke-linejoin:miter;stroke-miterlimit:4;stroke-opacity:1;stroke-dasharray:6, 6;stroke-dashoffset:0"
       d="m 332.77905,371.50015 0,74.09792"
       id="path4656-4"
       inkscape:connector-curvature="0" />
    <path
       style="fill:none;stroke:#298900;stroke-width:1;stroke-linecap:butt;stroke-linejoin:miter;stroke-miterlimit:4;stroke-opacity:1;stroke-dasharray:6, 6;stroke-dashoffset:0"
       d="m 432.01734,371.50015 0,74.09792"
       id="path4656-45"
       inkscape:connector-curvature="0" />
    <path
       style="fill:none;stroke:#298900;stroke-width:1;stroke-linecap:butt;stroke-linejoin:miter;stroke-miterlimit:4;stroke-opacity:1;stroke-dasharray:6, 6;stroke-dashoffset:0"
       d="m 531.2556,371.50015 0,74.09792"
       id="path4656-6"
       inkscape:connector-curvature="0" />
    <path
       style="fill:none;stroke:#298900;stroke-width:1;stroke-linecap:butt;stroke-linejoin:miter;stroke-miterlimit:4;stroke-opacity:1;stroke-dasharray:6, 6;stroke-dashoffset:0"
       d="m 630.49389,371.50015 0,74.09792"
       id="path4656-1"
       inkscape:connector-curvature="0" />
    <text
       xml:space="preserve"
       style="font-size:10px;font-style:normal;font-variant:normal;font-weight:normal;font-stretch:normal;line-height:125%;letter-spacing:0px;word-spacing:0px;fill:#000000;fill-opacity:1;stroke:none;font-family:Norasi;-inkscape-font-specification:Norasi"
       x="102.37943"
       y="387.96997"
       id="text4753"
       sodipodi:linespacing="125%"><tspan
         sodipodi:role="line"
         id="tspan4755"
         x="102.37943"
         y="387.96997">$q_b$</tspan></text>
    <text
       xml:space="preserve"
       style="font-size:10px;font-style:normal;font-variant:normal;font-weight:normal;font-stretch:normal;line-height:125%;letter-spacing:0px;word-spacing:0px;fill:#000000;fill-opacity:1;stroke:none;font-family:Norasi;-inkscape-font-specification:Norasi"
       x="102.65286"
       y="418.22824"
       id="text4757"
       sodipodi:linespacing="125%"><tspan
         sodipodi:role="line"
         id="tspan4759"
         x="102.65286"
         y="418.22824">$q_a$</tspan></text>
    <text
       xml:space="preserve"
       style="font-size:10px;font-style:normal;font-variant:normal;font-weight:normal;font-stretch:normal;line-height:125%;letter-spacing:0px;word-spacing:0px;fill:#000000;fill-opacity:1;stroke:none;font-family:Norasi;-inkscape-font-specification:Norasi"
       x="164.29166"
       y="369.39014"
       id="text4761"
       sodipodi:linespacing="125%"><tspan
         sodipodi:role="line"
         id="tspan4763"
         x="164.29166"
         y="369.39014"
         style="font-size:6px">$\mathcal{B}_{\mathcal{C},0}$</tspan></text>
    <text
       xml:space="preserve"
       style="font-size:10px;font-style:normal;font-variant:normal;font-weight:normal;font-stretch:normal;line-height:125%;letter-spacing:0px;word-spacing:0px;fill:#000000;fill-opacity:1;stroke:none;font-family:Norasi;-inkscape-font-specification:Norasi"
       x="263.52994"
       y="369.39014"
       id="text4761-7"
       sodipodi:linespacing="125%"><tspan
         sodipodi:role="line"
         id="tspan4763-4"
         x="263.52994"
         y="369.39014"
         style="font-size:6px">$\mathcal{B}_{\mathcal{C},1}$</tspan></text>
    <text
       xml:space="preserve"
       style="font-size:10px;font-style:normal;font-variant:normal;font-weight:normal;font-stretch:normal;line-height:125%;letter-spacing:0px;word-spacing:0px;fill:#000000;fill-opacity:1;stroke:none;font-family:Norasi;-inkscape-font-specification:Norasi"
       x="362.76825"
       y="369.39014"
       id="text4761-1"
       sodipodi:linespacing="125%"><tspan
         sodipodi:role="line"
         id="tspan4763-2"
         x="362.76825"
         y="369.39014"
         style="font-size:6px">$\mathcal{B}_{\mathcal{C},2}$</tspan></text>
    <text
       xml:space="preserve"
       style="font-size:10px;font-style:normal;font-variant:normal;font-weight:normal;font-stretch:normal;line-height:125%;letter-spacing:0px;word-spacing:0px;fill:#000000;fill-opacity:1;stroke:none;font-family:Norasi;-inkscape-font-specification:Norasi"
       x="462.00653"
       y="369.39014"
       id="text4761-2"
       sodipodi:linespacing="125%"><tspan
         sodipodi:role="line"
         id="tspan4763-45"
         x="462.00653"
         y="369.39014"
         style="font-size:6px">$\mathcal{B}_{\mathcal{C},3}$</tspan></text>
    <text
       xml:space="preserve"
       style="font-size:10px;font-style:normal;font-variant:normal;font-weight:normal;font-stretch:normal;line-height:125%;letter-spacing:0px;word-spacing:0px;fill:#000000;fill-opacity:1;stroke:none;font-family:Norasi;-inkscape-font-specification:Norasi"
       x="561.24475"
       y="369.39014"
       id="text4761-0"
       sodipodi:linespacing="125%"><tspan
         sodipodi:role="line"
         id="tspan4763-6"
         x="561.24475"
         y="369.39014"
         style="font-size:6px">$\mathcal{B}_{\mathcal{C},4}$</tspan></text>
    <path
       sodipodi:type="arc"
       style="fill:#ff0a0a;fill-opacity:0.13242008000000000;fill-rule:nonzero;stroke:#ff0a0a;stroke-opacity:1;filter:url(#filter6159)"
       id="path4851"
       sodipodi:cx="196.4263"
       sodipodi:cy="426.582"
       sodipodi:rx="55.989231"
       sodipodi:ry="13.919974"
       d="m 252.41553,426.582 a 55.989231,13.919974 0 1 1 -111.97846,0 55.989231,13.919974 0 1 1 111.97846,0 z"
       transform="matrix(1.0055249,0,0,0.73026028,-13.589921,112.16236)" />
    <path
       sodipodi:type="arc"
       style="fill:#ff0a0a;fill-opacity:0.13242008000000000;fill-rule:nonzero;stroke:#ff0a0a;stroke-opacity:1;filter:url(#filter6163)"
       id="path4851-4"
       sodipodi:cx="196.4263"
       sodipodi:cy="426.582"
       sodipodi:rx="55.989231"
       sodipodi:ry="13.919974"
       d="m 252.41553,426.582 a 55.989231,13.919974 0 1 1 -111.97846,0 55.989231,13.919974 0 1 1 111.97846,0 z"
       transform="matrix(1.0055249,0,0,0.73026028,85.648364,112.16236)" />
    <path
       sodipodi:type="arc"
       style="fill:#ff0a0a;fill-opacity:0.13242008000000000;fill-rule:nonzero;stroke:#ff0a0a;stroke-opacity:1;filter:url(#filter6167)"
       id="path4851-8"
       sodipodi:cx="196.4263"
       sodipodi:cy="426.582"
       sodipodi:rx="55.989231"
       sodipodi:ry="13.919974"
       d="m 252.41553,426.582 a 55.989231,13.919974 0 1 1 -111.97846,0 55.989231,13.919974 0 1 1 111.97846,0 z"
       transform="matrix(1.0055249,0,0,0.73026028,184.88666,112.16236)" />
    <path
       sodipodi:type="arc"
       style="fill:#ff0a0a;fill-opacity:0.13242008000000000;fill-rule:nonzero;stroke:#ff0a0a;stroke-opacity:1;filter:url(#filter6171)"
       id="path4851-89"
       sodipodi:cx="196.4263"
       sodipodi:cy="426.582"
       sodipodi:rx="55.989231"
       sodipodi:ry="13.919974"
       d="m 252.41553,426.582 a 55.989231,13.919974 0 1 1 -111.97846,0 55.989231,13.919974 0 1 1 111.97846,0 z"
       transform="matrix(1.0055249,0,0,0.73026028,284.12493,112.16236)" />
    <text
       xml:space="preserve"
       style="font-size:10px;font-style:normal;font-variant:normal;font-weight:normal;font-stretch:normal;line-height:125%;letter-spacing:0px;word-spacing:0px;fill:#000000;fill-opacity:1;stroke:none;font-family:Norasi;-inkscape-font-specification:Norasi"
       x="652.28363"
       y="438.10922"
       id="text5775"
       sodipodi:linespacing="125%"><tspan
         sodipodi:role="line"
         id="tspan5777"
         x="652.28363"
         y="438.10922">$t$</tspan></text>
    <path
       style="fill:none;stroke:#000000;stroke-width:0.5;stroke-linecap:butt;stroke-linejoin:miter;stroke-miterlimit:4;stroke-opacity:1;stroke-dasharray:none;marker-end:url(#Arrow2Lend-0)"
       d="m 212.61245,414.93026 41.85661,-12.7623"
       id="path5849"
       inkscape:connector-type="polyline"
       inkscape:connector-curvature="0"
       inkscape:connection-start="#path4851"
       inkscape:connection-start-point="d4"
       inkscape:connection-end-point="d4"
       inkscape:connection-end="#path4851-4-0" />
    <path
       style="fill:none;stroke:#000000;stroke-width:0.5;stroke-linecap:butt;stroke-linejoin:miter;stroke-miterlimit:4;stroke-opacity:1;stroke-dasharray:none;marker-end:url(#Arrow2Lend-0)"
       d="m 311.85074,414.93026 41.85662,-12.7623"
       id="path5851"
       inkscape:connector-type="polyline"
       inkscape:connector-curvature="0"
       inkscape:connection-start-point="d4"
       inkscape:connection-start="#path4851-4"
       inkscape:connection-end-point="d4"
       inkscape:connection-end="#path4851-4-0-6" />
    <path
       style="fill:none;stroke:#000000;stroke-width:0.5;stroke-linecap:butt;stroke-linejoin:miter;stroke-miterlimit:4;stroke-opacity:1;stroke-dasharray:none;marker-end:url(#Arrow2Lend-0)"
       d="m 411.08903,414.93026 41.8566,-12.7623"
       id="path5853"
       inkscape:connector-type="polyline"
       inkscape:connector-curvature="0"
       inkscape:connection-start-point="d4"
       inkscape:connection-start="#path4851-8"
       inkscape:connection-end-point="d4"
       inkscape:connection-end="#path4851-4-0-3" />
    <path
       style="fill:none;stroke:#000000;stroke-width:0.5;stroke-linecap:butt;stroke-linejoin:miter;stroke-miterlimit:4;stroke-opacity:1;stroke-dasharray:none;marker-end:url(#Arrow2Lend-0)"
       d="m 510.3273,414.93026 41.85661,-12.7623"
       id="path5855"
       inkscape:connector-type="polyline"
       inkscape:connector-curvature="0"
       inkscape:connection-start-point="d4"
       inkscape:connection-start="#path4851-89"
       inkscape:connection-end-point="d4"
       inkscape:connection-end="#path4851-4-0-63" />
    <path
       sodipodi:type="arc"
       style="fill:#4c8cff;fill-opacity:1;stroke:none"
       id="path4199-24-25"
       sodipodi:cx="204.43086"
       sodipodi:cy="441.05435"
       sodipodi:rx="3.3079426"
       sodipodi:ry="3.3079426"
       d="m 207.73881,441.05435 a 3.3079426,3.3079426 0 1 1 -6.61589,0 3.3079426,3.3079426 0 1 1 6.61589,0 z"
       transform="translate(-32.417838,-47.634377)" />
    <path
       sodipodi:type="arc"
       style="fill:#4c8cff;fill-opacity:1;stroke:none"
       id="path4199-24-8"
       sodipodi:cx="204.43086"
       sodipodi:cy="441.05435"
       sodipodi:rx="3.3079426"
       sodipodi:ry="3.3079426"
       d="m 207.73881,441.05435 a 3.3079426,3.3079426 0 1 1 -6.61589,0 3.3079426,3.3079426 0 1 1 6.61589,0 z"
       transform="translate(-11.908592,-47.634377)" />
    <path
       sodipodi:type="arc"
       style="fill:#4c8cff;fill-opacity:1;stroke:none"
       id="path4199-24-26"
       sodipodi:cx="204.43086"
       sodipodi:cy="441.05435"
       sodipodi:rx="3.3079426"
       sodipodi:ry="3.3079426"
       d="m 207.73881,441.05435 a 3.3079426,3.3079426 0 1 1 -6.61589,0 3.3079426,3.3079426 0 1 1 6.61589,0 z"
       transform="translate(53.588675,-47.634377)" />
    <path
       sodipodi:type="arc"
       style="fill:#4c8cff;fill-opacity:1;stroke:none"
       id="path4199-24-449"
       sodipodi:cx="204.43086"
       sodipodi:cy="441.05435"
       sodipodi:rx="3.3079426"
       sodipodi:ry="3.3079426"
       d="m 207.73881,441.05435 a 3.3079426,3.3079426 0 1 1 -6.61589,0 3.3079426,3.3079426 0 1 1 6.61589,0 z"
       transform="translate(71.451566,-47.634377)" />
    <path
       sodipodi:type="arc"
       style="fill:#4c8cff;fill-opacity:1;stroke:none"
       id="path4199-24-1"
       sodipodi:cx="204.43086"
       sodipodi:cy="441.05435"
       sodipodi:rx="3.3079426"
       sodipodi:ry="3.3079426"
       d="m 207.73881,441.05435 a 3.3079426,3.3079426 0 1 1 -6.61589,0 3.3079426,3.3079426 0 1 1 6.61589,0 z"
       transform="translate(144.22631,-47.634377)" />
    <path
       sodipodi:type="arc"
       style="fill:#4c8cff;fill-opacity:1;stroke:none"
       id="path4199-24-03"
       sodipodi:cx="204.43086"
       sodipodi:cy="441.05435"
       sodipodi:rx="3.3079426"
       sodipodi:ry="3.3079426"
       d="m 207.73881,441.05435 a 3.3079426,3.3079426 0 1 1 -6.61589,0 3.3079426,3.3079426 0 1 1 6.61589,0 z"
       transform="translate(175.32097,-47.634377)" />
    <path
       sodipodi:type="arc"
       style="fill:#4c8cff;fill-opacity:1;stroke:none"
       id="path4199-24-14"
       sodipodi:cx="204.43086"
       sodipodi:cy="441.05435"
       sodipodi:rx="3.3079426"
       sodipodi:ry="3.3079426"
       d="m 207.73881,441.05435 a 3.3079426,3.3079426 0 1 1 -6.61589,0 3.3079426,3.3079426 0 1 1 6.61589,0 z"
       transform="translate(204.43087,-47.634377)" />
    <path
       sodipodi:type="arc"
       style="fill:#4c8cff;fill-opacity:1;stroke:none"
       id="path4199-24-07"
       sodipodi:cx="204.43086"
       sodipodi:cy="441.05435"
       sodipodi:rx="3.3079426"
       sodipodi:ry="3.3079426"
       d="m 207.73881,441.05435 a 3.3079426,3.3079426 0 1 1 -6.61589,0 3.3079426,3.3079426 0 1 1 6.61589,0 z"
       transform="translate(242.803,-47.634377)" />
    <path
       sodipodi:type="arc"
       style="fill:#4c8cff;fill-opacity:1;stroke:none"
       id="path4199-24-82"
       sodipodi:cx="204.43086"
       sodipodi:cy="441.05435"
       sodipodi:rx="3.3079426"
       sodipodi:ry="3.3079426"
       d="m 207.73881,441.05435 a 3.3079426,3.3079426 0 1 1 -6.61589,0 3.3079426,3.3079426 0 1 1 6.61589,0 z"
       transform="translate(269.92813,-47.634377)" />
    <path
       sodipodi:type="arc"
       style="fill:#4c8cff;fill-opacity:1;stroke:none"
       id="path4199-24-16"
       sodipodi:cx="204.43086"
       sodipodi:cy="441.05435"
       sodipodi:rx="3.3079426"
       sodipodi:ry="3.3079426"
       d="m 207.73881,441.05435 a 3.3079426,3.3079426 0 1 1 -6.61589,0 3.3079426,3.3079426 0 1 1 6.61589,0 z"
       transform="translate(357.25782,-47.634377)" />
    <path
       sodipodi:type="arc"
       style="fill:#4c8cff;fill-opacity:1;stroke:none"
       id="path4199-24-7"
       sodipodi:cx="204.43086"
       sodipodi:cy="441.05435"
       sodipodi:rx="3.3079426"
       sodipodi:ry="3.3079426"
       d="m 207.73881,441.05435 a 3.3079426,3.3079426 0 1 1 -6.61589,0 3.3079426,3.3079426 0 1 1 6.61589,0 z"
       transform="translate(383.72136,-47.634377)" />
    <rect
       style="fill:none;stroke:#000000;stroke-width:0.2;stroke-linecap:round;stroke-linejoin:round;stroke-miterlimit:4;stroke-opacity:1;stroke-dasharray:none;stroke-dashoffset:0;display:inline"
       id="rect6504"
       width="589.09534"
       height="114.07563"
       x="87.850525"
       y="345.59317" />
  </g>
</svg>
