<?xml version="1.0" encoding="UTF-8" standalone="no"?>
<!-- Created with Inkscape (http://www.inkscape.org/) -->

<svg
   xmlns:dc="http://purl.org/dc/elements/1.1/"
   xmlns:cc="http://creativecommons.org/ns#"
   xmlns:rdf="http://www.w3.org/1999/02/22-rdf-syntax-ns#"
   xmlns:svg="http://www.w3.org/2000/svg"
   xmlns="http://www.w3.org/2000/svg"
   xmlns:sodipodi="http://sodipodi.sourceforge.net/DTD/sodipodi-0.dtd"
   xmlns:inkscape="http://www.inkscape.org/namespaces/inkscape"
   width="744.09448819"
   height="1052.3622047"
   id="svg2"
   version="1.1"
   inkscape:version="0.48.3.1 r9886"
   sodipodi:docname="model-root.svg">
  <defs
     id="defs4">
    <marker
       inkscape:stockid="Arrow2Mend"
       orient="auto"
       refY="0.0"
       refX="0.0"
       id="Arrow2Mend"
       style="overflow:visible;">
      <path
         id="path3786"
         style="fill-rule:evenodd;stroke-width:0.62500000;stroke-linejoin:round;"
         d="M 8.7185878,4.0337352 L -2.2072895,0.016013256 L 8.7185884,-4.0017078 C 6.9730900,-1.6296469 6.9831476,1.6157441 8.7185878,4.0337352 z "
         transform="scale(0.6) rotate(180) translate(0,0)" />
    </marker>
    <marker
       inkscape:stockid="Arrow1Send"
       orient="auto"
       refY="0.0"
       refX="0.0"
       id="Arrow1Send"
       style="overflow:visible;">
      <path
         id="path3774"
         d="M 0.0,0.0 L 5.0,-5.0 L -12.5,0.0 L 5.0,5.0 L 0.0,0.0 z "
         style="fill-rule:evenodd;stroke:#000000;stroke-width:1.0pt;"
         transform="scale(0.2) rotate(180) translate(6,0)" />
    </marker>
    <marker
       inkscape:stockid="Arrow2Lend"
       orient="auto"
       refY="0.0"
       refX="0.0"
       id="Arrow2Lend"
       style="overflow:visible;">
      <path
         id="path3780"
         style="fill-rule:evenodd;stroke-width:0.62500000;stroke-linejoin:round;"
         d="M 8.7185878,4.0337352 L -2.2072895,0.016013256 L 8.7185884,-4.0017078 C 6.9730900,-1.6296469 6.9831476,1.6157441 8.7185878,4.0337352 z "
         transform="scale(1.1) rotate(180) translate(1,0)" />
    </marker>
    <marker
       inkscape:stockid="Arrow2Lend"
       orient="auto"
       refY="0"
       refX="0"
       id="Arrow2Lend-3"
       style="overflow:visible">
      <path
         inkscape:connector-curvature="0"
         id="path3780-4"
         style="fill-rule:evenodd;stroke-width:0.625;stroke-linejoin:round"
         d="M 8.7185878,4.0337352 -2.2072895,0.01601326 8.7185884,-4.0017078 c -1.7454984,2.3720609 -1.7354408,5.6174519 -6e-7,8.035443 z"
         transform="matrix(-1.1,0,0,-1.1,-1.1,0)" />
    </marker>
    <marker
       inkscape:stockid="Arrow2Lend"
       orient="auto"
       refY="0"
       refX="0"
       id="Arrow2Lend-0"
       style="overflow:visible">
      <path
         inkscape:connector-curvature="0"
         id="path3780-3"
         style="fill-rule:evenodd;stroke-width:0.625;stroke-linejoin:round"
         d="M 8.7185878,4.0337352 -2.2072895,0.01601326 8.7185884,-4.0017078 c -1.7454984,2.3720609 -1.7354408,5.6174519 -6e-7,8.035443 z"
         transform="matrix(-1.1,0,0,-1.1,-1.1,0)" />
    </marker>
    <filter
       inkscape:collect="always"
       id="filter6139">
      <feGaussianBlur
         inkscape:collect="always"
         stdDeviation="0.38781064"
         id="feGaussianBlur6141" />
    </filter>
    <filter
       inkscape:collect="always"
       id="filter6143">
      <feGaussianBlur
         inkscape:collect="always"
         stdDeviation="0.38781064"
         id="feGaussianBlur6145" />
    </filter>
    <filter
       inkscape:collect="always"
       id="filter6147">
      <feGaussianBlur
         inkscape:collect="always"
         stdDeviation="0.38781064"
         id="feGaussianBlur6149" />
    </filter>
    <filter
       inkscape:collect="always"
       id="filter6155">
      <feGaussianBlur
         inkscape:collect="always"
         stdDeviation="0.38781064"
         id="feGaussianBlur6157" />
    </filter>
    <filter
       color-interpolation-filters="sRGB"
       inkscape:collect="always"
       id="filter6139-7">
      <feGaussianBlur
         inkscape:collect="always"
         stdDeviation="0.38781064"
         id="feGaussianBlur6141-7" />
    </filter>
  </defs>
  <sodipodi:namedview
     id="base"
     pagecolor="#ffffff"
     bordercolor="#666666"
     borderopacity="1.0"
     inkscape:pageopacity="0.0"
     inkscape:pageshadow="2"
     inkscape:zoom="1.5115134"
     inkscape:cx="382.83677"
     inkscape:cy="621.39763"
     inkscape:document-units="px"
     inkscape:current-layer="layer1"
     showgrid="false"
     inkscape:window-width="1535"
     inkscape:window-height="876"
     inkscape:window-x="65"
     inkscape:window-y="24"
     inkscape:window-maximized="1"
     inkscape:connector-spacing="10"
     inkscape:snap-object-midpoints="false"
     inkscape:object-paths="false" />
  <metadata
     id="metadata7">
    <rdf:RDF>
      <cc:Work
         rdf:about="">
        <dc:format>image/svg+xml</dc:format>
        <dc:type
           rdf:resource="http://purl.org/dc/dcmitype/StillImage" />
        <dc:title />
      </cc:Work>
    </rdf:RDF>
  </metadata>
  <g
     inkscape:label="Layer 1"
     inkscape:groupmode="layer"
     id="layer1"
     style="display:inline">
    <path
       sodipodi:type="arc"
       style="fill:#4c8cff;fill-opacity:0.13333333;fill-rule:nonzero;stroke:#4b8eff;stroke-opacity:1;filter:url(#filter6155)"
       id="path4851-4-0-63"
       sodipodi:cx="196.4263"
       sodipodi:cy="426.582"
       sodipodi:rx="55.989231"
       sodipodi:ry="13.919974"
       d="m 252.41553,426.582 a 55.989231,13.919974 0 1 1 -111.97846,0 55.989231,13.919974 0 1 1 111.97846,0 z"
       transform="matrix(1.0055249,0,0,0.73026028,383.36321,81.904084)"
       inkscape:connector-avoid="true" />
    <path
       sodipodi:type="arc"
       style="fill:#ff0a0a;fill-opacity:1;stroke:none"
       id="path4199"
       sodipodi:cx="204.43086"
       sodipodi:cy="441.05435"
       sodipodi:rx="3.3079426"
       sodipodi:ry="3.3079426"
       d="m 207.73881,441.05435 a 3.3079426,3.3079426 0 1 1 -6.61589,0 3.3079426,3.3079426 0 1 1 6.61589,0 z"
       transform="translate(-63.512501,-5.376095)" />
    <path
       sodipodi:type="arc"
       style="fill:#ff0a0a;fill-opacity:1;stroke:none"
       id="path4199-4"
       sodipodi:cx="204.43086"
       sodipodi:cy="441.05435"
       sodipodi:rx="3.3079426"
       sodipodi:ry="3.3079426"
       d="m 207.73881,441.05435 a 3.3079426,3.3079426 0 1 1 -6.61589,0 3.3079426,3.3079426 0 1 1 6.61589,0 z"
       transform="translate(-40.3569,-5.376095)" />
    <path
       sodipodi:type="arc"
       style="fill:#ff0a0a;fill-opacity:1;stroke:none"
       id="path4199-8"
       sodipodi:cx="204.43086"
       sodipodi:cy="441.05435"
       sodipodi:rx="3.3079426"
       sodipodi:ry="3.3079426"
       d="m 207.73881,441.05435 a 3.3079426,3.3079426 0 1 1 -6.61589,0 3.3079426,3.3079426 0 1 1 6.61589,0 z"
       transform="translate(-27.786718,-5.376095)" />
    <path
       sodipodi:type="arc"
       style="fill:#ff0a0a;fill-opacity:1;stroke:none"
       id="path4199-47"
       sodipodi:cx="204.43086"
       sodipodi:cy="441.05435"
       sodipodi:rx="3.3079426"
       sodipodi:ry="3.3079426"
       d="m 207.73881,441.05435 a 3.3079426,3.3079426 0 1 1 -6.61589,0 3.3079426,3.3079426 0 1 1 6.61589,0 z"
       transform="translate(-6.6158838,-5.376095)" />
    <path
       sodipodi:type="arc"
       style="fill:#ff0a0a;fill-opacity:1;stroke:none"
       id="path4199-0"
       sodipodi:cx="204.43086"
       sodipodi:cy="441.05435"
       sodipodi:rx="3.3079426"
       sodipodi:ry="3.3079426"
       d="m 207.73881,441.05435 a 3.3079426,3.3079426 0 1 1 -6.61589,0 3.3079426,3.3079426 0 1 1 6.61589,0 z"
       transform="translate(11.247007,-5.376095)" />
    <path
       sodipodi:type="arc"
       style="fill:#ff0a0a;fill-opacity:1;stroke:none"
       id="path4199-1"
       sodipodi:cx="204.43086"
       sodipodi:cy="441.05435"
       sodipodi:rx="3.3079426"
       sodipodi:ry="3.3079426"
       d="m 207.73881,441.05435 a 3.3079426,3.3079426 0 1 1 -6.61589,0 3.3079426,3.3079426 0 1 1 6.61589,0 z"
       transform="translate(27.125133,-5.376095)" />
    <path
       sodipodi:type="arc"
       style="fill:#ff0a0a;fill-opacity:1;stroke:none"
       id="path4199-9"
       sodipodi:cx="204.43086"
       sodipodi:cy="441.05435"
       sodipodi:rx="3.3079426"
       sodipodi:ry="3.3079426"
       d="m 207.73881,441.05435 a 3.3079426,3.3079426 0 1 1 -6.61589,0 3.3079426,3.3079426 0 1 1 6.61589,0 z"
       transform="translate(48.957555,-5.376095)" />
    <path
       sodipodi:type="arc"
       style="fill:#ff0a0a;fill-opacity:1;stroke:none"
       id="path4199-6"
       sodipodi:cx="204.43086"
       sodipodi:cy="441.05435"
       sodipodi:rx="3.3079426"
       sodipodi:ry="3.3079426"
       d="m 207.73881,441.05435 a 3.3079426,3.3079426 0 1 1 -6.61589,0 3.3079426,3.3079426 0 1 1 6.61589,0 z"
       transform="translate(64.83568,-5.376095)" />
    <path
       sodipodi:type="arc"
       style="fill:#ff0a0a;fill-opacity:1;stroke:none"
       id="path4199-93"
       sodipodi:cx="204.43086"
       sodipodi:cy="441.05435"
       sodipodi:rx="3.3079426"
       sodipodi:ry="3.3079426"
       d="m 207.73881,441.05435 a 3.3079426,3.3079426 0 1 1 -6.61589,0 3.3079426,3.3079426 0 1 1 6.61589,0 z"
       transform="translate(78.067451,-5.376095)" />
    <path
       sodipodi:type="arc"
       style="fill:#ff0a0a;fill-opacity:1;stroke:none"
       id="path4199-5"
       sodipodi:cx="204.43086"
       sodipodi:cy="441.05435"
       sodipodi:rx="3.3079426"
       sodipodi:ry="3.3079426"
       d="m 207.73881,441.05435 a 3.3079426,3.3079426 0 1 1 -6.61589,0 3.3079426,3.3079426 0 1 1 6.61589,0 z"
       transform="translate(95.930343,-5.376095)" />
    <path
       sodipodi:type="arc"
       style="fill:#ff0a0a;fill-opacity:1;stroke:none"
       id="path4199-03"
       sodipodi:cx="204.43086"
       sodipodi:cy="441.05435"
       sodipodi:rx="3.3079426"
       sodipodi:ry="3.3079426"
       d="m 207.73881,441.05435 a 3.3079426,3.3079426 0 1 1 -6.61589,0 3.3079426,3.3079426 0 1 1 6.61589,0 z"
       transform="translate(111.14688,-5.376095)" />
    <path
       sodipodi:type="arc"
       style="fill:#ff0a0a;fill-opacity:1;stroke:none"
       id="path4199-2"
       sodipodi:cx="204.43086"
       sodipodi:cy="441.05435"
       sodipodi:rx="3.3079426"
       sodipodi:ry="3.3079426"
       d="m 207.73881,441.05435 a 3.3079426,3.3079426 0 1 1 -6.61589,0 3.3079426,3.3079426 0 1 1 6.61589,0 z"
       transform="translate(120.40912,-5.376095)" />
    <path
       sodipodi:type="arc"
       style="fill:#ff0a0a;fill-opacity:1;stroke:none"
       id="path4199-85"
       sodipodi:cx="204.43086"
       sodipodi:cy="441.05435"
       sodipodi:rx="3.3079426"
       sodipodi:ry="3.3079426"
       d="m 207.73881,441.05435 a 3.3079426,3.3079426 0 1 1 -6.61589,0 3.3079426,3.3079426 0 1 1 6.61589,0 z"
       transform="translate(133.64089,-5.376095)" />
    <path
       sodipodi:type="arc"
       style="fill:#ff0a0a;fill-opacity:1;stroke:none"
       id="path4199-89"
       sodipodi:cx="204.43086"
       sodipodi:cy="441.05435"
       sodipodi:rx="3.3079426"
       sodipodi:ry="3.3079426"
       d="m 207.73881,441.05435 a 3.3079426,3.3079426 0 1 1 -6.61589,0 3.3079426,3.3079426 0 1 1 6.61589,0 z"
       transform="translate(139.59519,-5.376095)" />
    <path
       sodipodi:type="arc"
       style="fill:#ff0a0a;fill-opacity:1;stroke:none"
       id="path4199-28"
       sodipodi:cx="204.43086"
       sodipodi:cy="441.05435"
       sodipodi:rx="3.3079426"
       sodipodi:ry="3.3079426"
       d="m 207.73881,441.05435 a 3.3079426,3.3079426 0 1 1 -6.61589,0 3.3079426,3.3079426 0 1 1 6.61589,0 z"
       transform="translate(148.85743,-5.376095)" />
    <path
       sodipodi:type="arc"
       style="fill:#ff0a0a;fill-opacity:1;stroke:none"
       id="path4199-65"
       sodipodi:cx="204.43086"
       sodipodi:cy="441.05435"
       sodipodi:rx="3.3079426"
       sodipodi:ry="3.3079426"
       d="m 207.73881,441.05435 a 3.3079426,3.3079426 0 1 1 -6.61589,0 3.3079426,3.3079426 0 1 1 6.61589,0 z"
       transform="translate(177.96732,-5.376095)" />
    <path
       sodipodi:type="arc"
       style="fill:#ff0a0a;fill-opacity:1;stroke:none"
       id="path4199-7"
       sodipodi:cx="204.43086"
       sodipodi:cy="441.05435"
       sodipodi:rx="3.3079426"
       sodipodi:ry="3.3079426"
       d="m 207.73881,441.05435 a 3.3079426,3.3079426 0 1 1 -6.61589,0 3.3079426,3.3079426 0 1 1 6.61589,0 z"
       transform="translate(200.46133,-5.376095)" />
    <path
       sodipodi:type="arc"
       style="fill:#ff0a0a;fill-opacity:1;stroke:none"
       id="path4199-10"
       sodipodi:cx="204.43086"
       sodipodi:cy="441.05435"
       sodipodi:rx="3.3079426"
       sodipodi:ry="3.3079426"
       d="m 207.73881,441.05435 a 3.3079426,3.3079426 0 1 1 -6.61589,0 3.3079426,3.3079426 0 1 1 6.61589,0 z"
       transform="translate(210.38516,-5.376095)" />
    <path
       sodipodi:type="arc"
       style="fill:#ff0a0a;fill-opacity:1;stroke:none"
       id="path4199-09"
       sodipodi:cx="204.43086"
       sodipodi:cy="441.05435"
       sodipodi:rx="3.3079426"
       sodipodi:ry="3.3079426"
       d="m 207.73881,441.05435 a 3.3079426,3.3079426 0 1 1 -6.61589,0 3.3079426,3.3079426 0 1 1 6.61589,0 z"
       transform="translate(220.30899,-5.376095)" />
    <path
       sodipodi:type="arc"
       style="fill:#ff0a0a;fill-opacity:1;stroke:none"
       id="path4199-11"
       sodipodi:cx="204.43086"
       sodipodi:cy="441.05435"
       sodipodi:rx="3.3079426"
       sodipodi:ry="3.3079426"
       d="m 207.73881,441.05435 a 3.3079426,3.3079426 0 1 1 -6.61589,0 3.3079426,3.3079426 0 1 1 6.61589,0 z"
       transform="translate(230.89441,-5.376095)" />
    <path
       sodipodi:type="arc"
       style="fill:#ff0a0a;fill-opacity:1;stroke:none"
       id="path4199-66"
       sodipodi:cx="204.43086"
       sodipodi:cy="441.05435"
       sodipodi:rx="3.3079426"
       sodipodi:ry="3.3079426"
       d="m 207.73881,441.05435 a 3.3079426,3.3079426 0 1 1 -6.61589,0 3.3079426,3.3079426 0 1 1 6.61589,0 z"
       transform="translate(252.06524,-5.376095)" />
    <path
       sodipodi:type="arc"
       style="fill:#ff0a0a;fill-opacity:1;stroke:none"
       id="path4199-62"
       sodipodi:cx="204.43086"
       sodipodi:cy="441.05435"
       sodipodi:rx="3.3079426"
       sodipodi:ry="3.3079426"
       d="m 207.73881,441.05435 a 3.3079426,3.3079426 0 1 1 -6.61589,0 3.3079426,3.3079426 0 1 1 6.61589,0 z"
       transform="translate(273.89766,-5.376095)" />
    <path
       sodipodi:type="arc"
       style="fill:#ff0a0a;fill-opacity:1;stroke:none"
       id="path4199-80"
       sodipodi:cx="204.43086"
       sodipodi:cy="441.05435"
       sodipodi:rx="3.3079426"
       sodipodi:ry="3.3079426"
       d="m 207.73881,441.05435 a 3.3079426,3.3079426 0 1 1 -6.61589,0 3.3079426,3.3079426 0 1 1 6.61589,0 z"
       transform="translate(279.85196,-5.376095)" />
    <path
       sodipodi:type="arc"
       style="fill:#ff0a0a;fill-opacity:1;stroke:none"
       id="path4199-69"
       sodipodi:cx="204.43086"
       sodipodi:cy="441.05435"
       sodipodi:rx="3.3079426"
       sodipodi:ry="3.3079426"
       d="m 207.73881,441.05435 a 3.3079426,3.3079426 0 1 1 -6.61589,0 3.3079426,3.3079426 0 1 1 6.61589,0 z"
       transform="translate(289.77579,-5.376095)" />
    <path
       sodipodi:type="arc"
       style="fill:#ff0a0a;fill-opacity:1;stroke:none"
       id="path4199-50"
       sodipodi:cx="204.43086"
       sodipodi:cy="441.05435"
       sodipodi:rx="3.3079426"
       sodipodi:ry="3.3079426"
       d="m 207.73881,441.05435 a 3.3079426,3.3079426 0 1 1 -6.61589,0 3.3079426,3.3079426 0 1 1 6.61589,0 z"
       transform="translate(306.97709,-5.376095)" />
    <path
       sodipodi:type="arc"
       style="fill:#ff0a0a;fill-opacity:1;stroke:none"
       id="path4199-51"
       sodipodi:cx="204.43086"
       sodipodi:cy="441.05435"
       sodipodi:rx="3.3079426"
       sodipodi:ry="3.3079426"
       d="m 207.73881,441.05435 a 3.3079426,3.3079426 0 1 1 -6.61589,0 3.3079426,3.3079426 0 1 1 6.61589,0 z"
       transform="translate(321.53204,-5.376095)" />
    <path
       sodipodi:type="arc"
       style="fill:#ff0a0a;fill-opacity:1;stroke:none"
       id="path4199-02"
       sodipodi:cx="204.43086"
       sodipodi:cy="441.05435"
       sodipodi:rx="3.3079426"
       sodipodi:ry="3.3079426"
       d="m 207.73881,441.05435 a 3.3079426,3.3079426 0 1 1 -6.61589,0 3.3079426,3.3079426 0 1 1 6.61589,0 z"
       transform="translate(344.68764,-5.376095)" />
    <path
       sodipodi:type="arc"
       style="fill:#ff0a0a;fill-opacity:1;stroke:none"
       id="path4199-76"
       sodipodi:cx="204.43086"
       sodipodi:cy="441.05435"
       sodipodi:rx="3.3079426"
       sodipodi:ry="3.3079426"
       d="m 207.73881,441.05435 a 3.3079426,3.3079426 0 1 1 -6.61589,0 3.3079426,3.3079426 0 1 1 6.61589,0 z"
       transform="translate(379.75183,-5.376095)" />
    <path
       sodipodi:type="arc"
       style="fill:#ff0a0a;fill-opacity:1;stroke:none"
       id="path4199-18"
       sodipodi:cx="204.43086"
       sodipodi:cy="441.05435"
       sodipodi:rx="3.3079426"
       sodipodi:ry="3.3079426"
       d="m 207.73881,441.05435 a 3.3079426,3.3079426 0 1 1 -6.61589,0 3.3079426,3.3079426 0 1 1 6.61589,0 z"
       transform="translate(398.27631,-5.376095)" />
    <path
       style="fill:none;stroke:#a3a3a3;stroke-width:1px;stroke-linecap:butt;stroke-linejoin:miter;stroke-opacity:1;marker-end:url(#Arrow2Lend)"
       d="m 100.21465,435.69587 562.69953,0"
       id="path2985-7"
       inkscape:connector-curvature="0" />
    <path
       style="fill:none;stroke:#a3a3a3;stroke-width:1px;stroke-linecap:butt;stroke-linejoin:miter;stroke-opacity:1;marker-end:url(#Arrow2Lend)"
       d="m 100.21465,393.43759 562.69953,0"
       id="path2985-73"
       inkscape:connector-curvature="0" />
    <path
       sodipodi:type="arc"
       style="fill:#4c8cff;fill-opacity:1;stroke:none"
       id="path4199-24"
       sodipodi:cx="204.43086"
       sodipodi:cy="441.05435"
       sodipodi:rx="3.3079426"
       sodipodi:ry="3.3079426"
       d="m 207.73881,441.05435 a 3.3079426,3.3079426 0 1 1 -6.61589,0 3.3079426,3.3079426 0 1 1 6.61589,0 z"
       transform="translate(-52.927082,-47.634377)"
       inkscape:connector-avoid="true" />
    <path
       sodipodi:type="arc"
       style="fill:#4c8cff;fill-opacity:1;stroke:none"
       id="path4199-24-4"
       sodipodi:cx="204.43086"
       sodipodi:cy="441.05435"
       sodipodi:rx="3.3079426"
       sodipodi:ry="3.3079426"
       d="m 207.73881,441.05435 a 3.3079426,3.3079426 0 1 1 -6.61589,0 3.3079426,3.3079426 0 1 1 6.61589,0 z"
       transform="translate(3.155601,-47.634377)"
       inkscape:connector-avoid="true" />
    <path
       sodipodi:type="arc"
       style="fill:#4c8cff;fill-opacity:1;stroke:none"
       id="path4199-24-0"
       sodipodi:cx="204.43086"
       sodipodi:cy="441.05435"
       sodipodi:rx="3.3079426"
       sodipodi:ry="3.3079426"
       d="m 207.73881,441.05435 a 3.3079426,3.3079426 0 1 1 -6.61589,0 3.3079426,3.3079426 0 1 1 6.61589,0 z"
       transform="translate(100.37865,-47.634377)"
       inkscape:connector-avoid="true" />
    <path
       sodipodi:type="arc"
       style="fill:#4c8cff;fill-opacity:1;stroke:none"
       id="path4199-24-44"
       sodipodi:cx="204.43086"
       sodipodi:cy="441.05435"
       sodipodi:rx="3.3079426"
       sodipodi:ry="3.3079426"
       d="m 207.73881,441.05435 a 3.3079426,3.3079426 0 1 1 -6.61589,0 3.3079426,3.3079426 0 1 1 6.61589,0 z"
       transform="translate(164.91836,-47.634377)"
       inkscape:connector-avoid="true" />
    <path
       sodipodi:type="arc"
       style="fill:#4c8cff;fill-opacity:1;stroke:none"
       id="path4199-24-3"
       sodipodi:cx="204.43086"
       sodipodi:cy="441.05435"
       sodipodi:rx="3.3079426"
       sodipodi:ry="3.3079426"
       d="m 207.73881,441.05435 a 3.3079426,3.3079426 0 1 1 -6.61589,0 3.3079426,3.3079426 0 1 1 6.61589,0 z"
       transform="translate(191.86068,-47.634377)"
       inkscape:connector-avoid="true" />
    <path
       sodipodi:type="arc"
       style="fill:#4c8cff;fill-opacity:1;stroke:none"
       id="path4199-24-2"
       sodipodi:cx="204.43086"
       sodipodi:cy="441.05435"
       sodipodi:rx="3.3079426"
       sodipodi:ry="3.3079426"
       d="m 207.73881,441.05435 a 3.3079426,3.3079426 0 1 1 -6.61589,0 3.3079426,3.3079426 0 1 1 6.61589,0 z"
       transform="translate(260.84871,-47.634377)"
       inkscape:connector-avoid="true" />
    <path
       sodipodi:type="arc"
       style="fill:#4c8cff;fill-opacity:1;stroke:none"
       id="path4199-24-443"
       sodipodi:cx="204.43086"
       sodipodi:cy="441.05435"
       sodipodi:rx="3.3079426"
       sodipodi:ry="3.3079426"
       d="m 207.73881,441.05435 a 3.3079426,3.3079426 0 1 1 -6.61589,0 3.3079426,3.3079426 0 1 1 6.61589,0 z"
       transform="translate(302.85522,-47.634377)"
       inkscape:connector-avoid="true" />
    <path
       sodipodi:type="arc"
       style="fill:#4c8cff;fill-opacity:1;stroke:none"
       id="path4199-24-6"
       sodipodi:cx="204.43086"
       sodipodi:cy="441.05435"
       sodipodi:rx="3.3079426"
       sodipodi:ry="3.3079426"
       d="m 207.73881,441.05435 a 3.3079426,3.3079426 0 1 1 -6.61589,0 3.3079426,3.3079426 0 1 1 6.61589,0 z"
       transform="translate(394.30678,-47.634377)"
       inkscape:connector-avoid="true" />
    <path
       style="fill:none;stroke:#298900;stroke-width:0.99999994;stroke-linecap:butt;stroke-linejoin:miter;stroke-miterlimit:4;stroke-opacity:1;stroke-dasharray:5.99999992, 5.99999992;stroke-dashoffset:0"
       d="m 134.30248,371.50014 0,84.44274"
       id="path4656"
       inkscape:connector-curvature="0" />
    <path
       style="fill:none;stroke:#298900;stroke-width:0.99999994;stroke-linecap:butt;stroke-linejoin:miter;stroke-miterlimit:4;stroke-opacity:1;stroke-dasharray:5.99999992, 5.99999992;stroke-dashoffset:0"
       d="m 233.54075,371.50014 0,84.44274"
       id="path4656-3"
       inkscape:connector-curvature="0" />
    <path
       style="fill:none;stroke:#298900;stroke-width:0.99999994;stroke-linecap:butt;stroke-linejoin:miter;stroke-miterlimit:4;stroke-opacity:1;stroke-dasharray:5.99999992, 5.99999992;stroke-dashoffset:0"
       d="m 332.77905,371.50014 0,84.44274"
       id="path4656-4"
       inkscape:connector-curvature="0" />
    <path
       style="fill:none;stroke:#298900;stroke-width:0.99999994;stroke-linecap:butt;stroke-linejoin:miter;stroke-miterlimit:4;stroke-opacity:1;stroke-dasharray:5.99999992, 5.99999992;stroke-dashoffset:0"
       d="m 432.01734,371.50014 0,84.44274"
       id="path4656-45"
       inkscape:connector-curvature="0" />
    <path
       style="fill:none;stroke:#298900;stroke-width:0.99999994;stroke-linecap:butt;stroke-linejoin:miter;stroke-miterlimit:4;stroke-opacity:1;stroke-dasharray:5.99999992, 5.99999992;stroke-dashoffset:0"
       d="m 531.2556,371.50014 0,84.44274"
       id="path4656-6"
       inkscape:connector-curvature="0" />
    <path
       style="fill:none;stroke:#298900;stroke-width:0.99999994;stroke-linecap:butt;stroke-linejoin:miter;stroke-miterlimit:4;stroke-opacity:1;stroke-dasharray:5.99999992, 5.99999992;stroke-dashoffset:0"
       d="m 630.49389,371.50014 0,84.44274"
       id="path4656-1"
       inkscape:connector-curvature="0" />
    <text
       xml:space="preserve"
       style="font-size:10px;font-style:normal;font-variant:normal;font-weight:normal;font-stretch:normal;line-height:125%;letter-spacing:0px;word-spacing:0px;fill:#000000;fill-opacity:1;stroke:none;font-family:Norasi;-inkscape-font-specification:Norasi"
       x="102.37943"
       y="387.96997"
       id="text4753"
       sodipodi:linespacing="125%"><tspan
         sodipodi:role="line"
         id="tspan4755"
         x="102.37943"
         y="387.96997">$q_b$</tspan></text>
    <text
       xml:space="preserve"
       style="font-size:10px;font-style:normal;font-variant:normal;font-weight:normal;font-stretch:normal;line-height:125%;letter-spacing:0px;word-spacing:0px;fill:#000000;fill-opacity:1;stroke:none;font-family:Norasi;-inkscape-font-specification:Norasi"
       x="90.652863"
       y="424.22824"
       id="text4757"
       sodipodi:linespacing="125%"><tspan
         sodipodi:role="line"
         x="90.652863"
         y="424.22824"
         id="tspan3098">$q_{racine}$</tspan></text>
    <text
       xml:space="preserve"
       style="font-size:10px;font-style:normal;font-variant:normal;font-weight:normal;font-stretch:normal;line-height:125%;letter-spacing:0px;word-spacing:0px;fill:#000000;fill-opacity:1;stroke:none;font-family:Norasi;-inkscape-font-specification:Norasi"
       x="164.29166"
       y="369.39014"
       id="text4761"
       sodipodi:linespacing="125%"><tspan
         sodipodi:role="line"
         id="tspan4763"
         x="164.29166"
         y="369.39014"
         style="font-size:6px">$\mathcal{B}_{\mathcal{C},0}$</tspan></text>
    <text
       xml:space="preserve"
       style="font-size:10px;font-style:normal;font-variant:normal;font-weight:normal;font-stretch:normal;line-height:125%;letter-spacing:0px;word-spacing:0px;fill:#000000;fill-opacity:1;stroke:none;font-family:Norasi;-inkscape-font-specification:Norasi"
       x="263.52994"
       y="369.39014"
       id="text4761-7"
       sodipodi:linespacing="125%"><tspan
         sodipodi:role="line"
         id="tspan4763-4"
         x="263.52994"
         y="369.39014"
         style="font-size:6px">$\mathcal{B}_{\mathcal{C},1}$</tspan></text>
    <text
       xml:space="preserve"
       style="font-size:10px;font-style:normal;font-variant:normal;font-weight:normal;font-stretch:normal;line-height:125%;letter-spacing:0px;word-spacing:0px;fill:#000000;fill-opacity:1;stroke:none;font-family:Norasi;-inkscape-font-specification:Norasi"
       x="362.76825"
       y="369.39014"
       id="text4761-1"
       sodipodi:linespacing="125%"><tspan
         sodipodi:role="line"
         id="tspan4763-2"
         x="362.76825"
         y="369.39014"
         style="font-size:6px">$\mathcal{B}_{\mathcal{C},2}$</tspan></text>
    <text
       xml:space="preserve"
       style="font-size:10px;font-style:normal;font-variant:normal;font-weight:normal;font-stretch:normal;line-height:125%;letter-spacing:0px;word-spacing:0px;fill:#000000;fill-opacity:1;stroke:none;font-family:Norasi;-inkscape-font-specification:Norasi"
       x="462.00653"
       y="369.39014"
       id="text4761-2"
       sodipodi:linespacing="125%"><tspan
         sodipodi:role="line"
         id="tspan4763-45"
         x="462.00653"
         y="369.39014"
         style="font-size:6px">$\mathcal{B}_{\mathcal{C},3}$</tspan></text>
    <text
       xml:space="preserve"
       style="font-size:10px;font-style:normal;font-variant:normal;font-weight:normal;font-stretch:normal;line-height:125%;letter-spacing:0px;word-spacing:0px;fill:#000000;fill-opacity:1;stroke:none;font-family:Norasi;-inkscape-font-specification:Norasi"
       x="561.24475"
       y="369.39014"
       id="text4761-0"
       sodipodi:linespacing="125%"><tspan
         sodipodi:role="line"
         id="tspan4763-6"
         x="561.24475"
         y="369.39014"
         style="font-size:6px">$\mathcal{B}_{\mathcal{C},4}$</tspan></text>
    <text
       xml:space="preserve"
       style="font-size:10px;font-style:normal;font-variant:normal;font-weight:normal;font-stretch:normal;line-height:125%;letter-spacing:0px;word-spacing:0px;fill:#000000;fill-opacity:1;stroke:none;font-family:Norasi;-inkscape-font-specification:Norasi"
       x="652.28363"
       y="450.10922"
       id="text5775"
       sodipodi:linespacing="125%"><tspan
         sodipodi:role="line"
         id="tspan5777"
         x="652.28363"
         y="450.10922">$t$</tspan></text>
    <path
       sodipodi:type="arc"
       style="fill:#4c8cff;fill-opacity:1;stroke:none"
       id="path4199-24-25"
       sodipodi:cx="204.43086"
       sodipodi:cy="441.05435"
       sodipodi:rx="3.3079426"
       sodipodi:ry="3.3079426"
       d="m 207.73881,441.05435 a 3.3079426,3.3079426 0 1 1 -6.61589,0 3.3079426,3.3079426 0 1 1 6.61589,0 z"
       transform="translate(-32.417838,-47.634377)"
       inkscape:connector-avoid="true" />
    <path
       sodipodi:type="arc"
       style="fill:#4c8cff;fill-opacity:1;stroke:none"
       id="path4199-24-8"
       sodipodi:cx="204.43086"
       sodipodi:cy="441.05435"
       sodipodi:rx="3.3079426"
       sodipodi:ry="3.3079426"
       d="m 207.73881,441.05435 a 3.3079426,3.3079426 0 1 1 -6.61589,0 3.3079426,3.3079426 0 1 1 6.61589,0 z"
       transform="translate(-11.908592,-47.634377)"
       inkscape:connector-avoid="true" />
    <path
       sodipodi:type="arc"
       style="fill:#4c8cff;fill-opacity:1;stroke:none"
       id="path4199-24-26"
       sodipodi:cx="204.43086"
       sodipodi:cy="441.05435"
       sodipodi:rx="3.3079426"
       sodipodi:ry="3.3079426"
       d="m 207.73881,441.05435 a 3.3079426,3.3079426 0 1 1 -6.61589,0 3.3079426,3.3079426 0 1 1 6.61589,0 z"
       transform="translate(53.588675,-47.634377)"
       inkscape:connector-avoid="true" />
    <path
       sodipodi:type="arc"
       style="fill:#4c8cff;fill-opacity:1;stroke:none"
       id="path4199-24-449"
       sodipodi:cx="204.43086"
       sodipodi:cy="441.05435"
       sodipodi:rx="3.3079426"
       sodipodi:ry="3.3079426"
       d="m 207.73881,441.05435 a 3.3079426,3.3079426 0 1 1 -6.61589,0 3.3079426,3.3079426 0 1 1 6.61589,0 z"
       transform="translate(71.451566,-47.634377)"
       inkscape:connector-avoid="true" />
    <path
       sodipodi:type="arc"
       style="fill:#4c8cff;fill-opacity:1;stroke:none"
       id="path4199-24-1"
       sodipodi:cx="204.43086"
       sodipodi:cy="441.05435"
       sodipodi:rx="3.3079426"
       sodipodi:ry="3.3079426"
       d="m 207.73881,441.05435 a 3.3079426,3.3079426 0 1 1 -6.61589,0 3.3079426,3.3079426 0 1 1 6.61589,0 z"
       transform="translate(144.22631,-47.634377)"
       inkscape:connector-avoid="true" />
    <path
       sodipodi:type="arc"
       style="fill:#4c8cff;fill-opacity:1;stroke:none"
       id="path4199-24-03"
       sodipodi:cx="204.43086"
       sodipodi:cy="441.05435"
       sodipodi:rx="3.3079426"
       sodipodi:ry="3.3079426"
       d="m 207.73881,441.05435 a 3.3079426,3.3079426 0 1 1 -6.61589,0 3.3079426,3.3079426 0 1 1 6.61589,0 z"
       transform="translate(175.32097,-47.634377)"
       inkscape:connector-avoid="true" />
    <path
       sodipodi:type="arc"
       style="fill:#4c8cff;fill-opacity:1;stroke:none"
       id="path4199-24-14"
       sodipodi:cx="204.43086"
       sodipodi:cy="441.05435"
       sodipodi:rx="3.3079426"
       sodipodi:ry="3.3079426"
       d="m 207.73881,441.05435 a 3.3079426,3.3079426 0 1 1 -6.61589,0 3.3079426,3.3079426 0 1 1 6.61589,0 z"
       transform="translate(204.43087,-47.634377)"
       inkscape:connector-avoid="true" />
    <path
       sodipodi:type="arc"
       style="fill:#4c8cff;fill-opacity:1;stroke:none"
       id="path4199-24-07"
       sodipodi:cx="204.43086"
       sodipodi:cy="441.05435"
       sodipodi:rx="3.3079426"
       sodipodi:ry="3.3079426"
       d="m 207.73881,441.05435 a 3.3079426,3.3079426 0 1 1 -6.61589,0 3.3079426,3.3079426 0 1 1 6.61589,0 z"
       transform="translate(242.803,-47.634377)"
       inkscape:connector-avoid="true" />
    <path
       sodipodi:type="arc"
       style="fill:#4c8cff;fill-opacity:1;stroke:none"
       id="path4199-24-82"
       sodipodi:cx="204.43086"
       sodipodi:cy="441.05435"
       sodipodi:rx="3.3079426"
       sodipodi:ry="3.3079426"
       d="m 207.73881,441.05435 a 3.3079426,3.3079426 0 1 1 -6.61589,0 3.3079426,3.3079426 0 1 1 6.61589,0 z"
       transform="translate(269.92813,-47.634377)"
       inkscape:connector-avoid="true" />
    <path
       sodipodi:type="arc"
       style="fill:#4c8cff;fill-opacity:1;stroke:none"
       id="path4199-24-16"
       sodipodi:cx="204.43086"
       sodipodi:cy="441.05435"
       sodipodi:rx="3.3079426"
       sodipodi:ry="3.3079426"
       d="m 207.73881,441.05435 a 3.3079426,3.3079426 0 1 1 -6.61589,0 3.3079426,3.3079426 0 1 1 6.61589,0 z"
       transform="translate(357.25782,-47.634377)"
       inkscape:connector-avoid="true" />
    <path
       sodipodi:type="arc"
       style="fill:#4c8cff;fill-opacity:1;stroke:none"
       id="path4199-24-7"
       sodipodi:cx="204.43086"
       sodipodi:cy="441.05435"
       sodipodi:rx="3.3079426"
       sodipodi:ry="3.3079426"
       d="m 207.73881,441.05435 a 3.3079426,3.3079426 0 1 1 -6.61589,0 3.3079426,3.3079426 0 1 1 6.61589,0 z"
       transform="translate(383.72136,-47.634377)"
       inkscape:connector-avoid="true" />
    <rect
       style="fill:none;stroke:#000000;stroke-width:0.2;stroke-linecap:round;stroke-linejoin:round;stroke-miterlimit:4;stroke-opacity:1;stroke-dasharray:none;stroke-dashoffset:0;display:inline"
       id="rect6504"
       width="589.09534"
       height="125.20916"
       x="87.850525"
       y="343.3429" />
    <path
       sodipodi:type="arc"
       style="fill:#ff0a0a;fill-opacity:1;stroke:none;display:inline"
       id="path4199-4-5"
       sodipodi:cx="204.43086"
       sodipodi:cy="441.05435"
       sodipodi:rx="3.3079426"
       sodipodi:ry="3.3079426"
       d="m 207.73881,441.05435 a 3.3079426,3.3079426 0 1 1 -6.61589,0 3.3079426,3.3079426 0 1 1 6.61589,0 z"
       transform="translate(-37.831565,-19.376111)" />
    <path
       style="fill:none;stroke:#000000;stroke-width:0.5;stroke-linecap:butt;stroke-linejoin:miter;stroke-miterlimit:4;stroke-opacity:1;stroke-dasharray:none;marker-end:url(#Arrow2Lend-0)"
       d="m 168.32835,418.85761 c 1.69322,-7.70284 8.56997,-8.49433 9.39928,-15.33325"
       id="path3149"
       inkscape:connector-type="polyline"
       inkscape:connector-curvature="0"
       inkscape:connection-start="#path4199-4-5"
       inkscape:connection-start-point="d4"
       inkscape:connection-end="#path4851-4-0-0"
       inkscape:connection-end-point="d4"
       sodipodi:nodetypes="cc" />
    <path
       style="fill:none;stroke:#000000;stroke-width:0.5;stroke-linecap:butt;stroke-linejoin:miter;stroke-miterlimit:4;stroke-opacity:1;stroke-dasharray:none;marker-end:url(#Arrow2Lend-0)"
       d="m 169.81486,420.89868 c 21.33212,-10.75535 59.60026,-11.78037 91.5602,-18.10251"
       id="path3151"
       inkscape:connector-type="polyline"
       inkscape:connector-curvature="0"
       inkscape:connection-start="#path4199-4-5"
       inkscape:connection-start-point="d4"
       inkscape:connection-end="#path4851-4-0"
       inkscape:connection-end-point="d4"
       sodipodi:nodetypes="cc" />
    <path
       style="fill:none;stroke:#000000;stroke-width:0.5;stroke-linecap:butt;stroke-linejoin:miter;stroke-miterlimit:4;stroke-opacity:1;stroke-dasharray:none;marker-end:url(#Arrow2Lend-0)"
       d="m 169.87961,421.24869 c 89.54362,-18.60851 165.98223,-7.23377 207.8563,-17.69787"
       id="path3153"
       inkscape:connector-type="polyline"
       inkscape:connector-curvature="0"
       inkscape:connection-start="#path4199-4-5"
       inkscape:connection-start-point="d4"
       inkscape:connection-end="#path4851-4-0-6"
       inkscape:connection-end-point="d4"
       sodipodi:nodetypes="cc" />
    <path
       style="fill:none;stroke:#000000;stroke-width:0.5;stroke-linecap:butt;stroke-linejoin:miter;stroke-miterlimit:4;stroke-opacity:1;stroke-dasharray:none;marker-end:url(#Arrow2Lend-0)"
       d="m 169.89422,421.38269 c 118.20644,-8.80525 282.2398,-6.8632 306.8181,-17.83586"
       id="path3155"
       inkscape:connector-type="polyline"
       inkscape:connector-curvature="0"
       inkscape:connection-start="#path4199-4-5"
       inkscape:connection-start-point="d4"
       inkscape:connection-end="#path4851-4-0-3"
       inkscape:connection-end-point="d4"
       sodipodi:nodetypes="cc" />
    <path
       style="fill:none;stroke:#000000;stroke-width:0.5;stroke-linecap:butt;stroke-linejoin:miter;stroke-miterlimit:4;stroke-opacity:1;stroke-dasharray:none;marker-end:url(#Arrow2Lend-0)"
       d="m 169.88756,422.04118 c 136.99887,-3.95867 404.38342,-7.40909 411.7613,-18.45694"
       id="path3157"
       inkscape:connector-type="polyline"
       inkscape:connector-curvature="0"
       inkscape:connection-end="#path4851-4-0-63"
       inkscape:connection-end-point="d4"
       sodipodi:nodetypes="cc" />
  </g>
  <g
     inkscape:groupmode="layer"
     id="layer4"
     inkscape:label="cumtbg2"
     style="display:inline">
    <path
       sodipodi:type="arc"
       style="fill:#4c8cff;fill-opacity:0.13333333;fill-rule:nonzero;stroke:#4b8eff;stroke-opacity:1;filter:url(#filter6147)"
       id="path4851-4-0-3"
       sodipodi:cx="196.4263"
       sodipodi:cy="426.582"
       sodipodi:rx="55.989231"
       sodipodi:ry="13.919974"
       d="m 252.41553,426.582 a 55.989231,13.919974 0 1 1 -111.97846,0 55.989231,13.919974 0 1 1 111.97846,0 z"
       transform="matrix(1.0055249,0,0,0.73026028,284.12493,81.904084)"
       inkscape:connector-avoid="true" />
  </g>
  <g
     inkscape:groupmode="layer"
     id="layer3"
     inkscape:label="cumtbg1"
     style="display:inline">
    <path
       sodipodi:type="arc"
       style="fill:#4c8cff;fill-opacity:0.13333333;fill-rule:nonzero;stroke:#4b8eff;stroke-opacity:1;filter:url(#filter6143)"
       id="path4851-4-0-6"
       sodipodi:cx="196.4263"
       sodipodi:cy="426.582"
       sodipodi:rx="55.989231"
       sodipodi:ry="13.919974"
       d="m 252.41553,426.582 a 55.989231,13.919974 0 1 1 -111.97846,0 55.989231,13.919974 0 1 1 111.97846,0 z"
       transform="matrix(1.0055249,0,0,0.73026028,184.88666,81.904084)"
       inkscape:connector-avoid="true" />
  </g>
  <g
     inkscape:groupmode="layer"
     id="layer2"
     inkscape:label="cumtbg0"
     style="display:inline">
    <path
       sodipodi:type="arc"
       style="fill:#4b8eff;fill-opacity:0.13333333;fill-rule:nonzero;stroke:#4b8eff;stroke-opacity:1;filter:url(#filter6139)"
       id="path4851-4-0"
       sodipodi:cx="196.4263"
       sodipodi:cy="426.582"
       sodipodi:rx="55.989231"
       sodipodi:ry="13.919974"
       d="m 252.41553,426.582 a 55.989231,13.919974 0 1 1 -111.97846,0 55.989231,13.919974 0 1 1 111.97846,0 z"
       transform="matrix(1.0055249,0,0,0.73026028,85.648364,81.904084)"
       inkscape:connector-avoid="true" />
    <path
       sodipodi:type="arc"
       style="fill:#4b8eff;fill-opacity:0.13333333;fill-rule:nonzero;stroke:#4b8eff;stroke-opacity:1;display:inline;filter:url(#filter6139-7)"
       id="path4851-4-0-0"
       sodipodi:cx="196.4263"
       sodipodi:cy="426.582"
       sodipodi:rx="55.989231"
       sodipodi:ry="13.919974"
       d="m 252.41553,426.582 a 55.989231,13.919974 0 1 1 -111.97846,0 55.989231,13.919974 0 1 1 111.97846,0 z"
       transform="matrix(1.0055249,0,0,0.73026028,-13.589921,81.904084)"
       inkscape:connector-avoid="true" />
  </g>
</svg>
