<?xml version="1.0" encoding="UTF-8" standalone="no"?>
<!-- Created with Inkscape (http://www.inkscape.org/) -->

<svg
   xmlns:dc="http://purl.org/dc/elements/1.1/"
   xmlns:cc="http://creativecommons.org/ns#"
   xmlns:rdf="http://www.w3.org/1999/02/22-rdf-syntax-ns#"
   xmlns:svg="http://www.w3.org/2000/svg"
   xmlns="http://www.w3.org/2000/svg"
   xmlns:sodipodi="http://sodipodi.sourceforge.net/DTD/sodipodi-0.dtd"
   xmlns:inkscape="http://www.inkscape.org/namespaces/inkscape"
   width="744.09448819"
   height="1052.3622047"
   id="svg2"
   version="1.1"
   inkscape:version="0.48.3.1 r9886"
   sodipodi:docname="model-slidetimebags-b.svg">
  <defs
     id="defs4">
    <marker
       inkscape:stockid="Arrow2Mend"
       orient="auto"
       refY="0.0"
       refX="0.0"
       id="Arrow2Mend"
       style="overflow:visible;">
      <path
         id="path3786"
         style="fill-rule:evenodd;stroke-width:0.62500000;stroke-linejoin:round;"
         d="M 8.7185878,4.0337352 L -2.2072895,0.016013256 L 8.7185884,-4.0017078 C 6.9730900,-1.6296469 6.9831476,1.6157441 8.7185878,4.0337352 z "
         transform="scale(0.6) rotate(180) translate(0,0)" />
    </marker>
    <marker
       inkscape:stockid="Arrow1Send"
       orient="auto"
       refY="0.0"
       refX="0.0"
       id="Arrow1Send"
       style="overflow:visible;">
      <path
         id="path3774"
         d="M 0.0,0.0 L 5.0,-5.0 L -12.5,0.0 L 5.0,5.0 L 0.0,0.0 z "
         style="fill-rule:evenodd;stroke:#000000;stroke-width:1.0pt;"
         transform="scale(0.2) rotate(180) translate(6,0)" />
    </marker>
    <marker
       inkscape:stockid="Arrow2Lend"
       orient="auto"
       refY="0.0"
       refX="0.0"
       id="Arrow2Lend"
       style="overflow:visible;">
      <path
         id="path3780"
         style="fill-rule:evenodd;stroke-width:0.62500000;stroke-linejoin:round;"
         d="M 8.7185878,4.0337352 L -2.2072895,0.016013256 L 8.7185884,-4.0017078 C 6.9730900,-1.6296469 6.9831476,1.6157441 8.7185878,4.0337352 z "
         transform="scale(1.1) rotate(180) translate(1,0)" />
    </marker>
    <marker
       inkscape:stockid="Arrow2Lend"
       orient="auto"
       refY="0"
       refX="0"
       id="Arrow2Lend-3"
       style="overflow:visible">
      <path
         inkscape:connector-curvature="0"
         id="path3780-4"
         style="fill-rule:evenodd;stroke-width:0.625;stroke-linejoin:round"
         d="M 8.7185878,4.0337352 -2.2072895,0.01601326 8.7185884,-4.0017078 c -1.7454984,2.3720609 -1.7354408,5.6174519 -6e-7,8.035443 z"
         transform="matrix(-1.1,0,0,-1.1,-1.1,0)" />
    </marker>
    <marker
       inkscape:stockid="Arrow2Lend"
       orient="auto"
       refY="0"
       refX="0"
       id="Arrow2Lend-0"
       style="overflow:visible">
      <path
         inkscape:connector-curvature="0"
         id="path3780-3"
         style="fill-rule:evenodd;stroke-width:0.625;stroke-linejoin:round"
         d="M 8.7185878,4.0337352 -2.2072895,0.01601326 8.7185884,-4.0017078 c -1.7454984,2.3720609 -1.7354408,5.6174519 -6e-7,8.035443 z"
         transform="matrix(-1.1,0,0,-1.1,-1.1,0)" />
    </marker>
    <filter
       inkscape:collect="always"
       id="filter6159">
      <feGaussianBlur
         inkscape:collect="always"
         stdDeviation="0.38781064"
         id="feGaussianBlur6161" />
    </filter>
    <filter
       color-interpolation-filters="sRGB"
       inkscape:collect="always"
       id="filter6163-1">
      <feGaussianBlur
         inkscape:collect="always"
         stdDeviation="0.38781064"
         id="feGaussianBlur6165-2" />
    </filter>
    <marker
       inkscape:stockid="Arrow2Lend"
       orient="auto"
       refY="0"
       refX="0"
       id="Arrow2Lend-0-8"
       style="overflow:visible">
      <path
         inkscape:connector-curvature="0"
         id="path3780-3-8"
         style="fill-rule:evenodd;stroke-width:0.625;stroke-linejoin:round"
         d="M 8.7185878,4.0337352 -2.2072895,0.01601326 8.7185884,-4.0017078 c -1.7454984,2.3720609 -1.7354408,5.6174519 -6e-7,8.035443 z"
         transform="matrix(-1.1,0,0,-1.1,-1.1,0)" />
    </marker>
    <marker
       inkscape:stockid="Arrow2Lend"
       orient="auto"
       refY="0"
       refX="0"
       id="Arrow2Lend-0-1"
       style="overflow:visible">
      <path
         inkscape:connector-curvature="0"
         id="path3780-3-87"
         style="fill-rule:evenodd;stroke-width:0.625;stroke-linejoin:round"
         d="M 8.7185878,4.0337352 -2.2072895,0.01601326 8.7185884,-4.0017078 c -1.7454984,2.3720609 -1.7354408,5.6174519 -6e-7,8.035443 z"
         transform="matrix(-1.1,0,0,-1.1,-1.1,0)" />
    </marker>
    <filter
       color-interpolation-filters="sRGB"
       inkscape:collect="always"
       id="filter6163-1-80">
      <feGaussianBlur
         inkscape:collect="always"
         stdDeviation="0.38781064"
         id="feGaussianBlur6165-2-5" />
    </filter>
    <filter
       color-interpolation-filters="sRGB"
       inkscape:collect="always"
       id="filter6163-1-80-5">
      <feGaussianBlur
         inkscape:collect="always"
         stdDeviation="0.38781064"
         id="feGaussianBlur6165-2-5-1" />
    </filter>
  </defs>
  <sodipodi:namedview
     id="base"
     pagecolor="#ffffff"
     bordercolor="#666666"
     borderopacity="1.0"
     inkscape:pageopacity="0.0"
     inkscape:pageshadow="2"
     inkscape:zoom="1.51"
     inkscape:cx="318.59439"
     inkscape:cy="660.89407"
     inkscape:document-units="px"
     inkscape:current-layer="layer3"
     showgrid="false"
     inkscape:window-width="1535"
     inkscape:window-height="876"
     inkscape:window-x="65"
     inkscape:window-y="24"
     inkscape:window-maximized="1"
     inkscape:snap-object-midpoints="false"
     inkscape:object-paths="false" />
  <metadata
     id="metadata7">
    <rdf:RDF>
      <cc:Work
         rdf:about="">
        <dc:format>image/svg+xml</dc:format>
        <dc:type
           rdf:resource="http://purl.org/dc/dcmitype/StillImage" />
        <dc:title />
      </cc:Work>
    </rdf:RDF>
  </metadata>
  <g
     inkscape:label="Layer 1"
     inkscape:groupmode="layer"
     id="layer1"
     style="display:inline">
    <path
       style="fill:none;stroke:#a3a3a3;stroke-width:1px;stroke-linecap:butt;stroke-linejoin:miter;stroke-opacity:1;marker-end:url(#Arrow2Lend)"
       d="m 100.21465,423.69587 562.69953,0"
       id="path2985-7"
       inkscape:connector-curvature="0" />
    <path
       sodipodi:type="arc"
       style="fill:#ff0a0a;fill-opacity:1;stroke:none"
       id="path4199"
       sodipodi:cx="204.43086"
       sodipodi:cy="441.05435"
       sodipodi:rx="3.3079426"
       sodipodi:ry="3.3079426"
       d="m 207.73881,441.05435 a 3.3079426,3.3079426 0 1 1 -6.61589,0 3.3079426,3.3079426 0 1 1 6.61589,0 z"
       transform="translate(-63.512501,-17.376095)" />
    <path
       sodipodi:type="arc"
       style="fill:#ff0a0a;fill-opacity:1;stroke:none"
       id="path4199-4"
       sodipodi:cx="204.43086"
       sodipodi:cy="441.05435"
       sodipodi:rx="3.3079426"
       sodipodi:ry="3.3079426"
       d="m 207.73881,441.05435 a 3.3079426,3.3079426 0 1 1 -6.61589,0 3.3079426,3.3079426 0 1 1 6.61589,0 z"
       transform="translate(-40.3569,-17.376095)" />
    <path
       sodipodi:type="arc"
       style="fill:#ff0a0a;fill-opacity:1;stroke:none"
       id="path4199-8"
       sodipodi:cx="204.43086"
       sodipodi:cy="441.05435"
       sodipodi:rx="3.3079426"
       sodipodi:ry="3.3079426"
       d="m 207.73881,441.05435 a 3.3079426,3.3079426 0 1 1 -6.61589,0 3.3079426,3.3079426 0 1 1 6.61589,0 z"
       transform="translate(-27.786718,-17.376095)" />
    <path
       sodipodi:type="arc"
       style="fill:#ff0a0a;fill-opacity:1;stroke:none"
       id="path4199-47"
       sodipodi:cx="204.43086"
       sodipodi:cy="441.05435"
       sodipodi:rx="3.3079426"
       sodipodi:ry="3.3079426"
       d="m 207.73881,441.05435 a 3.3079426,3.3079426 0 1 1 -6.61589,0 3.3079426,3.3079426 0 1 1 6.61589,0 z"
       transform="translate(-6.6158838,-17.376095)" />
    <path
       sodipodi:type="arc"
       style="fill:#ff0a0a;fill-opacity:1;stroke:none"
       id="path4199-0"
       sodipodi:cx="204.43086"
       sodipodi:cy="441.05435"
       sodipodi:rx="3.3079426"
       sodipodi:ry="3.3079426"
       d="m 207.73881,441.05435 a 3.3079426,3.3079426 0 1 1 -6.61589,0 3.3079426,3.3079426 0 1 1 6.61589,0 z"
       transform="translate(11.247007,-17.376095)" />
    <path
       sodipodi:type="arc"
       style="fill:#ff0a0a;fill-opacity:1;stroke:none"
       id="path4199-1"
       sodipodi:cx="204.43086"
       sodipodi:cy="441.05435"
       sodipodi:rx="3.3079426"
       sodipodi:ry="3.3079426"
       d="m 207.73881,441.05435 a 3.3079426,3.3079426 0 1 1 -6.61589,0 3.3079426,3.3079426 0 1 1 6.61589,0 z"
       transform="translate(27.125133,-17.376095)" />
    <path
       sodipodi:type="arc"
       style="fill:#ff0a0a;fill-opacity:1;stroke:none"
       id="path4199-9"
       sodipodi:cx="204.43086"
       sodipodi:cy="441.05435"
       sodipodi:rx="3.3079426"
       sodipodi:ry="3.3079426"
       d="m 207.73881,441.05435 a 3.3079426,3.3079426 0 1 1 -6.61589,0 3.3079426,3.3079426 0 1 1 6.61589,0 z"
       transform="translate(48.957555,-17.376095)" />
    <path
       sodipodi:type="arc"
       style="fill:#ff0a0a;fill-opacity:1;stroke:none"
       id="path4199-6"
       sodipodi:cx="204.43086"
       sodipodi:cy="441.05435"
       sodipodi:rx="3.3079426"
       sodipodi:ry="3.3079426"
       d="m 207.73881,441.05435 a 3.3079426,3.3079426 0 1 1 -6.61589,0 3.3079426,3.3079426 0 1 1 6.61589,0 z"
       transform="translate(64.83568,-17.376095)" />
    <path
       sodipodi:type="arc"
       style="fill:#ff0a0a;fill-opacity:1;stroke:none"
       id="path4199-93"
       sodipodi:cx="204.43086"
       sodipodi:cy="441.05435"
       sodipodi:rx="3.3079426"
       sodipodi:ry="3.3079426"
       d="m 207.73881,441.05435 a 3.3079426,3.3079426 0 1 1 -6.61589,0 3.3079426,3.3079426 0 1 1 6.61589,0 z"
       transform="translate(78.067451,-17.376095)" />
    <path
       sodipodi:type="arc"
       style="fill:#ff0a0a;fill-opacity:1;stroke:none"
       id="path4199-2"
       sodipodi:cx="204.43086"
       sodipodi:cy="441.05435"
       sodipodi:rx="3.3079426"
       sodipodi:ry="3.3079426"
       d="m 207.73881,441.05435 a 3.3079426,3.3079426 0 1 1 -6.61589,0 3.3079426,3.3079426 0 1 1 6.61589,0 z"
       transform="translate(120.40912,-17.376095)" />
    <path
       sodipodi:type="arc"
       style="fill:#ff0a0a;fill-opacity:1;stroke:none"
       id="path4199-65"
       sodipodi:cx="204.43086"
       sodipodi:cy="441.05435"
       sodipodi:rx="3.3079426"
       sodipodi:ry="3.3079426"
       d="m 207.73881,441.05435 a 3.3079426,3.3079426 0 1 1 -6.61589,0 3.3079426,3.3079426 0 1 1 6.61589,0 z"
       transform="translate(177.96732,-17.376095)" />
    <path
       sodipodi:type="arc"
       style="fill:#ff0a0a;fill-opacity:1;stroke:none"
       id="path4199-10"
       sodipodi:cx="204.43086"
       sodipodi:cy="441.05435"
       sodipodi:rx="3.3079426"
       sodipodi:ry="3.3079426"
       d="m 207.73881,441.05435 a 3.3079426,3.3079426 0 1 1 -6.61589,0 3.3079426,3.3079426 0 1 1 6.61589,0 z"
       transform="translate(210.38516,-17.376095)" />
    <path
       sodipodi:type="arc"
       style="fill:#ff0a0a;fill-opacity:1;stroke:none"
       id="path4199-11"
       sodipodi:cx="204.43086"
       sodipodi:cy="441.05435"
       sodipodi:rx="3.3079426"
       sodipodi:ry="3.3079426"
       d="m 207.73881,441.05435 a 3.3079426,3.3079426 0 1 1 -6.61589,0 3.3079426,3.3079426 0 1 1 6.61589,0 z"
       transform="translate(230.89441,-17.376095)" />
    <path
       sodipodi:type="arc"
       style="fill:#ff0a0a;fill-opacity:1;stroke:none"
       id="path4199-69"
       sodipodi:cx="204.43086"
       sodipodi:cy="441.05435"
       sodipodi:rx="3.3079426"
       sodipodi:ry="3.3079426"
       d="m 207.73881,441.05435 a 3.3079426,3.3079426 0 1 1 -6.61589,0 3.3079426,3.3079426 0 1 1 6.61589,0 z"
       transform="translate(289.77579,-17.376095)" />
    <path
       sodipodi:type="arc"
       style="fill:#ff0a0a;fill-opacity:1;stroke:none"
       id="path4199-02"
       sodipodi:cx="204.43086"
       sodipodi:cy="441.05435"
       sodipodi:rx="3.3079426"
       sodipodi:ry="3.3079426"
       d="m 207.73881,441.05435 a 3.3079426,3.3079426 0 1 1 -6.61589,0 3.3079426,3.3079426 0 1 1 6.61589,0 z"
       transform="translate(344.68764,-17.376095)" />
    <path
       sodipodi:type="arc"
       style="fill:#ff0a0a;fill-opacity:1;stroke:none"
       id="path4199-76"
       sodipodi:cx="204.43086"
       sodipodi:cy="441.05435"
       sodipodi:rx="3.3079426"
       sodipodi:ry="3.3079426"
       d="m 207.73881,441.05435 a 3.3079426,3.3079426 0 1 1 -6.61589,0 3.3079426,3.3079426 0 1 1 6.61589,0 z"
       transform="translate(379.75183,-17.376095)" />
    <path
       sodipodi:type="arc"
       style="fill:#ff0a0a;fill-opacity:1;stroke:none"
       id="path4199-18"
       sodipodi:cx="204.43086"
       sodipodi:cy="441.05435"
       sodipodi:rx="3.3079426"
       sodipodi:ry="3.3079426"
       d="m 207.73881,441.05435 a 3.3079426,3.3079426 0 1 1 -6.61589,0 3.3079426,3.3079426 0 1 1 6.61589,0 z"
       transform="translate(398.27631,-17.376095)" />
    <path
       style="fill:none;stroke:#a3a3a3;stroke-width:1px;stroke-linecap:butt;stroke-linejoin:miter;stroke-opacity:1;marker-end:url(#Arrow2Lend)"
       d="m 100.21465,393.43759 562.69953,0"
       id="path2985-73"
       inkscape:connector-curvature="0" />
    <path
       sodipodi:type="arc"
       style="fill:#4c8cff;fill-opacity:1;stroke:none"
       id="path4199-24"
       sodipodi:cx="204.43086"
       sodipodi:cy="441.05435"
       sodipodi:rx="3.3079426"
       sodipodi:ry="3.3079426"
       d="m 207.73881,441.05435 a 3.3079426,3.3079426 0 1 1 -6.61589,0 3.3079426,3.3079426 0 1 1 6.61589,0 z"
       transform="translate(-52.927082,-47.634377)" />
    <path
       sodipodi:type="arc"
       style="fill:#4c8cff;fill-opacity:1;stroke:none"
       id="path4199-24-4"
       sodipodi:cx="204.43086"
       sodipodi:cy="441.05435"
       sodipodi:rx="3.3079426"
       sodipodi:ry="3.3079426"
       d="m 207.73881,441.05435 a 3.3079426,3.3079426 0 1 1 -6.61589,0 3.3079426,3.3079426 0 1 1 6.61589,0 z"
       transform="translate(3.155601,-47.634377)" />
    <path
       sodipodi:type="arc"
       style="fill:#4c8cff;fill-opacity:1;stroke:none"
       id="path4199-24-0"
       sodipodi:cx="204.43086"
       sodipodi:cy="441.05435"
       sodipodi:rx="3.3079426"
       sodipodi:ry="3.3079426"
       d="m 207.73881,441.05435 a 3.3079426,3.3079426 0 1 1 -6.61589,0 3.3079426,3.3079426 0 1 1 6.61589,0 z"
       transform="translate(100.37865,-47.634377)" />
    <path
       sodipodi:type="arc"
       style="fill:#4c8cff;fill-opacity:1;stroke:none"
       id="path4199-24-44"
       sodipodi:cx="204.43086"
       sodipodi:cy="441.05435"
       sodipodi:rx="3.3079426"
       sodipodi:ry="3.3079426"
       d="m 207.73881,441.05435 a 3.3079426,3.3079426 0 1 1 -6.61589,0 3.3079426,3.3079426 0 1 1 6.61589,0 z"
       transform="translate(164.91836,-47.634377)" />
    <path
       sodipodi:type="arc"
       style="fill:#4c8cff;fill-opacity:1;stroke:none"
       id="path4199-24-3"
       sodipodi:cx="204.43086"
       sodipodi:cy="441.05435"
       sodipodi:rx="3.3079426"
       sodipodi:ry="3.3079426"
       d="m 207.73881,441.05435 a 3.3079426,3.3079426 0 1 1 -6.61589,0 3.3079426,3.3079426 0 1 1 6.61589,0 z"
       transform="translate(191.86068,-47.634377)" />
    <path
       sodipodi:type="arc"
       style="fill:#4c8cff;fill-opacity:1;stroke:none"
       id="path4199-24-2"
       sodipodi:cx="204.43086"
       sodipodi:cy="441.05435"
       sodipodi:rx="3.3079426"
       sodipodi:ry="3.3079426"
       d="m 207.73881,441.05435 a 3.3079426,3.3079426 0 1 1 -6.61589,0 3.3079426,3.3079426 0 1 1 6.61589,0 z"
       transform="translate(260.84871,-47.634377)" />
    <path
       sodipodi:type="arc"
       style="fill:#4c8cff;fill-opacity:1;stroke:none"
       id="path4199-24-443"
       sodipodi:cx="204.43086"
       sodipodi:cy="441.05435"
       sodipodi:rx="3.3079426"
       sodipodi:ry="3.3079426"
       d="m 207.73881,441.05435 a 3.3079426,3.3079426 0 1 1 -6.61589,0 3.3079426,3.3079426 0 1 1 6.61589,0 z"
       transform="translate(302.85522,-47.634377)" />
    <path
       sodipodi:type="arc"
       style="fill:#4c8cff;fill-opacity:1;stroke:none"
       id="path4199-24-6"
       sodipodi:cx="204.43086"
       sodipodi:cy="441.05435"
       sodipodi:rx="3.3079426"
       sodipodi:ry="3.3079426"
       d="m 207.73881,441.05435 a 3.3079426,3.3079426 0 1 1 -6.61589,0 3.3079426,3.3079426 0 1 1 6.61589,0 z"
       transform="translate(394.30678,-47.634377)" />
    <text
       xml:space="preserve"
       style="font-size:10px;font-style:normal;font-variant:normal;font-weight:normal;font-stretch:normal;line-height:125%;letter-spacing:0px;word-spacing:0px;fill:#000000;fill-opacity:1;stroke:none;font-family:Norasi;-inkscape-font-specification:Norasi"
       x="102.37943"
       y="387.96997"
       id="text4753"
       sodipodi:linespacing="125%"><tspan
         sodipodi:role="line"
         id="tspan4755"
         x="102.37943"
         y="387.96997">$q_b$</tspan></text>
    <text
       xml:space="preserve"
       style="font-size:10px;font-style:normal;font-variant:normal;font-weight:normal;font-stretch:normal;line-height:125%;letter-spacing:0px;word-spacing:0px;fill:#000000;fill-opacity:1;stroke:none;font-family:Norasi;-inkscape-font-specification:Norasi"
       x="102.65286"
       y="418.22824"
       id="text4757"
       sodipodi:linespacing="125%"><tspan
         sodipodi:role="line"
         id="tspan4759"
         x="102.65286"
         y="418.22824">$q_a$</tspan></text>
    <path
       sodipodi:type="arc"
       style="fill:#ff0a0a;fill-opacity:0.13242008;fill-rule:nonzero;stroke:#ff0a0a;stroke-opacity:1;filter:url(#filter6159)"
       id="path4851"
       sodipodi:cx="196.4263"
       sodipodi:cy="426.582"
       sodipodi:rx="55.989231"
       sodipodi:ry="13.919974"
       d="m 252.41553,426.582 a 55.989231,13.919974 0 1 1 -111.97846,0 55.989231,13.919974 0 1 1 111.97846,0 z"
       transform="matrix(1.0055249,0,0,0.73026028,-13.589921,112.16236)" />
    <text
       xml:space="preserve"
       style="font-size:10px;font-style:normal;font-variant:normal;font-weight:normal;font-stretch:normal;line-height:125%;letter-spacing:0px;word-spacing:0px;fill:#000000;fill-opacity:1;stroke:none;font-family:Norasi;-inkscape-font-specification:Norasi"
       x="652.28363"
       y="438.10922"
       id="text5775"
       sodipodi:linespacing="125%"><tspan
         sodipodi:role="line"
         id="tspan5777"
         x="652.28363"
         y="438.10922">$t$</tspan></text>
    <path
       sodipodi:type="arc"
       style="fill:#4c8cff;fill-opacity:1;stroke:none"
       id="path4199-24-25"
       sodipodi:cx="204.43086"
       sodipodi:cy="441.05435"
       sodipodi:rx="3.3079426"
       sodipodi:ry="3.3079426"
       d="m 207.73881,441.05435 a 3.3079426,3.3079426 0 1 1 -6.61589,0 3.3079426,3.3079426 0 1 1 6.61589,0 z"
       transform="translate(-32.417838,-47.634377)" />
    <path
       sodipodi:type="arc"
       style="fill:#4c8cff;fill-opacity:1;stroke:none"
       id="path4199-24-8"
       sodipodi:cx="204.43086"
       sodipodi:cy="441.05435"
       sodipodi:rx="3.3079426"
       sodipodi:ry="3.3079426"
       d="m 207.73881,441.05435 a 3.3079426,3.3079426 0 1 1 -6.61589,0 3.3079426,3.3079426 0 1 1 6.61589,0 z"
       transform="translate(-11.908592,-47.634377)" />
    <path
       sodipodi:type="arc"
       style="fill:#4c8cff;fill-opacity:1;stroke:none"
       id="path4199-24-26"
       sodipodi:cx="204.43086"
       sodipodi:cy="441.05435"
       sodipodi:rx="3.3079426"
       sodipodi:ry="3.3079426"
       d="m 207.73881,441.05435 a 3.3079426,3.3079426 0 1 1 -6.61589,0 3.3079426,3.3079426 0 1 1 6.61589,0 z"
       transform="translate(53.588675,-47.634377)" />
    <path
       sodipodi:type="arc"
       style="fill:#4c8cff;fill-opacity:1;stroke:none"
       id="path4199-24-1"
       sodipodi:cx="204.43086"
       sodipodi:cy="441.05435"
       sodipodi:rx="3.3079426"
       sodipodi:ry="3.3079426"
       d="m 207.73881,441.05435 a 3.3079426,3.3079426 0 1 1 -6.61589,0 3.3079426,3.3079426 0 1 1 6.61589,0 z"
       transform="translate(144.22631,-47.634377)" />
    <path
       sodipodi:type="arc"
       style="fill:#4c8cff;fill-opacity:1;stroke:none"
       id="path4199-24-03"
       sodipodi:cx="204.43086"
       sodipodi:cy="441.05435"
       sodipodi:rx="3.3079426"
       sodipodi:ry="3.3079426"
       d="m 207.73881,441.05435 a 3.3079426,3.3079426 0 1 1 -6.61589,0 3.3079426,3.3079426 0 1 1 6.61589,0 z"
       transform="translate(175.32097,-47.634377)" />
    <path
       sodipodi:type="arc"
       style="fill:#4c8cff;fill-opacity:1;stroke:none"
       id="path4199-24-14"
       sodipodi:cx="204.43086"
       sodipodi:cy="441.05435"
       sodipodi:rx="3.3079426"
       sodipodi:ry="3.3079426"
       d="m 207.73881,441.05435 a 3.3079426,3.3079426 0 1 1 -6.61589,0 3.3079426,3.3079426 0 1 1 6.61589,0 z"
       transform="translate(204.43087,-47.634377)" />
    <path
       sodipodi:type="arc"
       style="fill:#4c8cff;fill-opacity:1;stroke:none"
       id="path4199-24-07"
       sodipodi:cx="204.43086"
       sodipodi:cy="441.05435"
       sodipodi:rx="3.3079426"
       sodipodi:ry="3.3079426"
       d="m 207.73881,441.05435 a 3.3079426,3.3079426 0 1 1 -6.61589,0 3.3079426,3.3079426 0 1 1 6.61589,0 z"
       transform="translate(242.803,-47.634377)" />
    <path
       sodipodi:type="arc"
       style="fill:#4c8cff;fill-opacity:1;stroke:none"
       id="path4199-24-82"
       sodipodi:cx="204.43086"
       sodipodi:cy="441.05435"
       sodipodi:rx="3.3079426"
       sodipodi:ry="3.3079426"
       d="m 207.73881,441.05435 a 3.3079426,3.3079426 0 1 1 -6.61589,0 3.3079426,3.3079426 0 1 1 6.61589,0 z"
       transform="translate(269.92813,-47.634377)" />
    <path
       sodipodi:type="arc"
       style="fill:#4c8cff;fill-opacity:1;stroke:none"
       id="path4199-24-16"
       sodipodi:cx="204.43086"
       sodipodi:cy="441.05435"
       sodipodi:rx="3.3079426"
       sodipodi:ry="3.3079426"
       d="m 207.73881,441.05435 a 3.3079426,3.3079426 0 1 1 -6.61589,0 3.3079426,3.3079426 0 1 1 6.61589,0 z"
       transform="translate(357.25782,-47.634377)" />
    <path
       sodipodi:type="arc"
       style="fill:#4c8cff;fill-opacity:1;stroke:none"
       id="path4199-24-7"
       sodipodi:cx="204.43086"
       sodipodi:cy="441.05435"
       sodipodi:rx="3.3079426"
       sodipodi:ry="3.3079426"
       d="m 207.73881,441.05435 a 3.3079426,3.3079426 0 1 1 -6.61589,0 3.3079426,3.3079426 0 1 1 6.61589,0 z"
       transform="translate(383.72136,-47.634377)" />
    <rect
       style="fill:none;stroke:#000000;stroke-width:0.20000000000000001;stroke-linecap:round;stroke-linejoin:round;stroke-miterlimit:4;stroke-opacity:1;stroke-dasharray:none;stroke-dashoffset:0;display:inline"
       id="rect6504"
       width="589.09534"
       height="114.07563"
       x="87.850525"
       y="345.59317" />
    <path
       style="fill:none;stroke:#000000;stroke-width:0.5;stroke-linecap:butt;stroke-linejoin:miter;stroke-miterlimit:4;stroke-opacity:1;stroke-dasharray:none;marker-mid:none;marker-end:url(#Arrow2Lend-0)"
       d="m 206.69412,414.37898 48.26217,-19.70811"
       id="path3284"
       inkscape:connector-type="polyline"
       inkscape:connector-curvature="0"
       inkscape:connection-start="#path4851"
       inkscape:connection-start-point="d4"
       inkscape:connection-end="#path4199-24-26"
       inkscape:connection-end-point="d4" />
    <path
       sodipodi:type="arc"
       style="fill:#4c8cff;fill-opacity:1;stroke:none;display:inline"
       id="path4199-24-443-4"
       sodipodi:cx="204.43086"
       sodipodi:cy="441.05435"
       sodipodi:rx="3.3079426"
       sodipodi:ry="3.3079426"
       d="m 207.73881,441.05435 a 3.3079426,3.3079426 0 1 1 -6.61589,0 3.3079426,3.3079426 0 1 1 6.61589,0 z"
       transform="translate(328.68172,-47.634377)" />
  </g>
  <g
     inkscape:groupmode="layer"
     id="layer3"
     inkscape:label="3"
     style="display:inline">
    <path
       sodipodi:type="arc"
       style="fill:#ff0a0a;fill-opacity:0.13242008;fill-rule:nonzero;stroke:#ff0a0a;stroke-opacity:1;display:inline;filter:url(#filter6163-1)"
       id="path4851-4-7"
       sodipodi:cx="196.4263"
       sodipodi:cy="426.582"
       sodipodi:rx="55.989231"
       sodipodi:ry="13.919974"
       d="m 252.41553,426.582 a 55.989231,13.919974 0 1 1 -111.97846,0 55.989231,13.919974 0 1 1 111.97846,0 z"
       transform="matrix(1.0055249,0,0,0.73026028,32.11061,112.16236)" />
    <path
       style="fill:none;stroke:#000000;stroke-width:0.5;stroke-linecap:butt;stroke-linejoin:miter;stroke-miterlimit:4;stroke-opacity:1;stroke-dasharray:none;marker-end:url(#Arrow2Lend-0)"
       d="m 252.67363,414.40145 49.06631,-19.74616"
       id="path4847"
       inkscape:connector-type="polyline"
       inkscape:connector-curvature="0"
       inkscape:connection-start="#path4851-4-7"
       inkscape:connection-start-point="d4"
       inkscape:connection-end="#path4199-24-0"
       inkscape:connection-end-point="d4" />
    <text
       xml:space="preserve"
       style="font-size:10px;font-style:normal;font-variant:normal;font-weight:normal;font-stretch:normal;line-height:125%;letter-spacing:0px;word-spacing:0px;fill:#000000;fill-opacity:1;stroke:none;font-family:Norasi;-inkscape-font-specification:Norasi"
       x="132.30334"
       y="448.57425"
       id="text5089"
       sodipodi:linespacing="125%"><tspan
         sodipodi:role="line"
         id="tspan5091"
         x="132.30334"
         y="448.57425"
         style="font-size:5px">$\mathcal{B}_{\mathcal{C}, [t_1 - \Delta t, t_1]}$</tspan></text>
    <text
       xml:space="preserve"
       style="font-size:10px;font-style:normal;font-variant:normal;font-weight:normal;font-stretch:normal;line-height:125%;letter-spacing:0px;word-spacing:0px;fill:#000000;fill-opacity:1;stroke:none;font-family:Norasi;-inkscape-font-specification:Norasi"
       x="246.66689"
       y="382.6702"
       id="text5093"
       sodipodi:linespacing="125%"><tspan
         sodipodi:role="line"
         id="tspan5095"
         x="246.66689"
         y="382.6702">$t_1$</tspan></text>
    <text
       xml:space="preserve"
       style="font-size:10px;font-style:normal;font-variant:normal;font-weight:normal;font-stretch:normal;line-height:125%;letter-spacing:0px;word-spacing:0px;fill:#000000;fill-opacity:1;stroke:none;display:inline;font-family:Norasi;-inkscape-font-specification:Norasi"
       x="293.45685"
       y="382.6702"
       id="text5093-69"
       sodipodi:linespacing="125%"><tspan
         sodipodi:role="line"
         id="tspan5095-8"
         x="293.45685"
         y="382.6702">$t_2$</tspan></text>
    <text
       xml:space="preserve"
       style="font-size:10px;font-style:normal;font-variant:normal;font-weight:normal;font-stretch:normal;line-height:125%;letter-spacing:0px;word-spacing:0px;fill:#000000;fill-opacity:1;stroke:none;display:inline;font-family:Norasi;-inkscape-font-specification:Norasi"
       x="435.8812"
       y="372.18341"
       id="text5093-1"
       sodipodi:linespacing="125%"><tspan
         sodipodi:role="line"
         id="tspan5095-5"
         x="435.8812"
         y="372.18341">$t_3$</tspan></text>
    <text
       xml:space="preserve"
       style="font-size:10px;font-style:normal;font-variant:normal;font-weight:normal;font-stretch:normal;line-height:125%;letter-spacing:0px;word-spacing:0px;fill:#000000;fill-opacity:1;stroke:none;display:inline;font-family:Norasi;-inkscape-font-specification:Norasi"
       x="572.83002"
       y="372.18341"
       id="text5093-14"
       sodipodi:linespacing="125%"><tspan
         sodipodi:role="line"
         id="tspan5095-2"
         x="572.83002"
         y="372.18341">$t_4$</tspan></text>
    <path
       sodipodi:type="arc"
       style="fill:#4c8cff;fill-opacity:0.13333333;fill-rule:nonzero;stroke:#4c8cff;stroke-opacity:1;display:inline;filter:url(#filter6163-1-80)"
       id="path4851-4-7-8"
       sodipodi:cx="196.4263"
       sodipodi:cy="426.582"
       sodipodi:rx="55.989231"
       sodipodi:ry="13.919974"
       d="m 252.41553,426.582 a 55.989231,13.919974 0 1 1 -111.97846,0 55.989231,13.919974 0 1 1 111.97846,0 z"
       transform="matrix(1.0055249,0,0,0.73026028,185.3329,81.904084)" />
    <path
       sodipodi:type="arc"
       style="fill:#4c8cff;fill-opacity:0.13333333;fill-rule:nonzero;stroke:#4c8cff;stroke-opacity:1;display:inline;filter:url(#filter6163-1-80-5)"
       id="path4851-4-7-8-7"
       sodipodi:cx="196.4263"
       sodipodi:cy="426.582"
       sodipodi:rx="55.989231"
       sodipodi:ry="13.919974"
       d="m 252.41553,426.582 a 55.989231,13.919974 0 1 1 -111.97846,0 55.989231,13.919974 0 1 1 111.97846,0 z"
       transform="matrix(1.0055249,0,0,0.73026028,319.70701,81.904084)" />
    <path
       style="fill:none;stroke:#000000;stroke-width:0.50000000000000000;stroke-linecap:butt;stroke-linejoin:miter;stroke-opacity:1;stroke-miterlimit:4;stroke-dasharray:none;marker-end:url(#Arrow2Lend-0-1)"
       d="m 388.70794,383.30924 c 15.26557,-17.83138 46.01688,-12.44827 57.13129,7.11028"
       id="path4224"
       inkscape:connector-curvature="0" />
    <path
       style="fill:none;stroke:#000000;stroke-width:0.5;stroke-linecap:butt;stroke-linejoin:miter;stroke-miterlimit:4;stroke-opacity:1;stroke-dasharray:none;marker-end:url(#Arrow2Lend-0-1)"
       d="m 538.11448,402.86197 43.05299,19.45383"
       id="path4420"
       inkscape:connector-type="polyline"
       inkscape:connector-curvature="0"
       inkscape:connection-start="#path4851-4-7-8-7"
       inkscape:connection-start-point="d4"
       inkscape:connection-end="#path4199-76"
       inkscape:connection-end-point="d4" />
    <text
       xml:space="preserve"
       style="font-size:10px;font-style:normal;font-variant:normal;font-weight:normal;font-stretch:normal;line-height:125%;letter-spacing:0px;word-spacing:0px;fill:#000000;fill-opacity:1;stroke:none;display:inline;font-family:Norasi;-inkscape-font-specification:Norasi"
       x="233.86096"
       y="448.57425"
       id="text5089-8"
       sodipodi:linespacing="125%"><tspan
         sodipodi:role="line"
         id="tspan5091-3"
         x="233.86096"
         y="448.57425"
         style="font-size:5px">$\mathcal{B}_{\mathcal{C}, [t_2 - \Delta t, t_2]}$</tspan></text>
    <text
       xml:space="preserve"
       style="font-size:10px;font-style:normal;font-variant:normal;font-weight:normal;font-stretch:normal;line-height:125%;letter-spacing:0px;word-spacing:0px;fill:#000000;fill-opacity:1;stroke:none;display:inline;font-family:Norasi;-inkscape-font-specification:Norasi"
       x="323.55634"
       y="367.72293"
       id="text5089-2"
       sodipodi:linespacing="125%"><tspan
         sodipodi:role="line"
         id="tspan5091-7"
         x="323.55634"
         y="367.72293"
         style="font-size:5px">$\mathcal{B}_{\mathcal{C}, [t_3 - \Delta t, t_3]}$</tspan></text>
    <text
       xml:space="preserve"
       style="font-size:10px;font-style:normal;font-variant:normal;font-weight:normal;font-stretch:normal;line-height:125%;letter-spacing:0px;word-spacing:0px;fill:#000000;fill-opacity:1;stroke:none;display:inline;font-family:Norasi;-inkscape-font-specification:Norasi"
       x="473.27817"
       y="367.72293"
       id="text5089-3"
       sodipodi:linespacing="125%"><tspan
         sodipodi:role="line"
         id="tspan5091-31"
         x="473.27817"
         y="367.72293"
         style="font-size:5px">$\mathcal{B}_{\mathcal{C}, [t_4 - \Delta t, t_4]}$</tspan></text>
  </g>
  <g
     inkscape:groupmode="layer"
     id="layer2"
     inkscape:label="2"
     style="display:inline">
    <path
       sodipodi:type="arc"
       style="fill:#4c8cff;fill-opacity:1;stroke:none"
       id="path4199-24-449"
       sodipodi:cx="204.43086"
       sodipodi:cy="441.05435"
       sodipodi:rx="3.3079426"
       sodipodi:ry="3.3079426"
       d="m 207.73881,441.05435 a 3.3079426,3.3079426 0 1 1 -6.61589,0 3.3079426,3.3079426 0 1 1 6.61589,0 z"
       transform="translate(71.451566,-47.634377)" />
  </g>
</svg>
