<?xml version="1.0" encoding="utf-8" standalone="no"?>
<!DOCTYPE svg PUBLIC "-//W3C//DTD SVG 1.1//EN"
  "http://www.w3.org/Graphics/SVG/1.1/DTD/svg11.dtd">
<!-- Created with matplotlib (http://matplotlib.sourceforge.net/) -->
<svg height="441pt" version="1.1" viewBox="0 0 585 441" width="585pt" xmlns="http://www.w3.org/2000/svg" xmlns:xlink="http://www.w3.org/1999/xlink">
 <defs>
  <style type="text/css">
*{stroke-linecap:square;stroke-linejoin:round;}
  </style>
 </defs>
 <g id="figure_1">
  <g id="patch_1">
   <path d="
M0 441
L585 441
L585 0
L0 0
z
" style="fill:#ffffff;"/>
  </g>
  <g id="axes_1">
   <g id="patch_2">
    <path d="
M73.125 396.9
L526.5 396.9
L526.5 44.1
L73.125 44.1
z
" style="fill:#ffffff;"/>
   </g>
   <g id="PolyCollection_1">
    <defs>
     <path d="
M73.125 -44.1
L73.125 -396.9
L163.8 -396.9
L163.8 -44.1
L163.8 -44.1
L73.125 -44.1
z
" id="C0_0_652ef2921d"/>
    </defs>
    <g clip-path="url(#p5873ec822d)">
     <use style="fill:#000080;opacity:0.15;stroke:#000000;stroke-linecap:butt;" x="0" xlink:href="#C0_0_652ef2921d" y="441.0"/>
    </g>
   </g>
   <g id="PolyCollection_2">
    <defs>
     <path d="
M163.8 -44.1
L163.8 -396.9
L254.475 -396.9
L254.475 -44.1
L254.475 -44.1
L163.8 -44.1
z
" id="C1_0_e4e3020cdb"/>
    </defs>
    <g clip-path="url(#p5873ec822d)">
     <use style="fill:#004dff;opacity:0.15;stroke:#000000;stroke-linecap:butt;" x="0" xlink:href="#C1_0_e4e3020cdb" y="441.0"/>
    </g>
   </g>
   <g id="PolyCollection_3">
    <defs>
     <path d="
M254.475 -44.1
L254.475 -396.9
L345.15 -396.9
L345.15 -44.1
L345.15 -44.1
L254.475 -44.1
z
" id="C2_0_a921b13bfc"/>
    </defs>
    <g clip-path="url(#p5873ec822d)">
     <use style="fill:#29ffce;opacity:0.15;stroke:#000000;stroke-linecap:butt;" x="0" xlink:href="#C2_0_a921b13bfc" y="441.0"/>
    </g>
   </g>
   <g id="PolyCollection_4">
    <defs>
     <path d="
M345.15 -44.1
L345.15 -396.9
L435.825 -396.9
L435.825 -44.1
L435.825 -44.1
L345.15 -44.1
z
" id="C3_0_50cd1b933e"/>
    </defs>
    <g clip-path="url(#p5873ec822d)">
     <use style="fill:#ceff29;opacity:0.15;stroke:#000000;stroke-linecap:butt;" x="0" xlink:href="#C3_0_50cd1b933e" y="441.0"/>
    </g>
   </g>
   <g id="PolyCollection_5">
    <defs>
     <path d="
M435.825 -44.1
L435.825 -396.9
L526.5 -396.9
L526.5 -44.1
L526.5 -44.1
L435.825 -44.1
z
" id="C4_0_7447bed151"/>
    </defs>
    <g clip-path="url(#p5873ec822d)">
     <use style="fill:#ff6800;opacity:0.15;stroke:#000000;stroke-linecap:butt;" x="0" xlink:href="#C4_0_7447bed151" y="441.0"/>
    </g>
   </g>
   <g id="line2d_1">
    <path clip-path="url(#p5873ec822d)" d="
M73.125 186.047
L163.8 186.047" style="fill:none;stroke:#000000;stroke-dasharray:6.000000,6.000000;stroke-dashoffset:0.0;stroke-linecap:butt;stroke-width:2;"/>
   </g>
   <g id="line2d_2">
    <path clip-path="url(#p5873ec822d)" d="
M163.8 146.579
L254.475 146.579" style="fill:none;stroke:#000000;stroke-dasharray:6.000000,6.000000;stroke-dashoffset:0.0;stroke-linecap:butt;stroke-width:2;"/>
   </g>
   <g id="line2d_3">
    <path clip-path="url(#p5873ec822d)" d="
M254.475 304.671
L345.15 304.671" style="fill:none;stroke:#000000;stroke-dasharray:6.000000,6.000000;stroke-dashoffset:0.0;stroke-linecap:butt;stroke-width:2;"/>
   </g>
   <g id="line2d_4">
    <path clip-path="url(#p5873ec822d)" d="
M345.15 80.8529
L435.825 80.8529" style="fill:none;stroke:#000000;stroke-dasharray:6.000000,6.000000;stroke-dashoffset:0.0;stroke-linecap:butt;stroke-width:2;"/>
   </g>
   <g id="line2d_5">
    <path clip-path="url(#p5873ec822d)" d="
M435.825 193.066
L526.5 193.066" style="fill:none;stroke:#000000;stroke-dasharray:6.000000,6.000000;stroke-dashoffset:0.0;stroke-linecap:butt;stroke-width:2;"/>
   </g>
   <g id="line2d_6">
    <defs>
     <path d="
M0 3
C0.795609 3 1.55874 2.6839 2.12132 2.12132
C2.6839 1.55874 3 0.795609 3 0
C3 -0.795609 2.6839 -1.55874 2.12132 -2.12132
C1.55874 -2.6839 0.795609 -3 0 -3
C-0.795609 -3 -1.55874 -2.6839 -2.12132 -2.12132
C-2.6839 -1.55874 -3 -0.795609 -3 0
C-3 0.795609 -2.6839 1.55874 -2.12132 2.12132
C-1.55874 2.6839 -0.795609 3 0 3
z
" id="m97ccdbe907" style="stroke:#000000;stroke-linecap:butt;stroke-width:0.5;"/>
    </defs>
    <g clip-path="url(#p5873ec822d)">
     <use style="fill:#0000ff;stroke:#000000;stroke-linecap:butt;stroke-width:0.5;" x="118.4625" xlink:href="#m97ccdbe907" y="359.154653388"/>
    </g>
   </g>
   <g id="line2d_7">
    <defs>
     <path d="
M0 1.5
C0.397805 1.5 0.77937 1.34195 1.06066 1.06066
C1.34195 0.77937 1.5 0.397805 1.5 0
C1.5 -0.397805 1.34195 -0.77937 1.06066 -1.06066
C0.77937 -1.34195 0.397805 -1.5 0 -1.5
C-0.397805 -1.5 -0.77937 -1.34195 -1.06066 -1.06066
C-1.34195 -0.77937 -1.5 -0.397805 -1.5 0
C-1.5 0.397805 -1.34195 0.77937 -1.06066 1.06066
C-0.77937 1.34195 -0.397805 1.5 0 1.5
z
" id="mc0debf2262" style="stroke:#bf00bf;stroke-linecap:butt;stroke-width:0.5;"/>
    </defs>
    <g clip-path="url(#p5873ec822d)">
     <use style="fill:#bf00bf;stroke:#bf00bf;stroke-linecap:butt;stroke-width:0.5;" x="118.4625" xlink:href="#mc0debf2262" y="361.062082066"/>
    </g>
   </g>
   <g id="line2d_8">
    <g clip-path="url(#p5873ec822d)">
     <use style="fill:#bf00bf;stroke:#bf00bf;stroke-linecap:butt;stroke-width:0.5;" x="118.4625" xlink:href="#mc0debf2262" y="357.24722471"/>
    </g>
   </g>
   <g id="line2d_9">
    <path clip-path="url(#p5873ec822d)" d="
M73.125 396.9
L73.125 79.38" style="fill:none;opacity:0.3;stroke:#808080;"/>
   </g>
   <g id="line2d_10">
    <path clip-path="url(#p5873ec822d)" d="
M163.8 396.9
L163.8 79.38" style="fill:none;opacity:0.3;stroke:#808080;"/>
   </g>
   <g id="line2d_11">
    <g clip-path="url(#p5873ec822d)">
     <use style="fill:#0000ff;stroke:#000000;stroke-linecap:butt;stroke-width:0.5;" x="209.1375" xlink:href="#m97ccdbe907" y="263.414088984"/>
    </g>
   </g>
   <g id="line2d_12">
    <g clip-path="url(#p5873ec822d)">
     <use style="fill:#bf00bf;stroke:#bf00bf;stroke-linecap:butt;stroke-width:0.5;" x="209.1375" xlink:href="#mc0debf2262" y="326.665375315"/>
    </g>
   </g>
   <g id="line2d_13">
    <g clip-path="url(#p5873ec822d)">
     <use style="fill:#bf00bf;stroke:#bf00bf;stroke-linecap:butt;stroke-width:0.5;" x="209.1375" xlink:href="#mc0debf2262" y="200.162802652"/>
    </g>
   </g>
   <g id="line2d_14">
    <path clip-path="url(#p5873ec822d)" d="
M163.8 396.9
L163.8 79.38" style="fill:none;opacity:0.3;stroke:#808080;"/>
   </g>
   <g id="line2d_15">
    <path clip-path="url(#p5873ec822d)" d="
M254.475 396.9
L254.475 79.38" style="fill:none;opacity:0.3;stroke:#808080;"/>
   </g>
   <g id="line2d_16">
    <g clip-path="url(#p5873ec822d)">
     <use style="fill:#0000ff;stroke:#000000;stroke-linecap:butt;stroke-width:0.5;" x="299.8125" xlink:href="#m97ccdbe907" y="335.263862146"/>
    </g>
   </g>
   <g id="line2d_17">
    <g clip-path="url(#p5873ec822d)">
     <use style="fill:#bf00bf;stroke:#bf00bf;stroke-linecap:butt;stroke-width:0.5;" x="299.8125" xlink:href="#mc0debf2262" y="383.927258958"/>
    </g>
   </g>
   <g id="line2d_18">
    <g clip-path="url(#p5873ec822d)">
     <use style="fill:#bf00bf;stroke:#bf00bf;stroke-linecap:butt;stroke-width:0.5;" x="299.8125" xlink:href="#mc0debf2262" y="286.600465334"/>
    </g>
   </g>
   <g id="line2d_19">
    <path clip-path="url(#p5873ec822d)" d="
M254.475 396.9
L254.475 79.38" style="fill:none;opacity:0.3;stroke:#808080;"/>
   </g>
   <g id="line2d_20">
    <path clip-path="url(#p5873ec822d)" d="
M345.15 396.9
L345.15 79.38" style="fill:none;opacity:0.3;stroke:#808080;"/>
   </g>
   <g id="line2d_21">
    <g clip-path="url(#p5873ec822d)">
     <use style="fill:#0000ff;stroke:#000000;stroke-linecap:butt;stroke-width:0.5;" x="390.4875" xlink:href="#m97ccdbe907" y="313.095486601"/>
    </g>
   </g>
   <g id="line2d_22">
    <g clip-path="url(#p5873ec822d)">
     <use style="fill:#bf00bf;stroke:#bf00bf;stroke-linecap:butt;stroke-width:0.5;" x="390.4875" xlink:href="#mc0debf2262" y="383.323190343"/>
    </g>
   </g>
   <g id="line2d_23">
    <g clip-path="url(#p5873ec822d)">
     <use style="fill:#bf00bf;stroke:#bf00bf;stroke-linecap:butt;stroke-width:0.5;" x="390.4875" xlink:href="#mc0debf2262" y="242.867782858"/>
    </g>
   </g>
   <g id="line2d_24">
    <path clip-path="url(#p5873ec822d)" d="
M345.15 396.9
L345.15 79.38" style="fill:none;opacity:0.3;stroke:#808080;"/>
   </g>
   <g id="line2d_25">
    <path clip-path="url(#p5873ec822d)" d="
M435.825 396.9
L435.825 79.38" style="fill:none;opacity:0.3;stroke:#808080;"/>
   </g>
   <g id="line2d_26">
    <g clip-path="url(#p5873ec822d)">
     <use style="fill:#0000ff;stroke:#000000;stroke-linecap:butt;stroke-width:0.5;" x="481.1625" xlink:href="#m97ccdbe907" y="302.555027251"/>
    </g>
   </g>
   <g id="line2d_27">
    <g clip-path="url(#p5873ec822d)">
     <use style="fill:#bf00bf;stroke:#bf00bf;stroke-linecap:butt;stroke-width:0.5;" x="481.1625" xlink:href="#mc0debf2262" y="336.244904603"/>
    </g>
   </g>
   <g id="line2d_28">
    <g clip-path="url(#p5873ec822d)">
     <use style="fill:#bf00bf;stroke:#bf00bf;stroke-linecap:butt;stroke-width:0.5;" x="481.1625" xlink:href="#mc0debf2262" y="268.865149899"/>
    </g>
   </g>
   <g id="line2d_29">
    <path clip-path="url(#p5873ec822d)" d="
M435.825 396.9
L435.825 79.38" style="fill:none;opacity:0.3;stroke:#808080;"/>
   </g>
   <g id="line2d_30">
    <path clip-path="url(#p5873ec822d)" d="
M526.5 396.9
L526.5 79.38" style="fill:none;opacity:0.3;stroke:#808080;"/>
   </g>
   <g id="matplotlib.axis_1">
    <g id="xtick_1">
     <g id="line2d_31">
      <defs>
       <path d="
M0 0
L0 -4" id="m0012dd4eef" style="stroke:#000000;stroke-linecap:butt;stroke-width:0.5;"/>
      </defs>
      <g>
       <use style="stroke:#000000;stroke-linecap:butt;stroke-width:0.5;" x="118.4625" xlink:href="#m0012dd4eef" y="396.9"/>
      </g>
     </g>
     <g id="line2d_32">
      <defs>
       <path d="
M0 0
L0 4" id="m476344969c" style="stroke:#000000;stroke-linecap:butt;stroke-width:0.5;"/>
      </defs>
      <g>
       <use style="stroke:#000000;stroke-linecap:butt;stroke-width:0.5;" x="118.4625" xlink:href="#m476344969c" y="44.1"/>
      </g>
     </g>
    </g>
    <g id="xtick_2">
     <g id="line2d_33">
      <g>
       <use style="stroke:#000000;stroke-linecap:butt;stroke-width:0.5;" x="209.1375" xlink:href="#m0012dd4eef" y="396.9"/>
      </g>
     </g>
     <g id="line2d_34">
      <g>
       <use style="stroke:#000000;stroke-linecap:butt;stroke-width:0.5;" x="209.1375" xlink:href="#m476344969c" y="44.1"/>
      </g>
     </g>
    </g>
    <g id="xtick_3">
     <g id="line2d_35">
      <g>
       <use style="stroke:#000000;stroke-linecap:butt;stroke-width:0.5;" x="299.8125" xlink:href="#m0012dd4eef" y="396.9"/>
      </g>
     </g>
     <g id="line2d_36">
      <g>
       <use style="stroke:#000000;stroke-linecap:butt;stroke-width:0.5;" x="299.8125" xlink:href="#m476344969c" y="44.1"/>
      </g>
     </g>
    </g>
    <g id="xtick_4">
     <g id="line2d_37">
      <g>
       <use style="stroke:#000000;stroke-linecap:butt;stroke-width:0.5;" x="390.4875" xlink:href="#m0012dd4eef" y="396.9"/>
      </g>
     </g>
     <g id="line2d_38">
      <g>
       <use style="stroke:#000000;stroke-linecap:butt;stroke-width:0.5;" x="390.4875" xlink:href="#m476344969c" y="44.1"/>
      </g>
     </g>
    </g>
    <g id="xtick_5">
     <g id="line2d_39">
      <g>
       <use style="stroke:#000000;stroke-linecap:butt;stroke-width:0.5;" x="481.1625" xlink:href="#m0012dd4eef" y="396.9"/>
      </g>
     </g>
     <g id="line2d_40">
      <g>
       <use style="stroke:#000000;stroke-linecap:butt;stroke-width:0.5;" x="481.1625" xlink:href="#m476344969c" y="44.1"/>
      </g>
     </g>
    </g>
   </g>
   <g id="matplotlib.axis_2">
    <g id="ytick_1">
     <g id="line2d_41">
      <defs>
       <path d="
M0 0
L4 0" id="me8a85f7bf6" style="stroke:#000000;stroke-linecap:butt;stroke-width:0.5;"/>
      </defs>
      <g>
       <use style="stroke:#000000;stroke-linecap:butt;stroke-width:0.5;" x="73.125" xlink:href="#me8a85f7bf6" y="360.154889193"/>
      </g>
     </g>
     <g id="line2d_42">
      <defs>
       <path d="
M0 0
L-4 0" id="m1a32005dea" style="stroke:#000000;stroke-linecap:butt;stroke-width:0.5;"/>
      </defs>
      <g>
       <use style="stroke:#000000;stroke-linecap:butt;stroke-width:0.5;" x="526.5" xlink:href="#m1a32005dea" y="360.154889193"/>
      </g>
     </g>
     <g id="text_1">
      <!-- 0 -->
      <defs>
       <path d="
M31.7812 66.4062
Q24.1719 66.4062 20.3281 58.9062
Q16.5 51.4219 16.5 36.375
Q16.5 21.3906 20.3281 13.8906
Q24.1719 6.39062 31.7812 6.39062
Q39.4531 6.39062 43.2812 13.8906
Q47.125 21.3906 47.125 36.375
Q47.125 51.4219 43.2812 58.9062
Q39.4531 66.4062 31.7812 66.4062
M31.7812 74.2188
Q44.0469 74.2188 50.5156 64.5156
Q56.9844 54.8281 56.9844 36.375
Q56.9844 17.9688 50.5156 8.26562
Q44.0469 -1.42188 31.7812 -1.42188
Q19.5312 -1.42188 13.0625 8.26562
Q6.59375 17.9688 6.59375 36.375
Q6.59375 54.8281 13.0625 64.5156
Q19.5312 74.2188 31.7812 74.2188" id="DejaVuSans-30"/>
      </defs>
      <g transform="translate(63.078125 364.522701693)scale(0.12 -0.12)">
       <use xlink:href="#DejaVuSans-30"/>
      </g>
     </g>
    </g>
    <g id="ytick_2">
     <g id="line2d_43">
      <g>
       <use style="stroke:#000000;stroke-linecap:butt;stroke-width:0.5;" x="73.125" xlink:href="#me8a85f7bf6" y="282.350348672"/>
      </g>
     </g>
     <g id="line2d_44">
      <g>
       <use style="stroke:#000000;stroke-linecap:butt;stroke-width:0.5;" x="526.5" xlink:href="#m1a32005dea" y="282.350348672"/>
      </g>
     </g>
     <g id="text_2">
      <!-- 10000 -->
      <defs>
       <path d="
M12.4062 8.29688
L28.5156 8.29688
L28.5156 63.9219
L10.9844 60.4062
L10.9844 69.3906
L28.4219 72.9062
L38.2812 72.9062
L38.2812 8.29688
L54.3906 8.29688
L54.3906 0
L12.4062 0
z
" id="DejaVuSans-31"/>
      </defs>
      <g transform="translate(33.065 286.718161172)scale(0.12 -0.12)">
       <use xlink:href="#DejaVuSans-31"/>
       <use x="63.623046875" xlink:href="#DejaVuSans-30"/>
       <use x="127.24609375" xlink:href="#DejaVuSans-30"/>
       <use x="190.869140625" xlink:href="#DejaVuSans-30"/>
       <use x="254.4921875" xlink:href="#DejaVuSans-30"/>
      </g>
     </g>
    </g>
    <g id="ytick_3">
     <g id="line2d_45">
      <g>
       <use style="stroke:#000000;stroke-linecap:butt;stroke-width:0.5;" x="73.125" xlink:href="#me8a85f7bf6" y="204.545808152"/>
      </g>
     </g>
     <g id="line2d_46">
      <g>
       <use style="stroke:#000000;stroke-linecap:butt;stroke-width:0.5;" x="526.5" xlink:href="#m1a32005dea" y="204.545808152"/>
      </g>
     </g>
     <g id="text_3">
      <!-- 20000 -->
      <defs>
       <path d="
M19.1875 8.29688
L53.6094 8.29688
L53.6094 0
L7.32812 0
L7.32812 8.29688
Q12.9375 14.1094 22.625 23.8906
Q32.3281 33.6875 34.8125 36.5312
Q39.5469 41.8438 41.4219 45.5312
Q43.3125 49.2188 43.3125 52.7812
Q43.3125 58.5938 39.2344 62.25
Q35.1562 65.9219 28.6094 65.9219
Q23.9688 65.9219 18.8125 64.3125
Q13.6719 62.7031 7.8125 59.4219
L7.8125 69.3906
Q13.7656 71.7812 18.9375 73
Q24.125 74.2188 28.4219 74.2188
Q39.75 74.2188 46.4844 68.5469
Q53.2188 62.8906 53.2188 53.4219
Q53.2188 48.9219 51.5312 44.8906
Q49.8594 40.875 45.4062 35.4062
Q44.1875 33.9844 37.6406 27.2188
Q31.1094 20.4531 19.1875 8.29688" id="DejaVuSans-32"/>
      </defs>
      <g transform="translate(32.62625 208.913620652)scale(0.12 -0.12)">
       <use xlink:href="#DejaVuSans-32"/>
       <use x="63.623046875" xlink:href="#DejaVuSans-30"/>
       <use x="127.24609375" xlink:href="#DejaVuSans-30"/>
       <use x="190.869140625" xlink:href="#DejaVuSans-30"/>
       <use x="254.4921875" xlink:href="#DejaVuSans-30"/>
      </g>
     </g>
    </g>
    <g id="ytick_4">
     <g id="line2d_47">
      <g>
       <use style="stroke:#000000;stroke-linecap:butt;stroke-width:0.5;" x="73.125" xlink:href="#me8a85f7bf6" y="126.741267632"/>
      </g>
     </g>
     <g id="line2d_48">
      <g>
       <use style="stroke:#000000;stroke-linecap:butt;stroke-width:0.5;" x="526.5" xlink:href="#m1a32005dea" y="126.741267632"/>
      </g>
     </g>
     <g id="text_4">
      <!-- 30000 -->
      <defs>
       <path d="
M40.5781 39.3125
Q47.6562 37.7969 51.625 33
Q55.6094 28.2188 55.6094 21.1875
Q55.6094 10.4062 48.1875 4.48438
Q40.7656 -1.42188 27.0938 -1.42188
Q22.5156 -1.42188 17.6562 -0.515625
Q12.7969 0.390625 7.625 2.20312
L7.625 11.7188
Q11.7188 9.32812 16.5938 8.10938
Q21.4844 6.89062 26.8125 6.89062
Q36.0781 6.89062 40.9375 10.5469
Q45.7969 14.2031 45.7969 21.1875
Q45.7969 27.6406 41.2812 31.2656
Q36.7656 34.9062 28.7188 34.9062
L20.2188 34.9062
L20.2188 43.0156
L29.1094 43.0156
Q36.375 43.0156 40.2344 45.9219
Q44.0938 48.8281 44.0938 54.2969
Q44.0938 59.9062 40.1094 62.9062
Q36.1406 65.9219 28.7188 65.9219
Q24.6562 65.9219 20.0156 65.0312
Q15.375 64.1562 9.8125 62.3125
L9.8125 71.0938
Q15.4375 72.6562 20.3438 73.4375
Q25.25 74.2188 29.5938 74.2188
Q40.8281 74.2188 47.3594 69.1094
Q53.9062 64.0156 53.9062 55.3281
Q53.9062 49.2656 50.4375 45.0938
Q46.9688 40.9219 40.5781 39.3125" id="DejaVuSans-33"/>
      </defs>
      <g transform="translate(32.661875 131.109080132)scale(0.12 -0.12)">
       <use xlink:href="#DejaVuSans-33"/>
       <use x="63.623046875" xlink:href="#DejaVuSans-30"/>
       <use x="127.24609375" xlink:href="#DejaVuSans-30"/>
       <use x="190.869140625" xlink:href="#DejaVuSans-30"/>
       <use x="254.4921875" xlink:href="#DejaVuSans-30"/>
      </g>
     </g>
    </g>
    <g id="ytick_5">
     <g id="line2d_49">
      <g>
       <use style="stroke:#000000;stroke-linecap:butt;stroke-width:0.5;" x="73.125" xlink:href="#me8a85f7bf6" y="48.9367271114"/>
      </g>
     </g>
     <g id="line2d_50">
      <g>
       <use style="stroke:#000000;stroke-linecap:butt;stroke-width:0.5;" x="526.5" xlink:href="#m1a32005dea" y="48.9367271114"/>
      </g>
     </g>
     <g id="text_5">
      <!-- 40000 -->
      <defs>
       <path d="
M37.7969 64.3125
L12.8906 25.3906
L37.7969 25.3906
z

M35.2031 72.9062
L47.6094 72.9062
L47.6094 25.3906
L58.0156 25.3906
L58.0156 17.1875
L47.6094 17.1875
L47.6094 0
L37.7969 0
L37.7969 17.1875
L4.89062 17.1875
L4.89062 26.7031
z
" id="DejaVuSans-34"/>
      </defs>
      <g transform="translate(32.33375 53.3045396114)scale(0.12 -0.12)">
       <use xlink:href="#DejaVuSans-34"/>
       <use x="63.623046875" xlink:href="#DejaVuSans-30"/>
       <use x="127.24609375" xlink:href="#DejaVuSans-30"/>
       <use x="190.869140625" xlink:href="#DejaVuSans-30"/>
       <use x="254.4921875" xlink:href="#DejaVuSans-30"/>
      </g>
     </g>
    </g>
   </g>
   <g id="patch_3">
    <path d="
M73.125 44.1
L526.5 44.1" style="fill:none;stroke:#000000;"/>
   </g>
   <g id="patch_4">
    <path d="
M526.5 396.9
L526.5 44.1" style="fill:none;stroke:#000000;"/>
   </g>
   <g id="patch_5">
    <path d="
M73.125 396.9
L526.5 396.9" style="fill:none;stroke:#000000;"/>
   </g>
   <g id="patch_6">
    <path d="
M73.125 396.9
L73.125 44.1" style="fill:none;stroke:#000000;"/>
   </g>
   <g id="text_6">
    <g id="patch_7">
     <path d="
M114.972 69.3153
L121.953 69.3153
L121.953 54.1647
L114.972 54.1647
z
" style="fill:#ffffff;opacity:0.8;stroke:#ffffff;"/>
    </g>
    <!-- J -->
    <defs>
     <path d="
M9.8125 72.9062
L19.6719 72.9062
L19.6719 5.07812
Q19.6719 -8.10938 14.6719 -14.0625
Q9.67188 -20.0156 -1.42188 -20.0156
L-5.17188 -20.0156
L-5.17188 -11.7188
L-2.09375 -11.7188
Q4.4375 -11.7188 7.125 -8.04688
Q9.8125 -4.39062 9.8125 5.07812
z
" id="DejaVuSans-4a"/>
    </defs>
    <g transform="translate(116.971875 64.9134375)scale(0.12 -0.12)">
     <use xlink:href="#DejaVuSans-4a"/>
    </g>
   </g>
   <g id="text_7">
    <g id="patch_8">
     <path d="
M203.827 68.1144
L214.448 68.1144
L214.448 55.3656
L203.827 55.3656
z
" style="fill:#ffffff;opacity:0.8;stroke:#ffffff;"/>
    </g>
    <!-- N -->
    <defs>
     <path d="
M9.8125 72.9062
L23.0938 72.9062
L55.4219 11.9219
L55.4219 72.9062
L64.9844 72.9062
L64.9844 0
L51.7031 0
L19.3906 60.9844
L19.3906 0
L9.8125 0
z
" id="DejaVuSans-4e"/>
    </defs>
    <g transform="translate(205.8271875 66.114375)scale(0.12 -0.12)">
     <use xlink:href="#DejaVuSans-4e"/>
    </g>
   </g>
   <g id="text_8">
    <g id="patch_9">
     <path d="
M293.805 68.1144
L305.82 68.1144
L305.82 55.3656
L293.805 55.3656
z
" style="fill:#ffffff;opacity:0.8;stroke:#ffffff;"/>
    </g>
    <!-- V -->
    <defs>
     <path d="
M28.6094 0
L0.78125 72.9062
L11.0781 72.9062
L34.1875 11.5312
L57.3281 72.9062
L67.5781 72.9062
L39.7969 0
z
" id="DejaVuSans-56"/>
    </defs>
    <g transform="translate(295.8046875 66.114375)scale(0.12 -0.12)">
     <use xlink:href="#DejaVuSans-56"/>
    </g>
   </g>
   <g id="text_9">
    <g id="patch_10">
     <path d="
M385.08 68.1144
L395.895 68.1144
L395.895 55.3656
L385.08 55.3656
z
" style="fill:#ffffff;opacity:0.8;stroke:#ffffff;"/>
    </g>
    <!-- R -->
    <defs>
     <path d="
M44.3906 34.1875
Q47.5625 33.1094 50.5625 29.5938
Q53.5625 26.0781 56.5938 19.9219
L66.6094 0
L56 0
L46.6875 18.7031
Q43.0625 26.0312 39.6719 28.4219
Q36.2812 30.8125 30.4219 30.8125
L19.6719 30.8125
L19.6719 0
L9.8125 0
L9.8125 72.9062
L32.0781 72.9062
Q44.5781 72.9062 50.7344 67.6719
Q56.8906 62.4531 56.8906 51.9062
Q56.8906 45.0156 53.6875 40.4688
Q50.4844 35.9375 44.3906 34.1875
M19.6719 64.7969
L19.6719 38.9219
L32.0781 38.9219
Q39.2031 38.9219 42.8438 42.2188
Q46.4844 45.5156 46.4844 51.9062
Q46.4844 58.2969 42.8438 61.5469
Q39.2031 64.7969 32.0781 64.7969
z
" id="DejaVuSans-52"/>
    </defs>
    <g transform="translate(387.0796875 66.114375)scale(0.12 -0.12)">
     <use xlink:href="#DejaVuSans-52"/>
    </g>
   </g>
   <g id="text_10">
    <g id="patch_11">
     <path d="
M473.074 68.3844
L489.251 68.3844
L489.251 55.0956
L473.074 55.0956
z
" style="fill:#ffffff;opacity:0.8;stroke:#ffffff;"/>
    </g>
    <!-- all -->
    <defs>
     <path d="
M9.42188 75.9844
L18.4062 75.9844
L18.4062 0
L9.42188 0
z
" id="DejaVuSans-6c"/>
     <path d="
M34.2812 27.4844
Q23.3906 27.4844 19.1875 25
Q14.9844 22.5156 14.9844 16.5
Q14.9844 11.7188 18.1406 8.90625
Q21.2969 6.10938 26.7031 6.10938
Q34.1875 6.10938 38.7031 11.4062
Q43.2188 16.7031 43.2188 25.4844
L43.2188 27.4844
z

M52.2031 31.2031
L52.2031 0
L43.2188 0
L43.2188 8.29688
Q40.1406 3.32812 35.5469 0.953125
Q30.9531 -1.42188 24.3125 -1.42188
Q15.9219 -1.42188 10.9531 3.29688
Q6 8.01562 6 15.9219
Q6 25.1406 12.1719 29.8281
Q18.3594 34.5156 30.6094 34.5156
L43.2188 34.5156
L43.2188 35.4062
Q43.2188 41.6094 39.1406 45
Q35.0625 48.3906 27.6875 48.3906
Q23 48.3906 18.5469 47.2656
Q14.1094 46.1406 10.0156 43.8906
L10.0156 52.2031
Q14.9375 54.1094 19.5781 55.0469
Q24.2188 56 28.6094 56
Q40.4844 56 46.3438 49.8438
Q52.2031 43.7031 52.2031 31.2031" id="DejaVuSans-61"/>
    </defs>
    <g transform="translate(475.074375 66.21375)scale(0.12 -0.12)">
     <use xlink:href="#DejaVuSans-61"/>
     <use x="61.279296875" xlink:href="#DejaVuSans-6c"/>
     <use x="89.0625" xlink:href="#DejaVuSans-6c"/>
    </g>
   </g>
   <g id="text_11">
    <!-- wn BCs ratio [substitutions=tbgs, substrings=0] -->
    <defs>
     <path d="
M45.4062 27.9844
Q45.4062 37.75 41.375 43.1094
Q37.3594 48.4844 30.0781 48.4844
Q22.8594 48.4844 18.8281 43.1094
Q14.7969 37.75 14.7969 27.9844
Q14.7969 18.2656 18.8281 12.8906
Q22.8594 7.51562 30.0781 7.51562
Q37.3594 7.51562 41.375 12.8906
Q45.4062 18.2656 45.4062 27.9844
M54.3906 6.78125
Q54.3906 -7.17188 48.1875 -13.9844
Q42 -20.7969 29.2031 -20.7969
Q24.4688 -20.7969 20.2656 -20.0938
Q16.0625 -19.3906 12.1094 -17.9219
L12.1094 -9.1875
Q16.0625 -11.3281 19.9219 -12.3438
Q23.7812 -13.375 27.7812 -13.375
Q36.625 -13.375 41.0156 -8.76562
Q45.4062 -4.15625 45.4062 5.17188
L45.4062 9.625
Q42.625 4.78125 38.2812 2.39062
Q33.9375 0 27.875 0
Q17.8281 0 11.6719 7.65625
Q5.51562 15.3281 5.51562 27.9844
Q5.51562 40.6719 11.6719 48.3281
Q17.8281 56 27.875 56
Q33.9375 56 38.2812 53.6094
Q42.625 51.2188 45.4062 46.3906
L45.4062 54.6875
L54.3906 54.6875
z
" id="DejaVuSans-67"/>
     <path d="
M11.7188 12.4062
L22.0156 12.4062
L22.0156 4
L14.0156 -11.625
L7.71875 -11.625
L11.7188 4
z
" id="DejaVuSans-2c"/>
     <path d="
M10.5938 45.4062
L73.1875 45.4062
L73.1875 37.2031
L10.5938 37.2031
z

M10.5938 25.4844
L73.1875 25.4844
L73.1875 17.1875
L10.5938 17.1875
z
" id="DejaVuSans-3d"/>
     <path d="
M30.6094 48.3906
Q23.3906 48.3906 19.1875 42.75
Q14.9844 37.1094 14.9844 27.2969
Q14.9844 17.4844 19.1562 11.8438
Q23.3438 6.20312 30.6094 6.20312
Q37.7969 6.20312 41.9844 11.8594
Q46.1875 17.5312 46.1875 27.2969
Q46.1875 37.0156 41.9844 42.7031
Q37.7969 48.3906 30.6094 48.3906
M30.6094 56
Q42.3281 56 49.0156 48.375
Q55.7188 40.7656 55.7188 27.2969
Q55.7188 13.875 49.0156 6.21875
Q42.3281 -1.42188 30.6094 -1.42188
Q18.8438 -1.42188 12.1719 6.21875
Q5.51562 13.875 5.51562 27.2969
Q5.51562 40.7656 12.1719 48.375
Q18.8438 56 30.6094 56" id="DejaVuSans-6f"/>
     <path d="
M8.59375 75.9844
L29.2969 75.9844
L29.2969 69
L17.5781 69
L17.5781 -6.20312
L29.2969 -6.20312
L29.2969 -13.1875
L8.59375 -13.1875
z
" id="DejaVuSans-5b"/>
     <path d="
M54.8906 33.0156
L54.8906 0
L45.9062 0
L45.9062 32.7188
Q45.9062 40.4844 42.875 44.3281
Q39.8438 48.1875 33.7969 48.1875
Q26.5156 48.1875 22.3125 43.5469
Q18.1094 38.9219 18.1094 30.9062
L18.1094 0
L9.07812 0
L9.07812 54.6875
L18.1094 54.6875
L18.1094 46.1875
Q21.3438 51.125 25.7031 53.5625
Q30.0781 56 35.7969 56
Q45.2188 56 50.0469 50.1719
Q54.8906 44.3438 54.8906 33.0156" id="DejaVuSans-6e"/>
     <path d="
M30.4219 75.9844
L30.4219 -13.1875
L9.71875 -13.1875
L9.71875 -6.20312
L21.3906 -6.20312
L21.3906 69
L9.71875 69
L9.71875 75.9844
z
" id="DejaVuSans-5d"/>
     <path id="DejaVuSans-20"/>
     <path d="
M19.6719 34.8125
L19.6719 8.10938
L35.5 8.10938
Q43.4531 8.10938 47.2812 11.4062
Q51.125 14.7031 51.125 21.4844
Q51.125 28.3281 47.2812 31.5625
Q43.4531 34.8125 35.5 34.8125
z

M19.6719 64.7969
L19.6719 42.8281
L34.2812 42.8281
Q41.5 42.8281 45.0312 45.5312
Q48.5781 48.25 48.5781 53.8125
Q48.5781 59.3281 45.0312 62.0625
Q41.5 64.7969 34.2812 64.7969
z

M9.8125 72.9062
L35.0156 72.9062
Q46.2969 72.9062 52.3906 68.2188
Q58.5 63.5312 58.5 54.8906
Q58.5 48.1875 55.375 44.2344
Q52.25 40.2812 46.1875 39.3125
Q53.4688 37.75 57.5 32.7812
Q61.5312 27.8281 61.5312 20.4062
Q61.5312 10.6406 54.8906 5.3125
Q48.25 0 35.9844 0
L9.8125 0
z
" id="DejaVuSans-42"/>
     <path d="
M64.4062 67.2812
L64.4062 56.8906
Q59.4219 61.5312 53.7812 63.8125
Q48.1406 66.1094 41.7969 66.1094
Q29.2969 66.1094 22.6562 58.4688
Q16.0156 50.8281 16.0156 36.375
Q16.0156 21.9688 22.6562 14.3281
Q29.2969 6.6875 41.7969 6.6875
Q48.1406 6.6875 53.7812 8.98438
Q59.4219 11.2812 64.4062 15.9219
L64.4062 5.60938
Q59.2344 2.09375 53.4375 0.328125
Q47.6562 -1.42188 41.2188 -1.42188
Q24.6562 -1.42188 15.125 8.70312
Q5.60938 18.8438 5.60938 36.375
Q5.60938 53.9531 15.125 64.0781
Q24.6562 74.2188 41.2188 74.2188
Q47.75 74.2188 53.5312 72.4844
Q59.3281 70.75 64.4062 67.2812" id="DejaVuSans-43"/>
     <path d="
M8.5 21.5781
L8.5 54.6875
L17.4844 54.6875
L17.4844 21.9219
Q17.4844 14.1562 20.5 10.2656
Q23.5312 6.39062 29.5938 6.39062
Q36.8594 6.39062 41.0781 11.0312
Q45.3125 15.6719 45.3125 23.6875
L45.3125 54.6875
L54.2969 54.6875
L54.2969 0
L45.3125 0
L45.3125 8.40625
Q42.0469 3.42188 37.7188 1
Q33.4062 -1.42188 27.6875 -1.42188
Q18.2656 -1.42188 13.375 4.4375
Q8.5 10.2969 8.5 21.5781
M31.1094 56
z
" id="DejaVuSans-75"/>
     <path d="
M18.3125 70.2188
L18.3125 54.6875
L36.8125 54.6875
L36.8125 47.7031
L18.3125 47.7031
L18.3125 18.0156
Q18.3125 11.3281 20.1406 9.42188
Q21.9688 7.51562 27.5938 7.51562
L36.8125 7.51562
L36.8125 0
L27.5938 0
Q17.1875 0 13.2344 3.875
Q9.28125 7.76562 9.28125 18.0156
L9.28125 47.7031
L2.6875 47.7031
L2.6875 54.6875
L9.28125 54.6875
L9.28125 70.2188
z
" id="DejaVuSans-74"/>
     <path d="
M4.20312 54.6875
L13.1875 54.6875
L24.4219 12.0156
L35.5938 54.6875
L46.1875 54.6875
L57.4219 12.0156
L68.6094 54.6875
L77.5938 54.6875
L63.2812 0
L52.6875 0
L40.9219 44.8281
L29.1094 0
L18.5 0
z
" id="DejaVuSans-77"/>
     <path d="
M48.6875 27.2969
Q48.6875 37.2031 44.6094 42.8438
Q40.5312 48.4844 33.4062 48.4844
Q26.2656 48.4844 22.1875 42.8438
Q18.1094 37.2031 18.1094 27.2969
Q18.1094 17.3906 22.1875 11.75
Q26.2656 6.10938 33.4062 6.10938
Q40.5312 6.10938 44.6094 11.75
Q48.6875 17.3906 48.6875 27.2969
M18.1094 46.3906
Q20.9531 51.2656 25.2656 53.625
Q29.5938 56 35.5938 56
Q45.5625 56 51.7812 48.0938
Q58.0156 40.1875 58.0156 27.2969
Q58.0156 14.4062 51.7812 6.48438
Q45.5625 -1.42188 35.5938 -1.42188
Q29.5938 -1.42188 25.2656 0.953125
Q20.9531 3.32812 18.1094 8.20312
L18.1094 0
L9.07812 0
L9.07812 75.9844
L18.1094 75.9844
z
" id="DejaVuSans-62"/>
     <path d="
M9.42188 54.6875
L18.4062 54.6875
L18.4062 0
L9.42188 0
z

M9.42188 75.9844
L18.4062 75.9844
L18.4062 64.5938
L9.42188 64.5938
z
" id="DejaVuSans-69"/>
     <path d="
M44.2812 53.0781
L44.2812 44.5781
Q40.4844 46.5312 36.375 47.5
Q32.2812 48.4844 27.875 48.4844
Q21.1875 48.4844 17.8438 46.4375
Q14.5 44.3906 14.5 40.2812
Q14.5 37.1562 16.8906 35.375
Q19.2812 33.5938 26.5156 31.9844
L29.5938 31.2969
Q39.1562 29.25 43.1875 25.5156
Q47.2188 21.7812 47.2188 15.0938
Q47.2188 7.46875 41.1875 3.01562
Q35.1562 -1.42188 24.6094 -1.42188
Q20.2188 -1.42188 15.4531 -0.5625
Q10.6875 0.296875 5.42188 2
L5.42188 11.2812
Q10.4062 8.6875 15.2344 7.39062
Q20.0625 6.10938 24.8125 6.10938
Q31.1562 6.10938 34.5625 8.28125
Q37.9844 10.4531 37.9844 14.4062
Q37.9844 18.0625 35.5156 20.0156
Q33.0625 21.9688 24.7031 23.7812
L21.5781 24.5156
Q13.2344 26.2656 9.51562 29.9062
Q5.8125 33.5469 5.8125 39.8906
Q5.8125 47.6094 11.2812 51.7969
Q16.75 56 26.8125 56
Q31.7812 56 36.1719 55.2656
Q40.5781 54.5469 44.2812 53.0781" id="DejaVuSans-73"/>
     <path d="
M41.1094 46.2969
Q39.5938 47.1719 37.8125 47.5781
Q36.0312 48 33.8906 48
Q26.2656 48 22.1875 43.0469
Q18.1094 38.0938 18.1094 28.8125
L18.1094 0
L9.07812 0
L9.07812 54.6875
L18.1094 54.6875
L18.1094 46.1875
Q20.9531 51.1719 25.4844 53.5781
Q30.0312 56 36.5312 56
Q37.4531 56 38.5781 55.875
Q39.7031 55.7656 41.0625 55.5156
z
" id="DejaVuSans-72"/>
    </defs>
    <g transform="translate(126.676125 39.1)scale(0.144 -0.144)">
     <use xlink:href="#DejaVuSans-77"/>
     <use x="81.787109375" xlink:href="#DejaVuSans-6e"/>
     <use x="145.166015625" xlink:href="#DejaVuSans-20"/>
     <use x="176.953125" xlink:href="#DejaVuSans-42"/>
     <use x="243.806640625" xlink:href="#DejaVuSans-43"/>
     <use x="313.630859375" xlink:href="#DejaVuSans-73"/>
     <use x="365.73046875" xlink:href="#DejaVuSans-20"/>
     <use x="397.517578125" xlink:href="#DejaVuSans-72"/>
     <use x="438.630859375" xlink:href="#DejaVuSans-61"/>
     <use x="499.91015625" xlink:href="#DejaVuSans-74"/>
     <use x="539.119140625" xlink:href="#DejaVuSans-69"/>
     <use x="566.90234375" xlink:href="#DejaVuSans-6f"/>
     <use x="628.083984375" xlink:href="#DejaVuSans-20"/>
     <use x="659.87109375" xlink:href="#DejaVuSans-5b"/>
     <use x="698.884765625" xlink:href="#DejaVuSans-73"/>
     <use x="750.984375" xlink:href="#DejaVuSans-75"/>
     <use x="814.36328125" xlink:href="#DejaVuSans-62"/>
     <use x="877.83984375" xlink:href="#DejaVuSans-73"/>
     <use x="929.939453125" xlink:href="#DejaVuSans-74"/>
     <use x="969.1484375" xlink:href="#DejaVuSans-69"/>
     <use x="996.931640625" xlink:href="#DejaVuSans-74"/>
     <use x="1036.140625" xlink:href="#DejaVuSans-75"/>
     <use x="1099.51953125" xlink:href="#DejaVuSans-74"/>
     <use x="1138.72851562" xlink:href="#DejaVuSans-69"/>
     <use x="1166.51171875" xlink:href="#DejaVuSans-6f"/>
     <use x="1227.69335938" xlink:href="#DejaVuSans-6e"/>
     <use x="1291.07226562" xlink:href="#DejaVuSans-73"/>
     <use x="1343.171875" xlink:href="#DejaVuSans-3d"/>
     <use x="1426.9609375" xlink:href="#DejaVuSans-74"/>
     <use x="1466.16992188" xlink:href="#DejaVuSans-62"/>
     <use x="1529.64648438" xlink:href="#DejaVuSans-67"/>
     <use x="1593.12304688" xlink:href="#DejaVuSans-73"/>
     <use x="1645.22265625" xlink:href="#DejaVuSans-2c"/>
     <use x="1677.00976562" xlink:href="#DejaVuSans-20"/>
     <use x="1708.796875" xlink:href="#DejaVuSans-73"/>
     <use x="1760.89648438" xlink:href="#DejaVuSans-75"/>
     <use x="1824.27539062" xlink:href="#DejaVuSans-62"/>
     <use x="1887.75195312" xlink:href="#DejaVuSans-73"/>
     <use x="1939.8515625" xlink:href="#DejaVuSans-74"/>
     <use x="1979.06054688" xlink:href="#DejaVuSans-72"/>
     <use x="2020.17382812" xlink:href="#DejaVuSans-69"/>
     <use x="2047.95703125" xlink:href="#DejaVuSans-6e"/>
     <use x="2111.3359375" xlink:href="#DejaVuSans-67"/>
     <use x="2174.8125" xlink:href="#DejaVuSans-73"/>
     <use x="2226.91210938" xlink:href="#DejaVuSans-3d"/>
     <use x="2310.70117188" xlink:href="#DejaVuSans-30"/>
     <use x="2374.32421875" xlink:href="#DejaVuSans-5d"/>
    </g>
   </g>
   <g id="legend_1">
    <g id="patch_12">
     <path d="
M405.016 391.902
L521.502 391.902
L521.502 344.886
L405.016 344.886
L405.016 391.902
z
" style="fill:#ffffff;stroke:#000000;"/>
    </g>
    <g id="line2d_51">
     <path d="
M412.013 352.982
L426.007 352.982" style="fill:none;stroke:#000000;stroke-dasharray:6.000000,6.000000;stroke-dashoffset:0.0;stroke-linecap:butt;stroke-width:2;"/>
    </g>
    <g id="line2d_52"/>
    <g id="text_12">
     <!-- H0 -->
     <defs>
      <path d="
M9.8125 72.9062
L19.6719 72.9062
L19.6719 43.0156
L55.5156 43.0156
L55.5156 72.9062
L65.375 72.9062
L65.375 0
L55.5156 0
L55.5156 34.7188
L19.6719 34.7188
L19.6719 0
L9.8125 0
z
" id="DejaVuSans-48"/>
     </defs>
     <g transform="translate(437.003000625 356.480236875)scale(0.09996 -0.09996)">
      <use xlink:href="#DejaVuSans-48"/>
      <use x="75.1953125" xlink:href="#DejaVuSans-30"/>
     </g>
    </g>
    <g id="line2d_53"/>
    <g id="line2d_54">
     <g>
      <use style="fill:#0000ff;stroke:#000000;stroke-linecap:butt;stroke-width:0.5;" x="412.013000625" xlink:href="#m97ccdbe907" y="367.653890625"/>
      <use style="fill:#0000ff;stroke:#000000;stroke-linecap:butt;stroke-width:0.5;" x="426.007400625" xlink:href="#m97ccdbe907" y="367.653890625"/>
     </g>
    </g>
    <g id="text_13">
     <!-- averages -->
     <defs>
      <path d="
M2.98438 54.6875
L12.5 54.6875
L29.5938 8.79688
L46.6875 54.6875
L56.2031 54.6875
L35.6875 0
L23.4844 0
z
" id="DejaVuSans-76"/>
      <path d="
M56.2031 29.5938
L56.2031 25.2031
L14.8906 25.2031
Q15.4844 15.9219 20.4844 11.0625
Q25.4844 6.20312 34.4219 6.20312
Q39.5938 6.20312 44.4531 7.46875
Q49.3125 8.73438 54.1094 11.2812
L54.1094 2.78125
Q49.2656 0.734375 44.1875 -0.34375
Q39.1094 -1.42188 33.8906 -1.42188
Q20.7969 -1.42188 13.1562 6.1875
Q5.51562 13.8125 5.51562 26.8125
Q5.51562 40.2344 12.7656 48.1094
Q20.0156 56 32.3281 56
Q43.3594 56 49.7812 48.8906
Q56.2031 41.7969 56.2031 29.5938
M47.2188 32.2344
Q47.125 39.5938 43.0938 43.9844
Q39.0625 48.3906 32.4219 48.3906
Q24.9062 48.3906 20.3906 44.1406
Q15.875 39.8906 15.1875 32.1719
z
" id="DejaVuSans-65"/>
     </defs>
     <g transform="translate(437.003000625 371.152490625)scale(0.09996 -0.09996)">
      <use xlink:href="#DejaVuSans-61"/>
      <use x="61.279296875" xlink:href="#DejaVuSans-76"/>
      <use x="120.458984375" xlink:href="#DejaVuSans-65"/>
      <use x="181.982421875" xlink:href="#DejaVuSans-72"/>
      <use x="223.095703125" xlink:href="#DejaVuSans-61"/>
      <use x="284.375" xlink:href="#DejaVuSans-67"/>
      <use x="347.8515625" xlink:href="#DejaVuSans-65"/>
      <use x="409.375" xlink:href="#DejaVuSans-73"/>
     </g>
    </g>
    <g id="line2d_55"/>
    <g id="line2d_56">
     <g>
      <use style="fill:#bf00bf;stroke:#bf00bf;stroke-linecap:butt;stroke-width:0.5;" x="412.013000625" xlink:href="#mc0debf2262" y="382.326144375"/>
      <use style="fill:#bf00bf;stroke:#bf00bf;stroke-linecap:butt;stroke-width:0.5;" x="426.007400625" xlink:href="#mc0debf2262" y="382.326144375"/>
     </g>
    </g>
    <g id="text_14">
     <!-- avgs +/- IC-95% -->
     <defs>
      <path d="
M46 62.7031
L46 35.5
L73.1875 35.5
L73.1875 27.2031
L46 27.2031
L46 0
L37.7969 0
L37.7969 27.2031
L10.5938 27.2031
L10.5938 35.5
L37.7969 35.5
L37.7969 62.7031
z
" id="DejaVuSans-2b"/>
      <path d="
M25.3906 72.9062
L33.6875 72.9062
L8.29688 -9.28125
L0 -9.28125
z
" id="DejaVuSans-2f"/>
      <path d="
M4.89062 31.3906
L31.2031 31.3906
L31.2031 23.3906
L4.89062 23.3906
z
" id="DejaVuSans-2d"/>
      <path d="
M10.7969 72.9062
L49.5156 72.9062
L49.5156 64.5938
L19.8281 64.5938
L19.8281 46.7344
Q21.9688 47.4688 24.1094 47.8281
Q26.2656 48.1875 28.4219 48.1875
Q40.625 48.1875 47.75 41.5
Q54.8906 34.8125 54.8906 23.3906
Q54.8906 11.625 47.5625 5.09375
Q40.2344 -1.42188 26.9062 -1.42188
Q22.3125 -1.42188 17.5469 -0.640625
Q12.7969 0.140625 7.71875 1.70312
L7.71875 11.625
Q12.1094 9.23438 16.7969 8.0625
Q21.4844 6.89062 26.7031 6.89062
Q35.1562 6.89062 40.0781 11.3281
Q45.0156 15.7656 45.0156 23.3906
Q45.0156 31 40.0781 35.4375
Q35.1562 39.8906 26.7031 39.8906
Q22.75 39.8906 18.8125 39.0156
Q14.8906 38.1406 10.7969 36.2812
z
" id="DejaVuSans-35"/>
      <path d="
M72.7031 32.0781
Q68.4531 32.0781 66.0312 28.4688
Q63.625 24.8594 63.625 18.4062
Q63.625 12.0625 66.0312 8.42188
Q68.4531 4.78125 72.7031 4.78125
Q76.8594 4.78125 79.2656 8.42188
Q81.6875 12.0625 81.6875 18.4062
Q81.6875 24.8125 79.2656 28.4375
Q76.8594 32.0781 72.7031 32.0781
M72.7031 38.2812
Q80.4219 38.2812 84.9531 32.9062
Q89.5 27.5469 89.5 18.4062
Q89.5 9.28125 84.9375 3.92188
Q80.375 -1.42188 72.7031 -1.42188
Q64.8906 -1.42188 60.3438 3.92188
Q55.8125 9.28125 55.8125 18.4062
Q55.8125 27.5938 60.375 32.9375
Q64.9375 38.2812 72.7031 38.2812
M22.3125 68.0156
Q18.1094 68.0156 15.6875 64.375
Q13.2812 60.75 13.2812 54.3906
Q13.2812 47.9531 15.6719 44.3281
Q18.0625 40.7188 22.3125 40.7188
Q26.5625 40.7188 28.9688 44.3281
Q31.3906 47.9531 31.3906 54.3906
Q31.3906 60.6875 28.9531 64.3438
Q26.5156 68.0156 22.3125 68.0156
M66.4062 74.2188
L74.2188 74.2188
L28.6094 -1.42188
L20.7969 -1.42188
z

M22.3125 74.2188
Q30.0312 74.2188 34.6094 68.875
Q39.2031 63.5312 39.2031 54.3906
Q39.2031 45.1719 34.6406 39.8438
Q30.0781 34.5156 22.3125 34.5156
Q14.5469 34.5156 10.0312 39.8594
Q5.51562 45.2188 5.51562 54.3906
Q5.51562 63.4844 10.0469 68.8438
Q14.5938 74.2188 22.3125 74.2188" id="DejaVuSans-25"/>
      <path d="
M10.9844 1.51562
L10.9844 10.5
Q14.7031 8.73438 18.5 7.8125
Q22.3125 6.89062 25.9844 6.89062
Q35.75 6.89062 40.8906 13.4531
Q46.0469 20.0156 46.7812 33.4062
Q43.9531 29.2031 39.5938 26.9531
Q35.25 24.7031 29.9844 24.7031
Q19.0469 24.7031 12.6719 31.3125
Q6.29688 37.9375 6.29688 49.4219
Q6.29688 60.6406 12.9375 67.4219
Q19.5781 74.2188 30.6094 74.2188
Q43.2656 74.2188 49.9219 64.5156
Q56.5938 54.8281 56.5938 36.375
Q56.5938 19.1406 48.4062 8.85938
Q40.2344 -1.42188 26.4219 -1.42188
Q22.7031 -1.42188 18.8906 -0.6875
Q15.0938 0.046875 10.9844 1.51562
M30.6094 32.4219
Q37.25 32.4219 41.125 36.9531
Q45.0156 41.5 45.0156 49.4219
Q45.0156 57.2812 41.125 61.8438
Q37.25 66.4062 30.6094 66.4062
Q23.9688 66.4062 20.0938 61.8438
Q16.2188 57.2812 16.2188 49.4219
Q16.2188 41.5 20.0938 36.9531
Q23.9688 32.4219 30.6094 32.4219" id="DejaVuSans-39"/>
      <path d="
M9.8125 72.9062
L19.6719 72.9062
L19.6719 0
L9.8125 0
z
" id="DejaVuSans-49"/>
     </defs>
     <g transform="translate(437.003000625 385.824744375)scale(0.09996 -0.09996)">
      <use xlink:href="#DejaVuSans-61"/>
      <use x="61.279296875" xlink:href="#DejaVuSans-76"/>
      <use x="120.458984375" xlink:href="#DejaVuSans-67"/>
      <use x="183.935546875" xlink:href="#DejaVuSans-73"/>
      <use x="236.03515625" xlink:href="#DejaVuSans-20"/>
      <use x="267.822265625" xlink:href="#DejaVuSans-2b"/>
      <use x="351.611328125" xlink:href="#DejaVuSans-2f"/>
      <use x="385.302734375" xlink:href="#DejaVuSans-2d"/>
      <use x="421.38671875" xlink:href="#DejaVuSans-20"/>
      <use x="453.173828125" xlink:href="#DejaVuSans-49"/>
      <use x="482.666015625" xlink:href="#DejaVuSans-43"/>
      <use x="552.490234375" xlink:href="#DejaVuSans-2d"/>
      <use x="588.57421875" xlink:href="#DejaVuSans-39"/>
      <use x="652.197265625" xlink:href="#DejaVuSans-35"/>
      <use x="715.8203125" xlink:href="#DejaVuSans-25"/>
     </g>
    </g>
   </g>
  </g>
 </g>
 <defs>
  <clipPath id="p5873ec822d">
   <rect height="352.8" width="453.375" x="73.125" y="44.1"/>
  </clipPath>
 </defs>
</svg>
