<?xml version="1.0" encoding="UTF-8" standalone="no"?>
<!-- Created with Inkscape (http://www.inkscape.org/) -->

<svg
   xmlns:osb="http://www.openswatchbook.org/uri/2009/osb"
   xmlns:dc="http://purl.org/dc/elements/1.1/"
   xmlns:cc="http://creativecommons.org/ns#"
   xmlns:rdf="http://www.w3.org/1999/02/22-rdf-syntax-ns#"
   xmlns:svg="http://www.w3.org/2000/svg"
   xmlns="http://www.w3.org/2000/svg"
   xmlns:sodipodi="http://sodipodi.sourceforge.net/DTD/sodipodi-0.dtd"
   xmlns:inkscape="http://www.inkscape.org/namespaces/inkscape"
   width="744.09448819"
   height="1052.3622047"
   id="svg2"
   version="1.1"
   inkscape:version="0.48.4 r9939"
   sodipodi:docname="substitution-chains.pdf">
  <defs
     id="defs4">
    <marker
       inkscape:stockid="Arrow1Mend"
       orient="auto"
       refY="0.0"
       refX="0.0"
       id="Arrow1Mend"
       style="overflow:visible;">
      <path
         id="path3913"
         d="M 0.0,0.0 L 5.0,-5.0 L -12.5,0.0 L 5.0,5.0 L 0.0,0.0 z "
         style="fill-rule:evenodd;stroke:#000000;stroke-width:1.0pt;"
         transform="scale(0.4) rotate(180) translate(10,0)" />
    </marker>
    <marker
       inkscape:stockid="Arrow1Mstart"
       orient="auto"
       refY="0.0"
       refX="0.0"
       id="Arrow1Mstart"
       style="overflow:visible">
      <path
         id="path3910"
         d="M 0.0,0.0 L 5.0,-5.0 L -12.5,0.0 L 5.0,5.0 L 0.0,0.0 z "
         style="fill-rule:evenodd;stroke:#000000;stroke-width:1.0pt"
         transform="scale(0.4) translate(10,0)" />
    </marker>
    <marker
       inkscape:stockid="Arrow1Lstart"
       orient="auto"
       refY="0.0"
       refX="0.0"
       id="Arrow1Lstart"
       style="overflow:visible">
      <path
         id="path3904"
         d="M 0.0,0.0 L 5.0,-5.0 L -12.5,0.0 L 5.0,5.0 L 0.0,0.0 z "
         style="fill-rule:evenodd;stroke:#000000;stroke-width:1.0pt"
         transform="scale(0.8) translate(12.5,0)" />
    </marker>
    <linearGradient
       id="linearGradient4926"
       osb:paint="solid">
      <stop
         style="stop-color:#000000;stop-opacity:1;"
         offset="0"
         id="stop4928" />
    </linearGradient>
    <marker
       inkscape:stockid="Arrow1Lend"
       orient="auto"
       refY="0.0"
       refX="0.0"
       id="Arrow1Lend"
       style="overflow:visible;">
      <path
         id="path3907"
         d="M 0.0,0.0 L 5.0,-5.0 L -12.5,0.0 L 5.0,5.0 L 0.0,0.0 z "
         style="fill-rule:evenodd;stroke:#000000;stroke-width:1.0pt;"
         transform="scale(0.8) rotate(180) translate(12.5,0)" />
    </marker>
    <marker
       inkscape:stockid="Arrow1Lend"
       orient="auto"
       refY="0"
       refX="0"
       id="Arrow1Lend-7"
       style="overflow:visible">
      <path
         inkscape:connector-curvature="0"
         id="path3907-7"
         d="M 0,0 5,-5 -12.5,0 5,5 0,0 z"
         style="fill-rule:evenodd;stroke:#000000;stroke-width:1pt"
         transform="matrix(-0.8,0,0,-0.8,-10,0)" />
    </marker>
    <marker
       inkscape:stockid="Arrow1Lend"
       orient="auto"
       refY="0"
       refX="0"
       id="Arrow1Lend-4"
       style="overflow:visible">
      <path
         inkscape:connector-curvature="0"
         id="path3907-5"
         d="M 0,0 5,-5 -12.5,0 5,5 0,0 z"
         style="fill-rule:evenodd;stroke:#000000;stroke-width:1pt"
         transform="matrix(-0.8,0,0,-0.8,-10,0)" />
    </marker>
    <marker
       inkscape:stockid="Arrow1Lend"
       orient="auto"
       refY="0"
       refX="0"
       id="Arrow1Lend-0"
       style="overflow:visible">
      <path
         inkscape:connector-curvature="0"
         id="path3907-9"
         d="M 0,0 5,-5 -12.5,0 5,5 0,0 z"
         style="fill-rule:evenodd;stroke:#000000;stroke-width:1pt"
         transform="matrix(-0.8,0,0,-0.8,-10,0)" />
    </marker>
    <marker
       inkscape:stockid="Arrow1Lend"
       orient="auto"
       refY="0"
       refX="0"
       id="marker4434"
       style="overflow:visible">
      <path
         inkscape:connector-curvature="0"
         id="path4436"
         d="M 0,0 5,-5 -12.5,0 5,5 0,0 z"
         style="fill-rule:evenodd;stroke:#000000;stroke-width:1pt"
         transform="matrix(-0.8,0,0,-0.8,-10,0)" />
    </marker>
    <marker
       inkscape:stockid="Arrow1Lend"
       orient="auto"
       refY="0"
       refX="0"
       id="marker4438"
       style="overflow:visible">
      <path
         inkscape:connector-curvature="0"
         id="path4440"
         d="M 0,0 5,-5 -12.5,0 5,5 0,0 z"
         style="fill-rule:evenodd;stroke:#000000;stroke-width:1pt"
         transform="matrix(-0.8,0,0,-0.8,-10,0)" />
    </marker>
    <clipPath
       clipPathUnits="userSpaceOnUse"
       id="clipPath6378-6">
      <path
         inkscape:connector-curvature="0"
         id="use6380-6"
         d="m 129.63645,1724.3496 c 0,30.6064 -18.36179,55.4178 -41.0122,55.4178 -22.6504,0 -41.01219,-24.8114 -41.01219,-55.4178 0,-30.6064 18.36179,-55.4178 41.01219,-55.4178 22.65041,0 41.0122,24.8114 41.0122,55.4178 z"
         style="fill:#c5ffdd;fill-opacity:1;stroke:none" />
    </clipPath>
    <clipPath
       clipPathUnits="userSpaceOnUse"
       id="clipPath6485">
      <path
         inkscape:connector-curvature="0"
         id="use6487"
         d="m 394.88027,1331.9836 c 0,25.9524 -33.31161,46.9913 -74.40357,46.9913 -41.09196,0 -74.40357,-21.0389 -74.40357,-46.9913 0,-25.9526 33.31161,-46.9912 74.40357,-46.9912 41.09196,0 74.40357,21.0386 74.40357,46.9912 z"
         style="fill:#9bcdff;fill-opacity:1;stroke:none" />
    </clipPath>
    <clipPath
       clipPathUnits="userSpaceOnUse"
       id="clipPath6485-6">
      <path
         inkscape:connector-curvature="0"
         id="use6487-6"
         d="m 394.88027,1331.9836 c 0,25.9524 -33.31161,46.9913 -74.40357,46.9913 -41.09196,0 -74.40357,-21.0389 -74.40357,-46.9913 0,-25.9526 33.31161,-46.9912 74.40357,-46.9912 41.09196,0 74.40357,21.0386 74.40357,46.9912 z"
         style="fill:#9bcdff;fill-opacity:1;stroke:none" />
    </clipPath>
    <clipPath
       clipPathUnits="userSpaceOnUse"
       id="clipPath6537">
      <path
         inkscape:connector-curvature="0"
         id="use6539"
         d="m 592.79129,1276.0714 c 0,30.6064 -18.36179,55.4178 -41.0122,55.4178 -22.6504,0 -41.01219,-24.8114 -41.01219,-55.4178 0,-30.6064 18.36179,-55.4178 41.01219,-55.4178 22.65041,0 41.0122,24.8114 41.0122,55.4178 z"
         style="fill:#9bffc4;fill-opacity:1;stroke:none" />
    </clipPath>
    <marker
       inkscape:stockid="Arrow1Lend"
       orient="auto"
       refY="0"
       refX="0"
       id="marker4438-3"
       style="overflow:visible">
      <path
         inkscape:connector-curvature="0"
         id="path4440-3"
         d="M 0,0 5,-5 -12.5,0 5,5 0,0 z"
         style="fill-rule:evenodd;stroke:#000000;stroke-width:1pt"
         transform="matrix(-0.8,0,0,-0.8,-10,0)" />
    </marker>
    <marker
       inkscape:stockid="Arrow1Mstart"
       orient="auto"
       refY="0"
       refX="0"
       id="Arrow1Mstart-5"
       style="overflow:visible">
      <path
         inkscape:connector-curvature="0"
         id="path3910-8"
         d="M 0,0 5,-5 -12.5,0 5,5 0,0 z"
         style="fill-rule:evenodd;stroke:#000000;stroke-width:1pt"
         transform="matrix(0.4,0,0,0.4,4,0)" />
    </marker>
    <marker
       inkscape:stockid="Arrow1Mend"
       orient="auto"
       refY="0"
       refX="0"
       id="Arrow1Mend-4"
       style="overflow:visible">
      <path
         inkscape:connector-curvature="0"
         id="path3913-8"
         d="M 0,0 5,-5 -12.5,0 5,5 0,0 z"
         style="fill-rule:evenodd;stroke:#000000;stroke-width:1pt"
         transform="matrix(-0.4,0,0,-0.4,-4,0)" />
    </marker>
    <marker
       inkscape:stockid="Arrow1Mstart"
       orient="auto"
       refY="0"
       refX="0"
       id="Arrow1Mstart-6"
       style="overflow:visible">
      <path
         inkscape:connector-curvature="0"
         id="path3910-82"
         d="M 0,0 5,-5 -12.5,0 5,5 0,0 z"
         style="fill-rule:evenodd;stroke:#000000;stroke-width:1pt"
         transform="matrix(0.4,0,0,0.4,4,0)" />
    </marker>
    <marker
       inkscape:stockid="Arrow1Mend"
       orient="auto"
       refY="0"
       refX="0"
       id="Arrow1Mend-9"
       style="overflow:visible">
      <path
         inkscape:connector-curvature="0"
         id="path3913-85"
         d="M 0,0 5,-5 -12.5,0 5,5 0,0 z"
         style="fill-rule:evenodd;stroke:#000000;stroke-width:1pt"
         transform="matrix(-0.4,0,0,-0.4,-4,0)" />
    </marker>
    <marker
       inkscape:stockid="Arrow1Mstart"
       orient="auto"
       refY="0"
       refX="0"
       id="Arrow1Mstart-4"
       style="overflow:visible">
      <path
         inkscape:connector-curvature="0"
         id="path3910-6"
         d="M 0,0 5,-5 -12.5,0 5,5 0,0 z"
         style="fill-rule:evenodd;stroke:#000000;stroke-width:1pt"
         transform="matrix(0.4,0,0,0.4,4,0)" />
    </marker>
    <marker
       inkscape:stockid="Arrow1Mend"
       orient="auto"
       refY="0"
       refX="0"
       id="Arrow1Mend-8"
       style="overflow:visible">
      <path
         inkscape:connector-curvature="0"
         id="path3913-2"
         d="M 0,0 5,-5 -12.5,0 5,5 0,0 z"
         style="fill-rule:evenodd;stroke:#000000;stroke-width:1pt"
         transform="matrix(-0.4,0,0,-0.4,-4,0)" />
    </marker>
    <marker
       inkscape:stockid="Arrow1Lend"
       orient="auto"
       refY="0"
       refX="0"
       id="marker4438-3-9"
       style="overflow:visible">
      <path
         inkscape:connector-curvature="0"
         id="path4440-3-2"
         d="M 0,0 5,-5 -12.5,0 5,5 0,0 z"
         style="fill-rule:evenodd;stroke:#000000;stroke-width:1pt"
         transform="matrix(-0.8,0,0,-0.8,-10,0)" />
    </marker>
  </defs>
  <sodipodi:namedview
     id="base"
     pagecolor="#ffffff"
     bordercolor="#666666"
     borderopacity="1.0"
     inkscape:pageopacity="0.0"
     inkscape:pageshadow="2"
     inkscape:zoom="1.4142136"
     inkscape:cx="377.8456"
     inkscape:cy="382.51413"
     inkscape:document-units="px"
     inkscape:current-layer="layer1"
     showgrid="false"
     inkscape:window-width="1680"
     inkscape:window-height="1011"
     inkscape:window-x="1366"
     inkscape:window-y="0"
     inkscape:window-maximized="1"
     inkscape:object-paths="false"
     inkscape:object-nodes="false" />
  <metadata
     id="metadata7">
    <rdf:RDF>
      <cc:Work
         rdf:about="">
        <dc:format>image/svg+xml</dc:format>
        <dc:type
           rdf:resource="http://purl.org/dc/dcmitype/StillImage" />
        <dc:title></dc:title>
      </cc:Work>
    </rdf:RDF>
  </metadata>
  <g
     inkscape:label="Layer 1"
     inkscape:groupmode="layer"
     id="layer1">
    <g
       id="g10940"
       transform="translate(-0.57334606,0)">
      <path
         inkscape:connector-curvature="0"
         id="path3793-9-0-29-31"
         d="m 198.56534,644.88225 c 0,23.5931 -30.28328,42.7193 -67.63961,42.7193 -37.356327,0 -67.639612,-19.1262 -67.639612,-42.7193 0,-23.5933 30.283285,-42.7193 67.639612,-42.7193 37.35633,0 67.63961,19.126 67.63961,42.7193 z"
         style="fill:#afd1ff;fill-opacity:1;stroke:#462bc8;stroke-width:2;stroke-miterlimit:4;stroke-opacity:1;stroke-dasharray:none" />
      <text
         sodipodi:linespacing="125%"
         id="text4386-8"
         y="647.64105"
         x="126.92818"
         style="font-size:10px;font-style:normal;font-weight:normal;text-align:start;line-height:125%;letter-spacing:0px;word-spacing:0px;text-anchor:start;fill:#000000;fill-opacity:1;stroke:none;font-family:Sans"
         xml:space="preserve"><tspan
           style="text-align:start;text-anchor:start"
           y="647.64105"
           x="126.92818"
           id="tspan4388-6"
           sodipodi:role="line">$\mathcal{B}_0$</tspan></text>
      <path
         sodipodi:nodetypes="cc"
         inkscape:connector-curvature="0"
         id="path10416"
         d="m 178.37325,614.43643 c 27.0094,-15.86278 60.28361,-16.80734 95.81913,0.70709"
         style="fill:none;stroke:#000000;stroke-width:1.03606832px;stroke-linecap:butt;stroke-linejoin:miter;stroke-opacity:1;marker-end:url(#marker4438-3)" />
      <path
         sodipodi:nodetypes="cc"
         inkscape:connector-curvature="0"
         id="path10416-0"
         d="m 373.20048,602.70917 c 21.77973,-13.97324 44.87669,-13.40945 72.73684,2.18954"
         style="fill:none;stroke:#000000;stroke-width:1.03606832px;stroke-linecap:butt;stroke-linejoin:miter;stroke-opacity:1;marker-end:url(#marker4438-3)" />
      <path
         inkscape:connector-curvature="0"
         id="path3793-9-0-2-7-7"
         d="m 373.88832,612.87005 c 0,30.6064 -18.36179,55.4178 -41.0122,55.4178 -22.6504,0 -41.01219,-24.8114 -41.01219,-55.4178 0,-30.6064 18.36179,-55.4178 41.01219,-55.4178 22.65041,0 41.0122,24.8114 41.0122,55.4178 z"
         style="fill:#ffc2ad;fill-opacity:1;stroke:none" />
      <text
         sodipodi:linespacing="125%"
         id="text4390-2"
         y="577.87152"
         x="326.87857"
         style="font-size:10px;font-style:normal;font-weight:normal;line-height:125%;letter-spacing:0px;word-spacing:0px;fill:#000000;fill-opacity:1;stroke:none;font-family:Sans"
         xml:space="preserve"><tspan
           style="text-align:start;text-anchor:start"
           y="577.87152"
           x="326.87857"
           id="tspan4392-1"
           sodipodi:role="line">$\mathcal{B}_1$</tspan></text>
      <path
         inkscape:connector-curvature="0"
         id="path3793-9-0-29-31-1"
         d="m 390.39081,644.88225 c 0,23.5931 -30.28328,42.7193 -67.63961,42.7193 -37.35632,0 -67.63961,-19.1262 -67.63961,-42.7193 0,-23.5933 30.28329,-42.7193 67.63961,-42.7193 37.35633,0 67.63961,19.126 67.63961,42.7193 z"
         style="fill:#afd1ff;fill-opacity:0.58823529;stroke:none" />
      <path
         id="path3793-9-0-29-31-1-5"
         d="m 322.73671,585.09005 c -9.13572,0 -17.9543,0.819 -26.3125,2.3438 -2.92022,7.6203 -4.5625,16.2638 -4.5625,25.4374 0,30.6064 18.3496,55.4063 41,55.4063 22.65041,0 41.03125,-24.7999 41.03125,-55.4063 0,-6.7898 -0.90881,-13.3006 -2.5625,-19.3124 -14.20345,-5.3718 -30.83414,-8.4688 -48.59375,-8.4688 z"
         style="fill:none;stroke:#462bc8;stroke-width:2;stroke-miterlimit:4;stroke-opacity:1;stroke-dasharray:none"
         inkscape:connector-curvature="0" />
      <path
         inkscape:connector-curvature="0"
         id="path3793-9-0-29-3-0-8"
         d="m 577.00544,609.31805 c -1.38623,18.6004 -17.50761,35.0259 -36.00818,36.6875 -18.50069,1.6616 -32.37477,-12.07 -30.98869,-30.6704 1.38631,-18.6004 17.50764,-35.0258 36.00833,-36.6874 18.5006,-1.6615 32.37469,12.07 30.98854,30.6703 z"
         style="fill:#daaaff;fill-opacity:1;stroke:none" />
      <text
         sodipodi:linespacing="125%"
         id="text4394-9"
         y="613.6712"
         x="551.35016"
         style="font-size:10px;font-style:normal;font-weight:normal;line-height:125%;letter-spacing:0px;word-spacing:0px;fill:#000000;fill-opacity:1;stroke:none;font-family:Sans"
         xml:space="preserve"><tspan
           style="text-align:start;text-anchor:start;font-size:4px"
           y="613.6712"
           x="551.35016"
           id="tspan4396-9"
           sodipodi:role="line">$\mathcal{B}_2$</tspan></text>
      <path
         id="path3793-9-0-29-31-1-5-2"
         d="m 476.81207,577.31195 c -9.13572,0 -17.9543,0.819 -26.3125,2.3438 -2.92022,7.6203 -4.5625,16.2638 -4.5625,25.4374 0,30.6064 18.3496,55.4063 41,55.4063 22.65041,0 41.03125,-24.7999 41.03125,-55.4063 0,-6.7898 -0.90881,-13.3006 -2.5625,-19.3124 -14.20345,-5.3718 -30.83414,-8.4688 -48.59375,-8.4688 z"
         style="fill:#ffd4c5;fill-opacity:0.60294118;stroke:none"
         inkscape:connector-curvature="0" />
      <path
         id="path3793-9-0-29-31-1-5-2-4"
         d="m 542.36385,579.18385 c -16.92144,3.3345 -31.04978,18.7947 -32.34375,36.1562 -1.17971,15.8311 8.68948,28.1178 23.0625,30.4062 7.08853,-12.8993 11.28125,-28.8885 11.28125,-46.1874 0,-7.0514 -0.69344,-13.8793 -2,-20.375 z"
         style="fill:none;stroke:#462bc8;stroke-width:2;stroke-miterlimit:4;stroke-opacity:1;stroke-dasharray:none"
         inkscape:connector-curvature="0" />
    </g>
    <rect
       style="fill:none;stroke:#000000;stroke-width:0.38686207000000000;stroke-miterlimit:4;stroke-opacity:1;stroke-dasharray:none;stroke-dashoffset:0.09999999000000000"
       id="rect10919"
       width="537.94427"
       height="163.45483"
       x="50.148014"
       y="544.60284" />
  </g>
</svg>
